<svg width="22" height="22" viewBox="0 0 22 22" fill="none" xmlns="http://www.w3.org/2000/svg">
<path d="M4.73 6.72373C5.83 6.72373 6.71 5.82998 6.71 4.74373C6.71 3.65748 5.81625 2.76373 4.73 2.76373C3.64375 2.76373 2.75 3.65748 2.75 4.74373C2.75 5.82998 3.64375 6.72373 4.73 6.72373ZM8.59375 8.22248V19.25H12.0037V13.805C12.0037 12.3612 12.2788 10.9725 14.0525 10.9725C15.8263 10.9725 15.8263 12.6225 15.8263 13.8875V19.25H19.25V13.2C19.25 10.23 18.6175 7.94748 15.1525 7.94748C13.4888 7.94748 12.375 8.85498 11.9213 9.72123H11.88V8.20873H8.6075L8.59375 8.22248ZM3.025 8.22248H6.44875V19.25H3.025V8.22248Z" fill="#61D248"/>
</svg>
