<svg width="166" height="166" viewBox="0 0 166 166" fill="none" xmlns="http://www.w3.org/2000/svg">
<path d="M85.7687 74.6689C95.6015 74.6689 103.573 66.6993 103.573 56.8683C103.573 47.0374 95.6015 39.0679 85.7687 39.0679C75.936 39.0679 67.9648 47.0374 67.9648 56.8683C67.9648 66.6993 75.936 74.6689 85.7687 74.6689Z" fill="#001E50"/>
<path d="M50.7531 71.5442C52.291 74.2645 54.4499 77.4974 57.437 80.7796C61.8929 85.6781 66.5262 88.8418 69.9963 90.8326C63.6575 93.4152 57.3187 96.0075 50.9799 98.5901C48.0915 93.3566 44.6016 85.6976 42.4723 75.9401C40.3232 66.1134 40.3232 57.637 40.7767 51.6641C44.0988 58.2875 47.4211 64.9207 50.7531 71.5442Z" fill="#61D248"/>
<path d="M31.3613 138.824C38.055 142.47 44.7389 146.108 51.4326 149.754C65.4311 132.082 75.1611 125.173 81.6577 122.255C83.0082 121.644 87.2276 119.87 92.235 116.342C97.9336 112.32 101.847 108.013 104.252 105.016C108.955 99.5759 115.471 90.6952 120.055 78.296C125.842 62.6343 125.773 48.8552 125.142 41.0588C122.588 57.0063 115.727 67.2372 111.853 72.1555C101.098 85.8166 87.1388 91.7988 79.4396 95.0025C64.8199 101.084 60.8668 98.4421 52.3494 103.715C44.6994 108.447 35.9946 117.938 31.3613 138.834V138.824Z" fill="#001E50"/>
<path d="M82.7623 155.497C122.948 155.497 155.525 122.927 155.525 82.7487C155.525 42.5707 122.948 10 82.7623 10C42.5768 10 10 42.5707 10 82.7487C10 122.927 42.5768 155.497 82.7623 155.497Z" stroke="#001E50" stroke-width="20"/>
</svg>
