<svg width="76" height="76" viewBox="0 0 76 76" fill="none" xmlns="http://www.w3.org/2000/svg">
<circle cx="38" cy="38" r="38" fill="#61D248"/>
<path d="M27.2743 17.9779C30.5257 16.0304 34.2446 15.0012 38.0347 15C41.188 14.9981 44.3012 15.7081 47.142 17.0768C49.9828 18.4456 52.478 20.4379 54.4417 22.9053C56.4053 25.3726 57.7868 28.2514 58.483 31.327C59.1792 34.4025 59.1722 37.5956 58.4626 40.6681C57.753 43.7406 56.359 46.6133 54.3846 49.072C52.4102 51.5308 49.9063 53.5122 47.0596 54.8686C44.2128 56.225 41.0966 56.9213 37.9433 56.9057C35.3114 56.8927 32.7103 56.384 30.2748 55.4111L16.8205 57.6514C16.4485 57.7134 16.1444 57.3569 16.2642 56.9994L19.8387 46.3307C18.2068 43.4683 17.2694 40.2549 17.112 36.9502C16.9316 33.1644 17.7814 29.4005 19.571 26.0595C21.3606 22.7186 24.0229 19.9255 27.2743 17.9779Z" stroke="white" stroke-width="3" stroke-linecap="round" stroke-linejoin="round"/>
<path d="M38.3493 38.6596C38.3493 37.4176 39.3594 36.6557 41.1416 35.4649C42.7947 34.3604 43.6667 32.9275 43.2788 30.9776C42.891 29.0276 41.2798 27.4164 39.3298 27.0286C36.2689 26.4197 33.3231 28.8373 33.3231 31.9581" stroke="white" stroke-width="3" stroke-linecap="round" stroke-linejoin="round"/>
<path d="M38.3468 47.0697C37.8901 47.0697 37.5199 46.6995 37.5199 46.2428C37.5199 45.7861 37.8901 45.4159 38.3468 45.4159" stroke="white" stroke-width="3" stroke-linecap="round" stroke-linejoin="round"/>
<path d="M38.3469 47.0699C38.8036 47.0699 39.1738 46.6996 39.1738 46.2429C39.1738 45.7862 38.8036 45.416 38.3469 45.416" stroke="white" stroke-width="3" stroke-linecap="round" stroke-linejoin="round"/>
</svg>
