<svg width="576" height="166" viewBox="0 0 576 166" fill="none" xmlns="http://www.w3.org/2000/svg">
<path d="M85.7687 74.6689C95.6015 74.6689 103.573 66.6993 103.573 56.8683C103.573 47.0374 95.6015 39.0679 85.7687 39.0679C75.936 39.0679 67.9648 47.0374 67.9648 56.8683C67.9648 66.6993 75.936 74.6689 85.7687 74.6689Z" fill="white"/>
<path d="M50.7531 71.5445C52.291 74.2648 54.4499 77.4976 57.437 80.7799C61.8929 85.6783 66.5262 88.842 69.9963 90.8328C63.6575 93.4154 57.3187 96.0078 50.9799 98.5903C48.0915 93.3569 44.6016 85.6978 42.4723 75.9404C40.3232 66.1136 40.3232 57.6372 40.7767 51.6643C44.0988 58.2877 47.4211 64.921 50.7531 71.5445Z" fill="#61D248"/>
<path d="M31.3623 138.824C38.056 142.47 44.7398 146.108 51.4335 149.754C65.4321 132.082 75.162 125.173 81.6587 122.255C83.0092 121.644 87.2285 119.87 92.236 116.342C97.9345 112.32 101.848 108.013 104.253 105.016C108.956 99.5759 115.472 90.6952 120.056 78.296C125.843 62.6343 125.774 48.8552 125.143 41.0588C122.589 57.0063 115.728 67.2372 111.854 72.1555C101.099 85.8166 87.1398 91.7988 79.4406 95.0025C64.8208 101.084 60.8678 98.4421 52.3503 103.715C44.7004 108.447 35.9956 117.938 31.3623 138.834V138.824Z" fill="white"/>
<path d="M82.7623 155.497C122.948 155.497 155.525 122.927 155.525 82.7487C155.525 42.5707 122.948 10 82.7623 10C42.5768 10 10 42.5707 10 82.7487C10 122.927 42.5768 155.497 82.7623 155.497Z" stroke="white" stroke-width="20"/>
<path d="M263.027 87.2068L235.475 38.7668H217.64V129.259H236.141V70.4391H236.407L255.84 106.503H270.481L289.914 70.4391H290.18V129.259H308.681V38.7668H290.846L263.294 87.2068H263.027ZM341.943 97.1876C341.943 84.2791 348.198 77.8914 357.382 77.8914C366.833 77.8914 372.955 84.2791 372.955 97.1876C372.955 110.096 366.833 116.484 357.382 116.484C348.198 116.484 341.943 110.096 341.943 97.1876ZM391.323 97.1876C391.323 78.5568 379.744 63.1199 357.382 63.1199C335.421 63.1199 323.575 78.5568 323.575 97.1876C323.575 115.818 335.421 131.255 357.382 131.255C379.744 131.255 391.323 115.818 391.323 97.1876ZM422.603 81.7506C426.197 79.6214 430.856 77.8914 435.514 77.8914C446.162 77.8914 450.821 85.743 450.821 97.1876C450.821 108.632 446.162 116.484 435.514 116.484C430.856 116.484 426.197 114.754 422.603 112.625V81.7506ZM404.634 36.1053V129.259H417.945L420.474 123.537H420.74C425.398 126.731 431.654 131.255 441.104 131.255C459.605 131.255 469.189 115.818 469.189 97.1876C469.189 78.5568 459.605 63.1199 441.104 63.1199C432.187 63.1199 426.729 66.9791 422.869 69.7737H422.603V36.1053H404.634ZM500.593 129.259V65.116H482.624V129.259H500.593ZM481.293 44.0899C481.293 49.8122 485.419 53.9376 491.675 53.9376C498.064 53.9376 502.19 49.8122 502.19 44.0899C502.19 38.3676 498.064 34.2422 491.675 34.2422C485.419 34.2422 481.293 38.3676 481.293 44.0899ZM517.063 36.1053V111.693C517.063 124.468 521.322 130.457 533.568 130.457C537.427 130.457 541.421 130.058 544.216 129.525V117.282H537.161C535.165 117.282 535.032 116.883 535.032 114.887V36.1053H517.063ZM573.903 129.259V65.116H555.934V129.259H573.903ZM554.603 44.0899C554.603 49.8122 558.729 53.9376 564.985 53.9376C571.374 53.9376 575.5 49.8122 575.5 44.0899C575.5 38.3676 571.374 34.2422 564.985 34.2422C558.729 34.2422 554.603 38.3676 554.603 44.0899Z" fill="white"/>
</svg>
