<svg width="36" height="33" viewBox="0 0 36 33" fill="none" xmlns="http://www.w3.org/2000/svg">
<path d="M8.17228 33V10.735H0.455299V33H8.17228ZM4.31479 7.69322C7.00584 7.69322 8.68089 5.98352 8.68089 3.84697C8.63075 1.66224 7.00594 0 4.36586 0C1.72618 0 0 1.66227 0 3.84697C0 5.98362 1.67464 7.69322 4.26441 7.69322H4.31479ZM12.4436 33H20.1606V20.5661C20.1606 19.9007 20.2107 19.2359 20.4145 18.7602C20.9724 17.4307 22.2421 16.0537 24.3739 16.0537C27.1664 16.0537 28.2835 18.0954 28.2835 21.0885V32.9998H36V20.2333C36 13.3943 32.1929 10.2122 27.1155 10.2122C22.9525 10.2122 21.1247 12.4438 20.1093 13.9636H20.1608V10.7345H12.4438C12.5451 12.8237 12.4436 33 12.4436 33Z" fill="#61D248"/>
</svg>
