<svg width="39" height="31" viewBox="0 0 39 31" fill="none" xmlns="http://www.w3.org/2000/svg">
<path d="M39 3.66971C37.5396 4.3025 35.9906 4.71786 34.4044 4.90198C36.0566 3.93345 37.3251 2.39973 37.9225 0.57233C36.3519 1.48392 34.6335 2.1262 32.8417 2.47141C31.3821 0.950506 29.3027 0 27.0013 0C22.5824 0 18.9997 3.50401 18.9997 7.82577C18.9997 8.43923 19.0705 9.03644 19.2069 9.60937C12.5571 9.28289 6.66138 6.16734 2.71492 1.43254C2.02632 2.58837 1.63175 3.93285 1.63175 5.36688C1.63175 8.08206 3.04444 10.4773 5.19127 11.8808C3.92064 11.8419 2.67797 11.5062 1.56701 10.9018C1.56655 10.9346 1.56655 10.9674 1.56655 11.0003C1.56655 14.7921 4.32458 17.9552 7.98479 18.6741C6.80655 18.9875 5.57065 19.0334 4.3715 18.8082C5.38962 21.9174 8.34463 24.1799 11.8458 24.2432C9.10741 26.3421 5.65729 27.5933 1.90871 27.5933C1.26278 27.5933 0.62598 27.5562 0 27.4839C3.54093 29.7044 7.74668 31 12.2652 31C26.9827 31 35.0305 19.0749 35.0305 8.73336C35.0305 8.39393 35.0229 8.05643 35.0074 7.72087C36.5738 6.61329 37.9258 5.24144 39 3.66971Z" fill="#61D248"/>
</svg>
