<svg width="77" height="77" viewBox="0 0 77 77" fill="none" xmlns="http://www.w3.org/2000/svg">
<circle cx="38.5" cy="38.5" r="38.5" fill="#61D248"/>
<path d="M63.205 40.4467C63.205 56.2722 54.3031 65.1741 38.4775 65.1741C22.6519 65.1741 13.75 56.2722 13.75 40.4467C13.75 24.6211 22.6519 15.7192 38.4775 15.7192" stroke="white" stroke-width="3" stroke-linecap="round" stroke-linejoin="round"/>
<path d="M34.5211 28C28.78 29.303 25.6192 33.6447 25.6192 40.4448C25.6192 48.6741 30.2482 53.3031 38.4775 53.3031C45.6115 53.3031 50.0397 49.8244 51.0922 43.5371" stroke="white" stroke-width="3" stroke-linecap="round" stroke-linejoin="round"/>
<path d="M38.4775 40.4448L47.0471 31.8752" stroke="white" stroke-width="3" stroke-linecap="round" stroke-linejoin="round"/>
<path d="M47.0436 31.8824L45.4205 26.6193C45.2021 25.911 45.3933 25.1399 45.9175 24.6157L54.8571 15.6758L56.8353 22.0904L63.2498 24.0686L54.3103 33.0085C53.7861 33.5327 53.015 33.7239 52.3066 33.5055L47.0436 31.8824Z" stroke="white" stroke-width="3" stroke-linecap="round" stroke-linejoin="round"/>
</svg>
