<svg width="75" height="75" viewBox="0 0 75 75" fill="none" xmlns="http://www.w3.org/2000/svg">
<circle cx="37.5" cy="37.5" r="37.5" fill="#61D248"/>
<path d="M34.5403 27.4453C27.8014 25.4506 21.5404 28.2778 16.3785 33.4539L27.4516 39.593" stroke="white" stroke-width="3" stroke-linecap="round" stroke-linejoin="round"/>
<path d="M49.4817 42.4283C51.4709 49.1856 48.6515 55.4638 43.4896 60.6399L37.3673 49.5364" stroke="white" stroke-width="3" stroke-linecap="round" stroke-linejoin="round"/>
<path d="M27.4521 39.5562L37.3912 49.5226C45.3424 44.7462 54.3813 40.1203 58.507 35.8329C67.4334 26.882 62.2576 14.6215 62.2576 14.6215C62.2576 14.6215 50.0306 9.43141 41.1042 18.3823C36.8286 22.5193 32.1778 31.6207 27.4521 39.5562Z" stroke="white" stroke-width="3" stroke-linecap="round" stroke-linejoin="round"/>
<path d="M49.5288 27.0494C50.2903 27.813 51.525 27.813 52.2865 27.0494C53.048 26.2858 53.048 25.0477 52.2865 24.2841C51.525 23.5205 50.2903 23.5205 49.5288 24.2841C48.7673 25.0477 48.7673 26.2858 49.5288 27.0494Z" stroke="white" stroke-width="3" stroke-linecap="round" stroke-linejoin="round"/>
<path d="M25.1731 58.6087C23.7623 59.9747 18.615 61.2294 16.2293 61.7522C15.6401 61.8814 15.127 61.369 15.2555 60.7795C15.7765 58.3887 17.0282 53.2234 18.391 51.808C18.8304 51.3352 19.3601 50.956 19.9488 50.693C20.5374 50.4301 21.1728 50.2886 21.8171 50.2772C22.4615 50.2658 23.1015 50.3847 23.699 50.6267C24.2965 50.8687 24.8393 51.2289 25.295 51.6858C25.7506 52.1428 26.1099 52.687 26.3512 53.2862C26.5925 53.8854 26.7111 54.5271 26.6997 55.1732C26.6883 55.8193 26.5473 56.4565 26.285 57.0467C26.0228 57.637 25.6446 58.1682 25.1731 58.6087Z" stroke="white" stroke-width="3" stroke-linecap="round" stroke-linejoin="round"/>
<path d="M37.3911 49.5219L27.4521 39.5555C28.5448 37.7206 29.6335 35.8233 30.7146 33.9395C31.5341 32.5114 32.3491 31.091 33.1581 29.7114L47.2041 43.796C45.8851 44.5732 44.528 45.3568 43.1614 46.146C41.2302 47.2611 39.28 48.3873 37.3911 49.5219Z" stroke="white" stroke-width="3"/>
</svg>
