<svg width="466" height="534" viewBox="0 0 466 534" fill="none" xmlns="http://www.w3.org/2000/svg">
<path d="M48.5464 346.668H438.032C436.679 295.166 414.552 248.622 379.864 214.758C345.176 180.894 297.921 159.709 246.313 158.919C193.581 158.146 144.843 178.75 108.932 212.727C73.0197 246.705 49.9395 294.038 48.5464 346.668Z" fill="#6374B9"/>
<path d="M48.5464 346.127H438.032C436.679 397.628 414.552 444.172 379.864 478.037C345.176 511.901 297.921 533.086 246.313 533.876C193.581 534.671 144.843 514.05 108.932 480.067C73.0197 446.084 49.9395 398.756 48.5464 346.127Z" fill="#001E50"/>
<path d="M49.0661 346.132C43.6496 343.537 39.3773 339.04 37.0636 333.498C34.827 328.275 34.6936 322.391 36.6913 317.073C38.4396 312.692 41.5629 308.996 45.5917 306.543C49.7937 303.958 54.681 302.709 59.6079 302.961C56.8003 296.479 55.5041 289.442 55.8176 282.385C56.1391 275.278 58.1809 268.454 62.3265 263.479C67.0898 257.844 73.5889 253.95 80.8042 252.407C84.4751 251.544 88.2553 251.239 92.0171 251.504C99.696 252.086 107.114 254.55 113.614 258.679C119.717 262.627 124.477 268.07 127.151 274.551C128.756 278.588 129.907 282.791 130.58 287.084C131.245 291.218 131.426 294.929 131.065 297.084C138.543 292.887 147.302 291.58 155.679 293.412C163.686 295.104 170.746 299.786 175.42 306.503C179.319 312.318 181.189 319.258 180.739 326.244C180.31 333.51 177.62 340.459 173.046 346.121H49.0661V346.132Z" fill="#001E50"/>
<path d="M167.417 158.834L187.473 158.659L207.525 158.484C213.656 157.437 219.192 154.181 223.086 149.33C226.974 144.538 228.961 138.483 228.67 132.319C228.343 125.833 225.529 121.151 221.152 118.038C216.775 114.924 210.824 113.373 204.231 113.159C208.097 114.056 212.141 113.813 215.872 112.459C219.401 111.186 222.428 108.814 224.508 105.691C226.723 102.232 227.633 98.0964 227.074 94.0269C226.685 90.5411 225.355 87.2267 223.227 84.4384C219.798 80.1743 214.846 77.7433 209.476 76.446C204.107 75.1488 198.331 74.9852 193.266 75.2559C193.159 75.2559 192.375 75.2898 191.619 75.3349C191.108 75.3185 190.597 75.395 190.113 75.5605H189.955C189.876 75.5605 189.797 75.5605 189.792 75.5605C189.786 75.5605 192.798 74.737 196.695 73.107C200.593 71.4769 205.365 68.9501 208.833 65.2105C211.102 62.7527 212.824 59.8424 213.887 56.6711C214.964 53.3433 215.201 49.7222 213.887 46.3606C213.011 44.2105 211.618 42.3099 209.832 40.8275C208.741 39.9045 207.549 39.1079 206.278 38.4529C199.346 34.7641 191.128 35.4353 184.518 37.1218C177.908 38.8083 172.893 41.5269 172.38 41.9104C173.846 31.4533 172.944 22.1129 170.344 14.9215C167.744 7.73015 163.451 2.68771 158.138 0.820769C155.781 0.0191642 153.266 -0.199525 150.806 0.183415C149.531 0.362914 148.282 0.698196 147.089 1.18175C141.9 3.35327 137.901 8.57619 135.701 15.7901C133.501 23.0041 133.112 32.2091 135.137 42.3504C130.245 41.0508 125.225 40.2942 120.168 40.0942C112.875 39.8855 104.775 41.1715 100.393 46.8626C99.9944 47.3731 99.6344 47.9122 99.3154 48.4757C98.9662 49.0888 98.6609 49.7259 98.4017 50.3822C97.8163 52.1288 97.4839 53.9503 97.4147 55.7912C97.3715 57.0948 97.4928 58.3985 97.7756 59.6718C98.6668 63.62 101.16 67.2523 104.866 70.2191C108.571 73.1859 113.49 75.5041 119.237 76.9255C114.161 76.4742 107.635 76.4009 101.701 77.8787C95.7677 79.3564 90.4207 82.3909 87.64 88.1158C86.112 91.2987 85.5793 94.8683 86.1115 98.3586C86.6379 101.868 88.1565 105.154 90.4884 107.829C92.9294 110.591 95.9258 112.807 99.2816 114.332C103.23 116.182 108.306 117.53 114.804 117.84L119.7 117.711L124.59 117.581C122.8 117.75 121.091 117.853 119.463 117.891C117.834 117.929 116.281 117.912 114.804 117.84L107.81 118.026L100.816 118.213C95.3583 118.359 90.1483 120.521 86.1905 124.282C82.2488 128.01 79.904 133.12 79.6477 138.54C79.507 141.477 79.9738 144.411 81.019 147.16C82.0642 149.908 83.6652 152.411 85.7219 154.512C87.7787 156.613 90.2468 158.268 92.9721 159.371C95.6974 160.475 98.6211 161.004 101.56 160.927L117.635 160.363L133.716 159.799L133.896 252.903L134.105 346.064H167.552C167.552 334.067 167.507 293.254 167.484 252.435C167.462 211.616 167.439 170.831 167.417 158.834Z" fill="#61D248"/>
<path d="M167.281 158.704H157.85H148.419L157.85 173.273L167.281 187.842V173.273V158.704Z" fill="#001E50"/>
<path d="M190.113 76.4121H181.354C181.129 76.4121 180.914 76.3229 180.755 76.1643C180.597 76.0056 180.507 75.7904 180.507 75.566C180.508 75.3418 180.597 75.127 180.756 74.9681C180.834 74.8893 180.927 74.8268 181.03 74.7842C181.132 74.7416 181.242 74.7198 181.354 74.72H190.113C190.339 74.7205 190.555 74.8096 190.716 74.9681C190.873 75.1276 190.96 75.3425 190.959 75.566C190.96 75.6768 190.939 75.7867 190.898 75.8893C190.856 75.992 190.794 76.0853 190.716 76.1639C190.555 76.3224 190.339 76.4115 190.113 76.4121Z" fill="#61D248"/>
<path d="M138.121 46.0789C138.015 46.0794 137.91 46.0603 137.811 46.0225C137.709 45.9793 137.615 45.9182 137.534 45.842L136.051 44.4094L134.568 42.9767C134.413 42.8281 134.321 42.6267 134.308 42.4127C134.305 42.3014 134.324 42.1905 134.365 42.0868C134.406 41.9831 134.467 41.8887 134.545 41.8092C134.704 41.6508 134.919 41.5618 135.143 41.5618C135.367 41.5618 135.582 41.6508 135.741 41.8092L137.224 43.2418L138.713 44.6745C138.866 44.8237 138.957 45.0252 138.967 45.2385C138.971 45.3499 138.952 45.461 138.911 45.5647C138.87 45.6685 138.809 45.7629 138.73 45.842C138.653 45.9286 138.556 45.9962 138.448 46.0394C138.342 46.0723 138.231 46.0857 138.121 46.0789Z" fill="#61D248"/>
<path d="M123.191 117.564L118.295 117.693L113.399 117.823C114.877 117.895 116.432 117.912 118.064 117.874C119.696 117.836 121.405 117.733 123.191 117.564Z" fill="#61D248"/>
<path d="M121.386 118.539H106.67C106.446 118.539 106.23 118.45 106.072 118.292C105.913 118.133 105.824 117.918 105.824 117.693C105.824 117.582 105.846 117.472 105.888 117.369C105.931 117.267 105.993 117.174 106.072 117.095C106.15 117.016 106.243 116.953 106.346 116.91C106.448 116.867 106.559 116.846 106.67 116.847H121.386C121.497 116.846 121.607 116.867 121.71 116.91C121.813 116.953 121.906 117.016 121.983 117.095C122.062 117.174 122.125 117.267 122.167 117.369C122.21 117.472 122.232 117.582 122.232 117.693C122.232 117.918 122.142 118.133 121.984 118.292C121.825 118.45 121.61 118.539 121.386 118.539Z" fill="#61D248"/>
<path d="M350.14 175.146L346.536 175.242L342.926 175.337C342.906 175.339 342.886 175.333 342.87 175.32C342.854 175.308 342.844 175.29 342.841 175.27C342.839 175.25 342.844 175.23 342.856 175.213C342.867 175.197 342.884 175.185 342.903 175.18C345.567 174.277 348.008 172.82 350.067 170.904C351.871 169.249 353.165 167.112 353.795 164.745C354.313 162.469 354.186 160.094 353.428 157.886C352.685 155.545 351.374 153.423 349.614 151.709C347.854 149.995 345.698 148.742 343.338 148.061C339.478 146.84 335.353 146.724 331.431 147.728C335.168 146.872 338.507 144.779 340.907 141.789C343.053 139.179 344.267 135.928 344.359 132.55C344.451 129.172 343.415 125.86 341.414 123.136C339.588 120.529 336.959 118.591 333.928 117.617C330.898 116.644 327.632 116.688 324.629 117.744C321.411 118.834 318.593 120.863 316.541 123.571C318.247 120.206 318.879 116.398 318.351 112.662C317.859 109.029 316.184 105.66 313.585 103.074C310.911 100.499 307.476 98.8574 303.793 98.3924C300.235 97.876 296.608 98.6245 293.545 100.507C289.896 102.848 287.465 106.943 286.726 111.602C285.97 116.688 287.18 121.872 290.11 126.098C290.136 126.128 290.151 126.167 290.151 126.208C290.151 126.248 290.136 126.287 290.11 126.318C290.079 126.344 290.039 126.359 289.997 126.359C289.956 126.359 289.916 126.344 289.884 126.318C288.358 125.2 286.625 124.396 284.785 123.952C282.945 123.509 281.036 123.435 279.168 123.734C277.447 123.971 275.795 124.562 274.313 125.468C272.832 126.375 271.554 127.578 270.561 129.002C268.581 132.003 268.181 135.917 269.263 139.555C269.834 141.486 270.806 143.274 272.115 144.803C273.424 146.332 275.041 147.567 276.861 148.428C272.224 147.464 267.393 148.381 263.431 150.977C259.81 153.368 257.323 156.967 256.804 160.774C256.353 164.091 257.368 167.622 259.517 170.622C261.78 173.827 265.047 176.185 268.801 177.323L265.095 177.419L261.39 177.52C256.487 177.653 251.838 179.727 248.463 183.285C245.088 186.844 243.264 191.597 243.391 196.5C243.458 198.928 244.002 201.32 244.993 203.538C245.984 205.756 247.403 207.757 249.167 209.427C250.932 211.097 253.008 212.403 255.278 213.27C257.547 214.137 259.965 214.549 262.394 214.481L277.622 214.075L292.851 213.675C293.235 232.919 293.618 256.541 293.979 280.23C294.34 303.92 294.746 327.524 295.107 346.786L309.18 347.012L323.247 347.243C322.801 327.795 322.35 303.953 321.905 280.123C321.459 256.293 321.008 232.434 320.556 213.003L335.785 212.597L351.014 212.191C355.918 212.061 360.569 209.988 363.944 206.429C367.319 202.87 369.143 198.115 369.012 193.212C368.882 188.308 366.809 183.657 363.25 180.282C359.691 176.906 354.936 175.083 350.033 175.213L350.14 175.146Z" fill="#61D248"/>
<path d="M283.217 149.178H276.821C276.634 149.178 276.455 149.104 276.323 148.971C276.19 148.839 276.116 148.66 276.116 148.473C276.116 148.38 276.134 148.289 276.17 148.203C276.206 148.118 276.259 148.041 276.325 147.977C276.389 147.91 276.466 147.857 276.552 147.821C276.637 147.785 276.729 147.767 276.821 147.768H283.217C283.31 147.768 283.401 147.787 283.486 147.823C283.572 147.858 283.649 147.911 283.714 147.977C283.78 148.041 283.833 148.118 283.869 148.203C283.904 148.289 283.923 148.38 283.922 148.473C283.923 148.566 283.904 148.659 283.868 148.745C283.833 148.831 283.78 148.909 283.714 148.975C283.581 149.104 283.403 149.177 283.217 149.178Z" fill="#2B3D0A"/>
<path d="M343.614 176.251H323.658C323.471 176.251 323.292 176.177 323.16 176.044C323.027 175.912 322.953 175.733 322.953 175.546C322.952 175.453 322.969 175.361 323.004 175.274C323.039 175.188 323.09 175.11 323.156 175.044C323.222 174.978 323.3 174.926 323.387 174.891C323.473 174.857 323.565 174.839 323.658 174.841H343.614C343.799 174.842 343.977 174.915 344.11 175.044C344.176 175.11 344.229 175.188 344.265 175.274C344.3 175.36 344.319 175.453 344.319 175.546C344.319 175.638 344.301 175.73 344.265 175.815C344.229 175.901 344.176 175.978 344.11 176.042C344.045 176.108 343.968 176.161 343.883 176.196C343.797 176.232 343.706 176.251 343.614 176.251Z" fill="#2B3D0A"/>
<path d="M412.882 178.879C412.736 180.916 412.352 186.511 412.386 193.544C412.42 200.578 412.871 209.066 414.383 216.878C414.76 218.824 415.172 220.95 415.77 223.325C416.445 226.006 417.283 228.643 418.28 231.221C419.109 233.382 419.701 234.656 420.389 236.106C421.078 237.556 421.862 239.197 423.074 242.085C424.287 244.973 425.229 247.545 425.99 249.829C426.752 252.113 427.321 254.065 427.733 255.576C428.447 258.217 428.973 260.905 429.307 263.619C429.656 266.355 429.871 269.215 429.972 272.368C430.195 278.836 429.986 285.312 429.346 291.753C428.726 298.279 427.756 305.036 426.599 312.572C425.911 317.084 425.11 322.087 424.197 327.603C423.283 333.119 422.251 339.121 421.094 345.545L417.096 345.596L413.102 345.646C414.512 339.329 416.171 331.461 417.795 322.583C419.419 313.705 421.01 303.823 422.307 293.462C422.906 289.049 423.283 284.608 423.435 280.157C423.581 274.852 423.212 269.547 422.335 264.313C421.743 260.839 420.959 257.59 420.243 254.973C419.526 252.356 418.878 250.387 418.551 249.457C417.409 246.066 416.092 242.737 414.602 239.485C413.441 236.929 412.527 235.209 412.183 234.527C410.406 231.047 408.635 225.66 407.377 216.946C406.119 208.232 405.375 196.173 405.685 179.348L409.306 179.111L412.882 178.879Z" fill="#F4ECE5"/>
<path d="M436.972 179.054L410.17 180.104L383.361 181.158C383.152 181.164 382.947 181.108 382.768 180.999C382.59 180.89 382.447 180.732 382.357 180.543C382.252 180.348 382.196 180.129 382.196 179.906C382.196 179.684 382.252 179.465 382.357 179.269L388.336 168.372L394.309 157.48C395.679 154.939 397.658 152.776 400.068 151.186C402.378 149.669 405.056 148.805 407.818 148.687C410.356 148.601 412.876 149.148 415.15 150.278C417.519 151.465 419.583 153.183 421.179 155.297L429.459 166.161L437.739 177.018C437.878 177.201 437.968 177.416 437.998 177.644C438.029 177.871 438 178.103 437.914 178.316C437.847 178.517 437.721 178.695 437.554 178.826C437.387 178.957 437.184 179.037 436.972 179.054Z" fill="#001E50"/>
<path d="M420.84 167.689C420.729 168.093 420.525 168.465 420.245 168.776C419.965 169.087 419.617 169.329 419.227 169.483C418.315 169.867 417.303 169.94 416.345 169.692C415.38 169.472 414.512 168.943 413.875 168.186C413.589 167.877 413.384 167.502 413.278 167.095C413.173 166.688 413.169 166.261 413.269 165.852C413.368 165.443 413.567 165.065 413.848 164.752C414.129 164.439 414.483 164.2 414.879 164.057C415.795 163.693 416.803 163.622 417.761 163.854C418.72 164.087 419.583 164.611 420.231 165.354C420.506 165.67 420.704 166.046 420.809 166.451C420.915 166.856 420.926 167.28 420.84 167.689Z" fill="#AD4D4D"/>
<path d="M425.488 173.104C425.421 173.355 425.297 173.588 425.126 173.783C424.955 173.979 424.741 174.133 424.501 174.232C423.941 174.455 423.325 174.498 422.739 174.356C422.153 174.213 421.625 173.892 421.23 173.437C421.064 173.243 420.944 173.013 420.88 172.766C420.815 172.519 420.808 172.26 420.857 172.01C420.928 171.764 421.054 171.537 421.225 171.347C421.396 171.156 421.607 171.007 421.844 170.91C422.405 170.687 423.021 170.644 423.607 170.787C424.193 170.929 424.72 171.25 425.116 171.705C425.277 171.896 425.395 172.121 425.459 172.363C425.523 172.605 425.533 172.858 425.488 173.104Z" fill="#AD4D4D"/>
<path d="M256.967 108.511C256.742 111.551 256.178 119.887 256.229 130.378C256.279 140.869 256.951 153.504 259.201 165.168C259.765 168.061 260.374 171.237 261.271 174.756C262.277 178.762 263.526 182.702 265.011 186.556C266.246 189.782 267.131 191.677 268.152 193.843C269.173 196.009 270.346 198.451 272.157 202.755C273.967 207.058 275.366 210.883 276.494 214.284C277.622 217.685 278.474 220.595 279.094 222.857C279.094 222.857 279.788 225.553 280.55 230.02C281.563 235.909 282.196 241.857 282.445 247.827C282.772 256.236 282.089 269.356 280.189 286.102C278.288 302.848 275.157 323.226 270.6 346.154H259.635C260.199 343.334 260.933 339.95 261.717 336.002C262.501 332.053 263.358 327.603 264.255 322.724C265.947 313.39 267.21 306.046 268.242 299.277C269.275 292.509 270.087 286.305 270.955 279.311C271.839 272.732 272.393 266.114 272.614 259.479C272.835 251.573 272.283 243.663 270.967 235.864C270.092 230.674 268.919 225.835 267.853 221.938C266.787 218.04 265.817 215.096 265.355 213.708C263.658 208.657 261.704 203.697 259.5 198.846C257.763 195.039 256.403 192.473 255.885 191.457C253.239 186.268 250.6 178.242 248.727 165.247C246.854 152.252 245.743 134.287 246.155 109.199L251.564 108.855L256.967 108.511Z" fill="#F4ECE5"/>
<path d="M292.851 108.743L252.884 110.311L212.939 111.896C212.627 111.901 212.321 111.817 212.056 111.653C211.791 111.489 211.579 111.252 211.444 110.971C211.287 110.678 211.205 110.352 211.205 110.02C211.205 109.688 211.287 109.362 211.444 109.07L220.35 92.8313L229.256 76.5929C231.302 72.8074 234.251 69.5855 237.841 67.213C241.286 64.9508 245.28 63.6644 249.398 63.4904C253.195 63.3533 256.966 64.1677 260.368 65.8594C263.902 67.6276 266.978 70.1916 269.353 73.3497L281.7 89.5317L294.052 105.691C294.258 105.965 294.391 106.287 294.437 106.627C294.484 106.966 294.443 107.312 294.317 107.632C294.213 107.942 294.017 108.215 293.755 108.413C293.494 108.611 293.179 108.726 292.851 108.743Z" fill="#001E50"/>
<path d="M268.823 91.8049C268.658 92.406 268.356 92.9605 267.94 93.4245C267.524 93.8885 267.005 94.2493 266.426 94.4784C265.06 95.0266 263.556 95.1348 262.126 94.788C260.695 94.4412 259.408 93.6567 258.445 92.5438C258.019 92.0834 257.714 91.5251 257.557 90.9184C257.4 90.3116 257.395 89.6754 257.543 89.0663C257.69 88.4572 257.987 87.8941 258.405 87.4272C258.823 86.9603 259.35 86.6041 259.939 86.3902C261.299 85.8179 262.81 85.7108 264.237 86.0856C265.679 86.4152 266.972 87.2076 267.92 88.3417C268.327 88.8106 268.62 89.3671 268.777 89.9677C268.933 90.5684 268.949 91.1971 268.823 91.8049Z" fill="#AD4D4D"/>
<path d="M275.75 99.8762C275.649 100.244 275.464 100.583 275.21 100.867C274.955 101.151 274.638 101.372 274.283 101.512C273.449 101.845 272.531 101.91 271.658 101.698C270.784 101.486 269.999 101.007 269.41 100.327C269.15 100.046 268.963 99.7046 268.867 99.3337C268.771 98.9627 268.768 98.5737 268.858 98.2013C268.949 97.8289 269.13 97.4847 269.385 97.1992C269.641 96.9138 269.964 96.696 270.324 96.5653C271.158 96.2312 272.076 96.1658 272.95 96.3781C273.823 96.5904 274.609 97.0699 275.197 97.7498C275.448 98.0369 275.629 98.3785 275.725 98.7476C275.821 99.1168 275.829 99.5032 275.75 99.8762Z" fill="#AD4D4D"/>
<path d="M243.307 346.132C238.297 343.731 234.346 339.572 232.207 334.445C230.137 329.616 230.014 324.174 231.862 319.256C233.475 315.201 236.363 311.782 240.092 309.515C243.981 307.122 248.504 305.966 253.064 306.198C250.467 300.205 249.269 293.699 249.562 287.174C249.861 280.603 251.745 274.291 255.574 269.689C259.98 264.476 265.991 260.874 272.664 259.446C276.061 258.654 279.557 258.373 283.037 258.611C290.136 259.152 296.994 261.432 303.004 265.25C308.57 268.758 312.941 273.871 315.542 279.915C317.029 283.648 318.092 287.535 318.712 291.505C319.332 295.324 319.496 298.759 319.158 300.75C326.076 296.876 334.175 295.672 341.922 297.366C348.823 298.737 354.986 302.579 359.256 308.171C363.526 313.762 365.609 320.72 365.115 327.739C364.716 334.46 362.228 340.889 357.997 346.126H243.307V346.132Z" fill="#001E50"/>
<path d="M226.176 256.614C224.855 262.059 224.297 267.66 224.518 273.259C224.725 278.879 225.899 284.422 227.987 289.644C229.4 293.109 231.264 296.373 233.531 299.351C235.793 302.334 238.475 304.973 241.495 307.185C244.69 309.548 248.413 311.097 252.342 311.697C256.064 312.261 259.95 312.092 264.186 311.59C266.978 311.186 269.818 311.263 272.585 311.816C275.351 312.407 277.84 313.906 279.658 316.074C281.437 318.266 282.691 320.836 283.324 323.587C283.976 326.332 284.309 329.142 284.316 331.963L284.469 339.059L284.621 346.154H298.203C298.203 346.154 298.321 343.898 298.344 340.722C298.393 337.088 298.241 333.454 297.887 329.837C297.57 326.787 297.004 323.769 296.195 320.812C295.124 316.96 293.504 313.282 291.384 309.892C290.018 307.691 288.36 305.686 286.454 303.931C284.556 302.168 282.362 300.754 279.973 299.751C277.242 298.717 274.337 298.217 271.417 298.279C268.49 298.279 265.529 298.544 262.646 298.657C259.703 298.785 256.758 298.425 253.932 297.591C251.097 296.763 248.473 295.333 246.239 293.4C239.267 287.309 237.575 278.628 238.139 269.621C238.703 260.613 241.631 251.261 243.813 243.771C244.885 240.094 246.069 236.072 247.429 231.752C248.788 227.431 250.249 222.806 251.885 217.91L245.477 215.598L239.064 213.285C237.406 217.918 235.791 222.703 234.219 227.64C232.647 232.577 231.143 237.666 229.707 242.908C229.064 245.232 228.447 247.537 227.857 249.823C227.267 252.109 226.706 254.373 226.176 256.614Z" fill="#61D248"/>
<path d="M239.538 259.982L240.39 256.485L241.247 252.982C241.298 252.768 241.343 252.599 241.382 252.452C241.422 252.306 241.456 252.17 241.484 252.046C241.563 251.741 241.664 251.335 241.822 250.754C241.98 250.173 242.189 249.429 242.477 248.442C243.605 244.494 244.394 242.13 245.037 240.134C245.68 238.137 246.165 236.507 246.78 234.014C247.147 232.463 247.265 231.758 247.406 230.906C247.547 230.054 247.717 229.028 248.19 226.811C248.709 224.369 249.239 222.158 249.73 220.24C250.221 218.323 250.689 216.687 251.067 215.39L243.295 214.115L235.522 212.857C234.992 215.113 234.304 218.018 233.576 221.109C232.849 224.2 232.087 227.449 231.41 230.336C229.803 237.178 228.59 242.356 227.631 246.97C226.673 251.584 225.939 255.639 225.347 260.23C225.189 261.437 225.054 262.537 224.941 263.496C224.828 264.455 224.738 265.284 224.67 265.938L235.742 261.516L239.538 259.999V259.982Z" fill="#001E50"/>
<path d="M239.206 289.768C237.323 286.018 234.206 283.03 230.379 281.308C227.632 280.005 224.612 279.384 221.574 279.497C221.574 279.051 221.614 278.612 221.603 278.172C221.584 276.129 221.144 274.112 220.311 272.248C219.478 270.383 218.268 268.71 216.759 267.334C215.25 265.957 213.473 264.907 211.54 264.249C209.606 263.59 207.558 263.338 205.522 263.507C204.443 263.586 203.375 263.775 202.335 264.071C202.11 260.879 200.785 257.864 198.586 255.54C196.387 253.216 193.451 251.726 190.276 251.324C188.718 251.122 187.135 251.257 185.633 251.719C184.131 252.18 182.746 252.959 181.57 254.001C180.395 255.043 179.456 256.325 178.817 257.76C178.178 259.196 177.855 260.751 177.868 262.322C177.881 265.678 179.116 268.914 181.341 271.426C183.567 273.938 186.631 275.554 189.96 275.972C190.18 275.972 190.406 276 190.632 276.011C190.252 277.452 190.073 278.938 190.101 280.428C190.12 282.47 190.56 284.487 191.393 286.352C192.226 288.217 193.435 289.889 194.945 291.266C196.454 292.642 198.231 293.692 200.164 294.351C202.098 295.009 204.146 295.262 206.182 295.093C207.236 295.008 208.279 294.819 209.295 294.528C209.532 295.42 209.853 296.287 210.254 297.117C212.186 300.826 215.288 303.794 219.079 305.56C222.869 307.327 227.137 307.793 231.219 306.886C234.931 305.939 237.988 303.683 239.561 300.327C241.135 296.971 240.87 293.214 239.206 289.768Z" fill="#61D248"/>
<path d="M231.371 296.334C231.317 296.34 231.262 296.34 231.208 296.334C231.15 296.322 231.095 296.301 231.044 296.272C228.224 294.777 225.46 293.198 222.725 291.551C219.989 289.904 217.304 288.167 214.676 286.418C208.366 282.152 202.327 277.499 196.593 272.486C190.816 267.445 185.354 262.054 180.236 256.344C180.173 256.276 180.125 256.195 180.094 256.108C180.063 256.021 180.049 255.928 180.055 255.836C180.06 255.743 180.084 255.653 180.125 255.569C180.165 255.486 180.223 255.412 180.292 255.351C180.361 255.289 180.441 255.24 180.528 255.209C180.615 255.178 180.708 255.165 180.8 255.171C180.986 255.182 181.16 255.265 181.285 255.402C186.368 261.068 191.793 266.417 197.529 271.42C203.219 276.394 209.214 281.009 215.477 285.239C218.083 286.999 220.745 288.691 223.463 290.315C226.176 291.951 228.934 293.514 231.715 294.997C231.797 295.04 231.87 295.099 231.929 295.171C231.988 295.242 232.032 295.324 232.059 295.413C232.087 295.501 232.096 295.594 232.087 295.687C232.079 295.779 232.052 295.868 232.008 295.95C231.946 296.064 231.855 296.159 231.743 296.227C231.633 296.298 231.503 296.335 231.371 296.334Z" fill="#61D248"/>
<path d="M272.665 172.128C286.885 157.649 289.93 146.645 286.287 143.092C282.643 139.538 272.31 143.436 259.777 158.744C265.181 139.003 261.983 128.241 256.653 128.004C251.323 127.767 243.849 138.027 240.713 160.306C235.18 138.224 226.539 128.839 221.277 129.894C216.014 130.948 214.136 142.443 222.134 162.128C207.65 147.909 196.651 144.863 193.098 148.507C189.544 152.15 193.436 162.483 208.75 175.016C189.008 169.613 178.247 172.811 178.004 178.146C177.762 183.482 188.033 190.944 210.312 194.086C188.224 199.613 178.839 208.26 179.894 213.517C180.948 218.774 192.443 220.657 212.134 212.665C197.909 227.144 194.863 238.142 198.507 241.696C202.15 245.249 212.489 241.357 225.016 226.05C219.618 245.791 222.811 256.552 228.147 256.789C233.482 257.026 240.944 246.761 244.086 224.482C249.614 246.569 258.26 255.954 263.523 254.9C268.785 253.845 270.663 242.35 262.665 222.66C277.144 236.885 288.148 239.93 291.702 236.287C295.255 232.643 291.363 222.304 276.05 209.777C295.791 215.181 306.552 211.983 306.795 206.647C307.038 201.311 296.767 193.849 274.487 190.707C296.569 185.18 305.96 176.533 304.905 171.276C303.851 166.02 292.339 164.13 272.665 172.128Z" fill="#F4ECE5"/>
<path d="M254.271 192.411C254.349 195.529 253.344 198.578 251.427 201.038C249.51 203.499 246.799 205.218 243.756 205.905C240.713 206.591 237.526 206.201 234.739 204.801C231.951 203.402 229.735 201.08 228.467 198.23C227.2 195.38 226.959 192.178 227.787 189.171C228.614 186.163 230.459 183.536 233.006 181.736C235.553 179.935 238.646 179.074 241.757 179.298C244.868 179.522 247.806 180.817 250.069 182.963C251.359 184.182 252.394 185.645 253.115 187.267C253.836 188.888 254.229 190.637 254.271 192.411Z" fill="#001E50"/>
<path d="M377.151 147.565C377.23 152.043 377.061 156.076 376.79 159.59C376.519 163.104 376.135 166.093 375.786 168.496C374.462 177.323 372.57 186.055 370.123 194.639C367.731 203.319 364.917 212.411 361.882 223.286C359.198 232.914 357.054 240.607 355.266 247.968C353.478 255.329 352.057 262.373 350.811 270.704C350.218 274.652 349.508 279.836 348.876 286.029C348.244 292.222 347.703 299.43 347.443 307.411C347.206 314.665 347.235 321.54 347.443 327.993C347.652 334.445 348.064 340.469 348.571 346.042C346.439 345.991 344.262 345.968 342.029 345.98C339.795 345.991 337.516 346.025 335.17 346.104C333.113 346.171 331.096 346.262 329.118 346.374C327.14 346.487 325.207 346.624 323.32 346.786C322.192 346.876 322.237 337.666 322.626 328.089C323.015 318.511 323.72 308.573 323.822 307.219C324.549 297.428 325.514 287.901 326.856 278.454C328.198 269.006 329.913 259.547 332.135 249.948C333.478 244.161 334.882 238.381 336.349 232.609C337.815 226.837 339.391 221.103 341.075 215.406C345.757 199.535 349.226 189.918 351.645 181.83C354.144 173.925 355.585 165.724 355.932 157.441C356.231 151.547 356.163 145.382 355.971 139.9C355.78 134.417 355.452 129.617 355.238 126.436C354.674 118.472 353.952 111.179 353.123 104.693C352.294 98.2064 351.386 92.521 350.545 87.7718L360.207 86.1644L369.869 84.5625C370.948 94.2149 371.965 102.743 372.921 110.147C373.862 117.541 374.72 123.796 375.436 128.884C375.696 130.723 376.09 133.238 376.44 136.374C376.79 139.51 377.072 143.222 377.151 147.565Z" fill="#61D248"/>
<path d="M354.967 167.3C355.097 166.088 355.204 164.982 355.3 164.012C355.396 163.042 355.481 162.201 355.543 161.519C355.543 161.519 355.887 157.841 356.18 153.324C356.473 148.806 356.71 143.442 356.49 140.074C356.49 139.753 356.445 139.403 356.428 139.138C356.411 138.873 356.394 138.687 356.394 138.687C356.394 138.241 356.321 137.638 356.253 136.78C356.186 135.923 356.079 134.806 355.932 133.34C355.323 127.169 354.736 121.789 354.308 117.953C353.879 114.118 353.597 111.816 353.597 111.816C353.196 108.545 352.745 104.873 352.238 100.846C351.73 96.8189 351.155 92.4251 350.545 87.7154L360.207 86.1079L369.869 84.5061C370.772 89.6219 371.561 94.3597 372.21 98.652C372.858 102.944 373.423 106.78 373.902 110.102C375.837 124.203 376.722 134.09 377.055 141.056C377.32 145.507 377.347 149.969 377.134 154.423C376.953 157.932 376.683 161.09 376.412 163.662C376.141 166.234 375.848 168.236 375.696 169.427C375.064 173.888 374.291 177.989 373.473 181.689C372.655 185.389 371.781 188.683 370.986 191.525C368.324 187.487 365.66 183.448 362.994 179.41L354.967 167.3Z" fill="#61D248"/>
<path d="M456.984 206.252C456.145 204.007 454.845 201.964 453.166 200.255C451.486 198.545 449.466 197.209 447.237 196.331C442.687 194.564 437.666 194.427 433.026 195.943C428.387 197.46 424.415 200.537 421.788 204.65C420.606 203.502 419.312 202.476 417.924 201.588C415.317 199.882 412.386 198.732 409.314 198.21C406.242 197.689 403.095 197.806 400.071 198.555C397.046 199.304 394.209 200.668 391.735 202.563C389.262 204.458 387.206 206.843 385.696 209.569C385.363 210.133 385.058 210.753 384.776 211.368C380.78 209.007 376.275 207.643 371.64 207.391C364.764 206.968 358.397 208.875 353.664 212.287C348.932 215.7 345.836 220.635 345.492 226.264C345.147 231.893 347.629 237.167 351.91 241.132C356.191 245.097 362.283 247.753 369.164 248.171C376.045 248.588 382.407 246.687 387.14 243.269C388.28 242.449 389.34 241.522 390.304 240.5C391.466 241.613 392.733 242.61 394.088 243.478C396.696 245.184 399.627 246.334 402.698 246.856C405.77 247.378 408.916 247.262 411.941 246.513C414.965 245.765 417.803 244.401 420.276 242.506C422.75 240.612 424.806 238.228 426.317 235.503C427.424 233.53 428.254 231.413 428.782 229.214C429.092 229.36 429.402 229.496 429.718 229.625C434.487 231.486 439.77 231.546 444.58 229.795C449.391 228.044 453.399 224.601 455.855 220.11C457.005 218.009 457.7 215.689 457.894 213.301C458.088 210.914 457.778 208.512 456.984 206.252Z" fill="#61D248"/>
<path d="M361.72 226.579H359.887C359.709 226.58 359.537 226.514 359.407 226.393C359.277 226.259 359.204 226.079 359.204 225.891C359.204 225.8 359.222 225.709 359.258 225.624C359.294 225.54 359.347 225.464 359.413 225.4C359.478 225.335 359.555 225.282 359.64 225.246C359.725 225.211 359.817 225.192 359.909 225.192C364.726 225.226 369.565 225.13 374.399 224.91C379.233 224.69 384.055 224.346 388.838 223.883C400.33 222.76 411.742 220.925 423.007 218.39C434.333 215.826 445.491 212.573 456.42 208.649C456.509 208.609 456.605 208.589 456.702 208.589C456.8 208.589 456.896 208.609 456.984 208.649C457.069 208.687 457.145 208.742 457.207 208.811C457.269 208.88 457.316 208.961 457.345 209.049C457.378 209.136 457.392 209.228 457.388 209.32C457.384 209.412 457.362 209.503 457.322 209.587C457.283 209.67 457.227 209.745 457.159 209.807C457.09 209.868 457.01 209.916 456.922 209.946C445.929 213.884 434.705 217.142 423.312 219.704C411.991 222.255 400.523 224.101 388.974 225.231C384.461 225.671 379.928 226 375.375 226.218C370.821 226.436 366.269 226.557 361.72 226.579Z" fill="#61D248"/>
<path d="M313.117 115.488C310.587 119.175 309.235 123.543 309.24 128.014C309.245 132.485 310.606 136.85 313.145 140.531C315.683 144.212 319.278 147.036 323.456 148.63C327.633 150.225 332.196 150.514 336.541 149.46H336.569C337.379 153.865 339.509 157.919 342.677 161.085C345.844 164.252 349.899 166.38 354.304 167.189C358.709 167.998 363.255 167.449 367.341 165.614C371.426 163.779 374.858 160.746 377.18 156.916C380.865 159.449 385.233 160.803 389.705 160.8C394.177 160.796 398.542 159.435 402.224 156.897C405.906 154.359 408.731 150.763 410.325 146.585C411.919 142.407 412.207 137.843 411.151 133.498V133.47V133.441C415.556 132.631 419.61 130.502 422.777 127.334C425.943 124.167 428.072 120.112 428.881 115.707C429.689 111.302 429.14 106.755 427.305 102.67C425.471 98.5844 422.437 95.1531 418.608 92.8312V92.803C421.12 89.1195 422.458 84.762 422.447 80.3035C422.436 75.845 421.076 71.4942 418.546 67.8233C416.015 64.1523 412.433 61.333 408.271 59.7362C404.108 58.1393 399.559 57.8396 395.223 58.8765H395.167C394.354 54.4738 392.223 50.4218 389.055 47.2575C385.888 44.0931 381.834 41.9658 377.43 41.1572C373.027 40.3487 368.481 40.8971 364.397 42.7298C360.312 44.5626 356.88 47.5932 354.556 51.4201C350.87 48.8888 346.503 47.5359 342.031 47.5404C337.559 47.5448 333.195 48.9064 329.513 51.445C325.832 53.9836 323.008 57.5797 321.415 61.7578C319.822 65.9359 319.534 70.4992 320.59 74.8443V74.9007C316.188 75.7134 312.136 77.8446 308.971 81.012C305.807 84.1793 303.68 88.2333 302.871 92.6369C302.063 97.0404 302.611 101.586 304.444 105.671C306.276 109.755 309.307 113.187 313.134 115.511L313.117 115.488Z" fill="#001E50"/>
<path d="M341.51 104.743C341.38 110.33 343.191 115.789 346.635 120.191C350.078 124.592 354.941 127.663 360.395 128.881C365.85 130.099 371.557 129.389 376.546 126.871C381.535 124.352 385.497 120.182 387.756 115.071C390.015 109.959 390.432 104.223 388.936 98.8383C387.441 93.4538 384.124 88.7544 379.552 85.5409C374.98 82.3273 369.435 80.7983 363.862 81.2143C358.289 81.6303 353.033 83.9656 348.989 87.8224C346.689 90.0108 344.844 92.6324 343.56 95.5363C342.277 98.4402 341.58 101.569 341.51 104.743Z" fill="#F4ECE5"/>
<path d="M448.733 306.322C451.266 306.066 453.72 305.3 455.95 304.071C458.179 302.842 460.137 301.175 461.706 299.17C463.169 297.395 464.258 295.343 464.908 293.136C465.559 290.93 465.757 288.615 465.491 286.33C465.225 284.045 464.5 281.838 463.36 279.84C462.221 277.842 460.689 276.094 458.857 274.703C455.265 271.875 450.773 270.438 446.206 270.659C448.988 269.709 451.542 268.192 453.706 266.204C455.87 264.215 457.597 261.799 458.778 259.107C459.931 256.691 460.562 254.059 460.63 251.383C460.699 248.707 460.203 246.046 459.175 243.574C458.147 241.102 456.61 238.875 454.664 237.036C452.719 235.197 450.407 233.789 447.881 232.902C442.81 230.989 437.201 231.082 432.196 233.162C433.452 231.526 434.487 229.732 435.275 227.826C436.911 224 437.424 219.788 436.755 215.681C436.085 211.574 434.262 207.742 431.496 204.633C429.909 202.767 428.056 201.144 425.997 199.816C421.823 197.899 417.161 197.308 412.641 198.124C407.886 198.933 403.585 201.434 400.53 205.166C397.475 208.898 395.873 213.609 396.019 218.429C396.084 223.873 398.122 229.107 401.755 233.162C399.024 232.209 396.126 231.829 393.241 232.043C390.357 232.258 387.547 233.063 384.986 234.408C380.147 236.941 376.481 241.256 375.245 246.326C374.084 251.121 375.167 256.293 377.925 260.608C380.836 265.171 385.389 268.442 390.644 269.745C385.912 269.238 381.14 270.203 376.977 272.509C373.164 274.582 370.213 277.945 368.652 281.996C367.665 284.727 367.334 287.652 367.687 290.535C368.061 293.783 369.374 296.851 371.466 299.362C373.642 301.93 376.529 303.796 379.763 304.726C381.488 305.25 383.279 305.526 385.082 305.544C380.565 306.596 376.537 309.146 373.653 312.778C370.769 316.41 369.199 320.912 369.199 325.55C369.199 330.999 371.363 336.224 375.215 340.077C379.068 343.931 384.292 346.096 389.741 346.098H441.519C446.966 346.096 452.189 343.932 456.041 340.081C459.893 336.231 462.058 331.008 462.061 325.561C462.071 321.32 460.762 317.181 458.316 313.717C455.931 310.351 452.593 307.776 448.733 306.322Z" fill="#61D248"/>
<path d="M395.267 306.261H385.081C384.894 306.261 384.715 306.186 384.582 306.054C384.45 305.922 384.376 305.743 384.376 305.556C384.376 305.463 384.394 305.371 384.43 305.286C384.466 305.201 384.518 305.124 384.585 305.059C384.649 304.993 384.726 304.94 384.811 304.904C384.897 304.868 384.988 304.85 385.081 304.85H395.267C395.454 304.852 395.632 304.927 395.764 305.059C395.896 305.191 395.971 305.369 395.972 305.556C395.972 305.743 395.898 305.922 395.766 306.054C395.634 306.186 395.454 306.261 395.267 306.261Z" fill="#2B3D0A"/>
<path d="M423.954 238.385C423.829 238.384 423.707 238.351 423.599 238.289C423.488 238.225 423.398 238.131 423.339 238.018C423.294 237.938 423.264 237.849 423.254 237.757C423.243 237.664 423.251 237.571 423.277 237.482C423.331 237.302 423.452 237.151 423.616 237.059L427.739 234.803L431.856 232.547C431.937 232.501 432.026 232.472 432.118 232.462C432.21 232.451 432.303 232.459 432.392 232.485C432.572 232.538 432.724 232.66 432.815 232.823C432.904 232.988 432.924 233.181 432.871 233.361C432.818 233.54 432.697 233.692 432.533 233.782L428.416 236.038L424.293 238.294C424.242 238.324 424.187 238.344 424.129 238.357C424.072 238.374 424.014 238.384 423.954 238.385Z" fill="#2B3D0A"/>
<path d="M397.467 270.461H389.673C389.486 270.461 389.306 270.387 389.174 270.255C389.042 270.123 388.968 269.943 388.968 269.756C388.968 269.569 389.042 269.39 389.174 269.258C389.306 269.126 389.486 269.051 389.673 269.051H397.467C397.654 269.051 397.834 269.126 397.966 269.258C398.098 269.39 398.173 269.569 398.173 269.756C398.173 269.943 398.098 270.123 397.966 270.255C397.834 270.387 397.654 270.461 397.467 270.461Z" fill="#2B3D0A"/>
<path d="M115.937 127.565C115.941 131.448 114.599 135.212 112.138 138.216C109.678 141.22 106.252 143.278 102.444 144.038C98.636 144.799 94.6823 144.215 91.2566 142.387C87.8309 140.558 85.1453 137.599 83.6577 134.012C82.17 130.425 81.9724 126.433 83.0984 122.717C84.2244 119.001 86.6045 115.79 89.8328 113.633C93.0611 111.475 96.9378 110.503 100.802 110.884C104.667 111.265 108.279 112.974 111.024 115.72C112.582 117.274 113.818 119.12 114.661 121.153C115.504 123.185 115.938 125.364 115.937 127.565Z" fill="#001E50"/>
<path d="M101.509 142.658C101.512 146.539 100.17 150.302 97.71 153.304C95.2501 156.307 91.825 158.363 88.0186 159.123C84.2122 159.883 80.2601 159.3 76.8358 157.472C73.4115 155.644 70.727 152.686 69.2399 149.1C67.7528 145.515 67.5552 141.525 68.6807 137.81C69.8062 134.095 72.1851 130.886 75.412 128.728C78.6389 126.571 82.514 125.6 86.3769 125.98C90.2398 126.36 93.8513 128.068 96.5959 130.813C98.1535 132.367 99.3892 134.213 100.232 136.246C101.075 138.278 101.509 140.457 101.509 142.658Z" fill="#001E50"/>
<path d="M88.7281 134.863C87.7783 134.838 86.8529 134.557 86.0489 134.051C85.2274 133.556 84.5045 132.914 83.9169 132.156C83.3358 131.393 82.8701 130.549 82.535 129.651C82.2016 128.744 81.9966 127.795 81.9259 126.831H81.8469H81.7623C81.6714 126.848 81.578 126.846 81.4879 126.826C81.3977 126.805 81.3126 126.767 81.2378 126.713C81.122 126.634 81.0323 126.523 80.9804 126.393C80.9284 126.264 80.9165 126.121 80.9463 125.985C80.976 125.848 81.046 125.723 81.1472 125.627C81.2485 125.531 81.3763 125.467 81.5141 125.444L81.7285 125.404L81.9484 125.37C81.9484 125.229 81.9484 125.094 81.9936 124.953C82.0387 124.812 82.0387 124.682 82.0669 124.547C82.1048 124.364 82.2119 124.202 82.3658 124.096C82.4429 124.044 82.5296 124.009 82.6206 123.991C82.7117 123.974 82.8053 123.975 82.896 123.994C82.9876 124.01 83.0749 124.045 83.1525 124.097C83.2301 124.148 83.2964 124.215 83.3472 124.293C83.4495 124.449 83.486 124.64 83.4488 124.823L83.4149 125.004C83.4149 125.066 83.4149 125.128 83.3867 125.19C84.8248 125.045 86.2769 125.139 87.6846 125.466C89.1235 125.8 90.4251 126.568 91.4129 127.666C91.9256 128.252 92.2997 128.946 92.5071 129.696C92.7088 130.403 92.7224 131.149 92.5466 131.862C92.3893 132.453 92.0999 133.001 91.7003 133.464C91.3008 133.927 90.8014 134.294 90.2397 134.536C89.9982 134.638 89.7469 134.716 89.4895 134.767C89.239 134.821 88.9842 134.853 88.7281 134.863ZM83.3303 126.634C83.3772 127.478 83.5483 128.31 83.8379 129.104C84.1232 129.89 84.5264 130.628 85.0337 131.293C85.6022 132.037 86.3309 132.644 87.1657 133.069C87.5485 133.281 87.9722 133.407 88.4083 133.44C88.8443 133.474 89.2823 133.412 89.6926 133.261C90.0544 133.104 90.3762 132.867 90.6339 132.568C90.8917 132.269 91.0789 131.916 91.1816 131.535C91.2989 131.044 91.2834 130.53 91.1365 130.046C90.9861 129.517 90.7181 129.03 90.3525 128.619C89.501 127.688 88.3749 127.051 87.1375 126.803C85.8852 126.547 84.6004 126.49 83.3303 126.634Z" fill="#61D248"/>
<path d="M145.639 236.434L145.769 245.887L145.893 255.345C145.917 257.126 145.847 258.908 145.684 260.681C145.517 262.453 145.248 264.214 144.878 265.955C144.557 267.621 144.058 269.247 143.389 270.806C142.768 272.12 142.018 272.988 141.133 272.971C140.804 273.96 140.243 274.856 139.497 275.583C138.857 276.219 138.019 276.617 137.122 276.711C136.884 276.738 136.644 276.738 136.406 276.711C136.076 276.662 135.754 276.571 135.447 276.44C135.196 276.829 134.903 277.188 134.573 277.512C134.151 277.931 133.656 278.269 133.112 278.51C132.844 278.637 132.559 278.725 132.266 278.77C132.113 278.79 131.957 278.79 131.804 278.77C131.471 278.72 131.155 278.591 130.884 278.392C130.707 278.267 130.546 278.122 130.405 277.957C129.931 277.444 129.745 276.705 129.79 275.34C129.835 273.975 130.1 271.956 130.54 268.933C130.58 268.679 130.642 268.239 130.732 267.658C130.822 267.077 130.941 266.35 131.082 265.515C131.127 265.244 131.161 265.052 131.189 264.906C131.217 264.759 131.234 264.663 131.245 264.567C131.391 263.604 131.473 262.631 131.493 261.657C131.514 260.878 131.495 260.099 131.437 259.322C131.375 258.459 131.302 257.596 131.183 256.739C131.069 255.881 130.892 255.032 130.653 254.201C130.519 253.703 130.33 253.223 130.089 252.768C129.855 252.302 129.451 251.945 128.961 251.77C128.715 251.699 128.458 251.681 128.205 251.717C127.953 251.753 127.71 251.842 127.494 251.978C127.051 252.237 126.692 252.619 126.462 253.078C126.228 253.577 126.076 254.11 126.011 254.657C125.932 255.221 125.898 255.785 125.847 256.304C125.768 257.094 125.678 257.884 125.543 258.662C125.403 259.446 125.215 260.22 124.979 260.98C124.693 262.119 124.162 263.182 123.422 264.094C123.165 264.417 122.804 264.642 122.401 264.731C122.281 264.741 122.16 264.741 122.04 264.731C121.847 264.727 121.656 264.689 121.476 264.618C121.165 264.463 120.89 264.244 120.67 263.974C120.451 263.705 120.291 263.392 120.201 263.056C119.889 262.107 119.745 261.11 119.778 260.112C119.778 259.638 119.778 259.164 119.778 258.696C119.778 258.228 119.778 257.748 119.778 257.274L119.609 246.823L119.446 236.366L132.531 236.394L145.639 236.434Z" fill="#FFAA9F"/>
<path d="M135.448 277.111C135.401 277.117 135.354 277.117 135.307 277.111C135.256 277.104 135.206 277.089 135.16 277.066C135.076 277.028 135 276.973 134.937 276.905C134.874 276.838 134.825 276.758 134.793 276.671C134.757 276.587 134.739 276.495 134.739 276.403C134.739 276.311 134.757 276.22 134.793 276.135C135.775 273.953 136.565 270.253 137.117 267.083C137.67 263.913 137.98 261.268 137.986 261.217C138.007 261.033 138.1 260.864 138.245 260.749C138.393 260.634 138.578 260.58 138.764 260.596C138.857 260.607 138.946 260.636 139.028 260.682C139.109 260.727 139.18 260.788 139.238 260.862C139.296 260.934 139.339 261.017 139.364 261.106C139.389 261.195 139.396 261.289 139.385 261.38C139.385 261.6 139.046 264.291 138.482 267.5C137.918 270.71 137.106 274.432 136.079 276.711C136.025 276.837 135.932 276.944 135.814 277.015C135.704 277.081 135.576 277.114 135.448 277.111Z" fill="#AD4D4D"/>
<path d="M141.127 273.676H141.036H140.946C140.766 273.629 140.611 273.511 140.517 273.349C140.423 273.188 140.395 272.996 140.439 272.813C140.664 271.951 140.873 271.076 141.065 270.196C141.256 269.316 141.437 268.442 141.595 267.568C141.798 266.478 141.975 265.38 142.125 264.274C142.277 263.146 142.401 262.063 142.509 260.958C142.516 260.866 142.541 260.777 142.584 260.695C142.626 260.614 142.685 260.542 142.757 260.484C142.902 260.364 143.088 260.306 143.276 260.32C143.461 260.34 143.631 260.431 143.75 260.575C143.869 260.718 143.927 260.902 143.913 261.087C143.804 262.215 143.674 263.343 143.524 264.471C143.366 265.6 143.185 266.728 142.96 267.856C142.796 268.747 142.616 269.644 142.396 270.535C142.176 271.426 141.99 272.317 141.758 273.203C141.72 273.356 141.63 273.491 141.505 273.586C141.389 273.651 141.259 273.682 141.127 273.676Z" fill="#AD4D4D"/>
<path d="M82.3831 200.493L67.8763 254.849L53.3694 309.205H116.8C119.643 291.088 122.488 272.97 125.334 254.849C128.181 236.729 131.027 218.61 133.874 200.493H82.3831Z" fill="#61D248"/>
<path d="M113.924 133.656C112.085 133.295 110.219 133.095 108.345 133.058C105.949 133.012 103.555 133.252 101.216 133.774C95.6042 135.083 90.4606 137.911 86.3482 141.947C83.9282 144.268 81.8301 146.903 80.11 149.782L73.5559 160.718L66.9963 171.683C65.427 174.294 64.1196 177.055 63.0932 179.923C62.07 182.789 61.3553 185.756 60.9611 188.773C60.4817 192.479 60.4535 196.534 61.4913 200.262C62.4967 204.205 64.9729 207.614 68.412 209.789C69.928 210.743 71.5863 211.449 73.3247 211.881C75.0692 212.309 76.8664 212.482 78.6604 212.395L102.412 211.221L126.163 210.037L125.599 193.985L125.035 177.927L136.011 177.137L139.768 176.866C139.768 176.866 139.012 180.386 137.923 185.592C136.835 190.798 135.419 197.696 134.093 204.459C132.503 212.564 131.019 220.573 129.942 226.557C128.865 232.542 128.177 236.496 128.177 236.501L136.891 236.665L145.611 236.834C148.566 215.141 150.648 196.342 151.922 182.569C153.197 168.795 153.671 160.047 153.4 158.445C153.058 156.468 152.601 154.513 152.03 152.59C151.578 151.051 151.223 150.064 151.223 150.064C150.436 148.446 149.515 146.897 148.471 145.433C147.025 143.445 145.253 141.715 143.231 140.317C141.584 139.185 139.791 138.282 137.901 137.632C136.422 137.127 134.897 136.768 133.349 136.561L123.642 135.105L113.924 133.656Z" fill="#F4ECE5"/>
<path d="M223.475 56.7556C210.351 53.516 196.523 54.7073 184.146 60.1441C171.769 65.5809 161.538 74.958 155.045 86.8149C148.552 98.6719 146.162 112.343 148.248 125.7C150.333 139.056 156.777 151.348 166.576 160.661L122.434 223.72L78.2878 286.779L82.8 289.949L87.3123 293.124L131.312 230.342L175.267 167.554C182.732 172.431 191.171 175.62 199.995 176.899C208.82 178.178 217.817 177.516 226.359 174.959C234.901 172.402 242.782 168.012 249.453 162.095C256.123 156.178 261.422 148.877 264.979 140.701C268.537 132.524 270.267 123.67 270.05 114.756C269.832 105.842 267.672 97.0832 263.72 89.0902C259.768 81.0972 254.12 74.0629 247.169 68.4782C240.218 62.8934 232.132 58.8928 223.475 56.7556ZM196.543 165.817C185.071 162.983 174.938 156.259 167.868 146.791C160.799 137.323 157.231 125.697 157.773 113.893C158.315 102.089 162.932 90.8388 170.839 82.0581C178.746 73.2775 189.453 67.5101 201.135 65.7386C212.818 63.9671 224.753 66.3012 234.908 72.3431C245.062 78.3851 252.807 87.761 256.824 98.8734C260.84 109.986 260.88 122.147 256.935 133.285C252.99 144.423 245.305 153.849 235.19 159.956C229.451 163.43 223.083 165.736 216.451 166.742C209.819 167.747 203.053 167.433 196.543 165.817Z" fill="#001E50"/>
<path d="M140.033 177.543H139.926C139.834 177.529 139.746 177.497 139.666 177.449C139.587 177.4 139.518 177.336 139.463 177.261C139.408 177.187 139.369 177.102 139.347 177.011C139.326 176.921 139.323 176.828 139.339 176.736L140.027 172.32L140.715 167.898C140.73 167.807 140.762 167.72 140.811 167.641C140.859 167.563 140.923 167.495 140.997 167.441C141.148 167.331 141.337 167.284 141.522 167.311C141.614 167.325 141.702 167.357 141.782 167.406C141.861 167.454 141.93 167.518 141.984 167.593C142.091 167.746 142.136 167.934 142.109 168.118L141.42 172.534L140.732 176.956C140.703 177.123 140.618 177.274 140.49 177.385C140.36 177.489 140.199 177.545 140.033 177.543Z" fill="#2B3D0A"/>
<path d="M126.163 210.037C133.766 209.185 140.331 208.316 145.3 207.589C150.27 206.861 153.642 206.28 154.889 205.993C155.233 205.914 155.662 205.795 156.293 205.632C156.925 205.468 157.76 205.259 158.927 204.983C159.711 204.797 160.213 204.69 160.62 204.588C160.98 204.495 161.333 204.372 161.674 204.222C162.282 203.963 162.862 203.644 163.406 203.268C164.002 202.874 164.447 202.29 164.669 201.61C164.81 201.087 164.81 200.537 164.669 200.014C164.573 199.62 164.425 199.241 164.229 198.886L165.594 198.181C166.091 197.927 166.626 197.617 167.196 197.335C168.406 196.724 169.57 196.025 170.676 195.242C171.184 194.916 171.559 194.42 171.737 193.843C171.86 193.393 171.879 192.921 171.793 192.462C171.759 192.24 171.7 192.022 171.618 191.813C171.48 191.46 171.278 191.137 171.02 190.86C170.851 190.684 170.662 190.528 170.456 190.397C171.562 189.875 172.426 188.948 172.87 187.808C173.066 187.338 173.158 186.83 173.138 186.321C173.119 185.812 172.989 185.313 172.757 184.858C172.411 184.269 171.885 183.805 171.257 183.533C170.571 183.226 169.819 183.093 169.069 183.144C169.054 182.808 168.994 182.476 168.888 182.157C168.703 181.571 168.362 181.046 167.901 180.639C167.604 180.379 167.262 180.174 166.892 180.036C166.573 179.919 166.238 179.851 165.899 179.833C165.559 179.808 165.217 179.83 164.884 179.901C164.645 179.946 164.41 180.014 164.184 180.104L164.054 180.154L163.987 180.183C163.423 180.436 159.147 181.937 154.962 183.279C150.777 184.622 146.694 185.795 146.547 185.389C146.507 185.287 146.705 185.09 147.37 184.7C148.036 184.311 149.181 183.736 151.037 182.884L153.558 179.28L156.079 175.682L140.591 176.81L125.103 177.938L125.667 193.996L126.163 210.037Z" fill="#FFAA9F"/>
<path d="M150.613 191.847C150.465 191.846 150.321 191.799 150.201 191.712C150.077 191.624 149.986 191.497 149.942 191.351C149.912 191.263 149.901 191.17 149.909 191.078C149.917 190.986 149.943 190.896 149.987 190.815C150.075 190.648 150.225 190.522 150.404 190.465C152.316 189.867 154.223 189.202 156.101 188.48C157.979 187.758 159.841 186.974 161.657 186.139C162.853 185.575 164.043 185.011 165.216 184.413C166.389 183.815 167.557 183.184 168.702 182.535C168.781 182.489 168.869 182.46 168.96 182.449C169.051 182.439 169.144 182.447 169.232 182.473C169.322 182.497 169.406 182.539 169.48 182.596C169.553 182.653 169.615 182.724 169.66 182.806C169.75 182.968 169.773 183.16 169.724 183.339C169.674 183.518 169.556 183.671 169.395 183.765C168.233 184.419 167.055 185.056 165.859 185.665C164.663 186.274 163.456 186.861 162.249 187.419C160.399 188.273 158.519 189.065 156.609 189.794C154.702 190.533 152.768 191.204 150.822 191.813H150.72L150.613 191.847Z" fill="#AD4D4D"/>
<path d="M152.407 197.933C152.26 197.933 152.116 197.888 151.996 197.803C151.874 197.714 151.783 197.59 151.736 197.448C151.68 197.27 151.696 197.077 151.781 196.91C151.865 196.744 152.011 196.617 152.187 196.556C153.53 196.122 154.872 195.665 156.203 195.18C157.534 194.695 158.865 194.199 160.18 193.68C161.872 193.02 163.53 192.321 165.188 191.587C166.846 190.854 168.488 190.098 170.107 189.331C170.189 189.29 170.279 189.265 170.371 189.259C170.463 189.254 170.555 189.267 170.642 189.297C170.73 189.327 170.811 189.373 170.881 189.434C170.951 189.495 171.008 189.57 171.048 189.653C171.092 189.74 171.117 189.834 171.123 189.931C171.129 190.028 171.115 190.125 171.082 190.217C171.019 190.392 170.889 190.536 170.721 190.617C169.093 191.418 167.439 192.187 165.758 192.924C164.066 193.663 162.374 194.368 160.682 195.039C159.356 195.564 158.014 196.071 156.666 196.556C155.318 197.042 153.964 197.504 152.61 197.944H152.503L152.407 197.933Z" fill="#AD4D4D"/>
<path d="M154.133 203.268C153.983 203.267 153.838 203.219 153.718 203.131C153.597 203.043 153.508 202.919 153.461 202.777C153.432 202.69 153.421 202.597 153.428 202.505C153.436 202.412 153.463 202.323 153.507 202.241C153.548 202.158 153.606 202.085 153.677 202.024C153.747 201.964 153.83 201.919 153.918 201.892L155.656 201.328C156.22 201.136 156.812 200.938 157.381 200.764C158.481 200.374 159.592 199.974 160.692 199.551C161.792 199.128 162.892 198.699 163.981 198.248C164.11 198.195 164.252 198.181 164.389 198.208C164.526 198.236 164.652 198.303 164.75 198.402C164.849 198.502 164.916 198.628 164.942 198.765C164.969 198.902 164.954 199.044 164.9 199.173C164.864 199.258 164.812 199.336 164.746 199.4C164.68 199.465 164.602 199.516 164.516 199.551C163.422 200.008 162.311 200.448 161.194 200.871C160.077 201.294 158.938 201.706 157.844 202.095C157.28 202.292 156.688 202.495 156.101 202.687C155.514 202.879 154.928 203.07 154.347 203.251L154.24 203.279L154.133 203.268Z" fill="#AD4D4D"/>
<path d="M92.3322 309.56H92.2645H92.2025C92.0181 309.524 91.8544 309.419 91.7456 309.266C91.6932 309.19 91.6567 309.103 91.6382 309.012C91.6198 308.921 91.6199 308.827 91.6385 308.736L99.3883 267.742L107.11 226.754C107.145 226.571 107.25 226.409 107.403 226.303C107.558 226.199 107.748 226.16 107.932 226.195C108.116 226.229 108.278 226.335 108.385 226.489C108.49 226.645 108.53 226.835 108.497 227.019L100.776 268.002L93.0542 308.984C93.0221 309.148 92.9344 309.295 92.806 309.402C92.6726 309.51 92.5041 309.567 92.3322 309.56Z" fill="#2B3D0A"/>
<path d="M97.973 180.245L101.752 172.873L105.531 165.507C105.617 165.341 105.765 165.215 105.943 165.157C106.121 165.1 106.315 165.116 106.482 165.202C106.649 165.287 106.776 165.436 106.834 165.614C106.889 165.792 106.873 165.984 106.789 166.15L103.574 172.422L100.359 178.688L112.694 177.949L125.035 177.21C125.223 177.204 125.406 177.268 125.548 177.391C125.652 177.484 125.726 177.605 125.761 177.74C125.796 177.875 125.79 178.017 125.744 178.149C125.699 178.28 125.615 178.395 125.504 178.479C125.392 178.563 125.259 178.612 125.12 178.62L111.549 179.433L97.973 180.245Z" fill="#2B3D0A"/>
<path d="M141.126 125.071C141.123 128.527 139.921 131.875 137.726 134.545C135.531 137.214 132.479 139.041 129.089 139.712C125.699 140.384 122.181 139.86 119.134 138.229C116.087 136.597 113.7 133.961 112.379 130.767C111.057 127.573 110.884 124.021 111.889 120.714C112.893 117.407 115.013 114.551 117.887 112.631C120.761 110.712 124.211 109.848 127.651 110.187C131.09 110.526 134.305 112.047 136.749 114.49C138.139 115.879 139.242 117.529 139.993 119.345C140.744 121.16 141.129 123.106 141.126 125.071Z" fill="#FFAA9F"/>
<path d="M124.295 124.688C124.295 124.978 124.179 125.255 123.974 125.46C123.764 125.66 123.485 125.772 123.196 125.772C122.906 125.772 122.627 125.66 122.417 125.46C122.315 125.359 122.234 125.238 122.179 125.105C122.123 124.972 122.095 124.829 122.095 124.685C122.095 124.541 122.123 124.398 122.179 124.265C122.234 124.132 122.315 124.011 122.417 123.909C122.576 123.768 122.771 123.674 122.98 123.638C123.189 123.602 123.405 123.627 123.601 123.708C123.797 123.789 123.966 123.924 124.089 124.098C124.212 124.271 124.284 124.475 124.295 124.688Z" fill="#2B3D0A"/>
<path d="M134.093 123.368C134.095 123.586 134.032 123.799 133.912 123.981C133.792 124.162 133.62 124.304 133.419 124.388C133.218 124.471 132.997 124.493 132.783 124.45C132.57 124.407 132.374 124.301 132.221 124.146C132.021 123.937 131.909 123.658 131.909 123.368C131.909 123.078 132.021 122.799 132.221 122.59C132.323 122.487 132.443 122.406 132.576 122.351C132.71 122.296 132.852 122.267 132.996 122.267C133.141 122.267 133.283 122.296 133.416 122.351C133.549 122.406 133.67 122.487 133.772 122.59C133.976 122.798 134.091 123.077 134.093 123.368Z" fill="#2B3D0A"/>
<path d="M128.532 132.2C127.552 132.187 126.591 131.925 125.74 131.439C125.333 131.211 124.955 130.937 124.612 130.621C124.545 130.557 124.491 130.48 124.454 130.395C124.417 130.31 124.398 130.218 124.398 130.125C124.393 129.939 124.462 129.759 124.589 129.623C124.653 129.555 124.73 129.502 124.816 129.465C124.901 129.428 124.993 129.409 125.086 129.408C125.272 129.404 125.452 129.473 125.588 129.6C125.935 129.916 126.329 130.177 126.755 130.373C127.505 130.751 128.355 130.877 129.182 130.734C130.009 130.591 130.768 130.186 131.346 129.578C131.652 129.263 131.911 128.906 132.114 128.517C132.175 128.391 132.272 128.286 132.394 128.216C132.515 128.146 132.655 128.114 132.795 128.124C132.935 128.135 133.068 128.187 133.178 128.274C133.288 128.361 133.369 128.479 133.411 128.613C133.441 128.701 133.452 128.793 133.446 128.885C133.439 128.977 133.414 129.067 133.371 129.149C133.101 129.674 132.753 130.155 132.339 130.576C131.659 131.28 130.798 131.783 129.852 132.031C129.635 132.09 129.415 132.133 129.192 132.161C128.973 132.189 128.753 132.202 128.532 132.2Z" fill="#AD4D4D"/>
<path d="M131.566 111.123C130.719 110.792 129.843 110.541 128.949 110.373C128.03 110.2 127.098 110.113 126.163 110.113C123.294 110.107 120.485 110.932 118.075 112.488C115.727 114.002 113.848 116.141 112.649 118.664C114.516 119.499 117.945 120.677 121.56 120.119C125.176 119.561 128.972 117.242 131.566 111.123Z" fill="#001E50"/>
<path d="M155.96 346.126C151.363 338.732 149.942 330.897 151.132 323.915C151.671 320.512 152.91 317.258 154.772 314.36C156.635 311.462 159.079 308.982 161.95 307.078C166.409 304.282 171.464 302.575 176.705 302.098C182.346 301.534 188.358 302.453 193.525 305.674C197.667 308.245 200.816 312.144 202.459 316.734C203.35 319.12 203.849 321.635 203.937 324.18C208.099 323.026 212.527 323.3 216.515 324.958C220.136 326.498 222.899 329.138 223.965 332.29C224.748 334.725 224.595 337.363 223.537 339.691C222.343 342.329 220.409 344.565 217.97 346.126H155.96Z" fill="#61D248"/>
<path d="M49.2633 346.228C49.0807 346.226 48.9056 346.155 48.7726 346.03C48.6417 345.902 48.565 345.728 48.5582 345.545L44.61 243.828L40.6618 142.11C40.658 142.018 40.6725 141.925 40.7045 141.838C40.7365 141.751 40.7853 141.672 40.8482 141.603C40.911 141.535 40.9867 141.48 41.0709 141.441C41.155 141.403 41.246 141.381 41.3386 141.377C41.4312 141.37 41.5241 141.383 41.6115 141.414C41.699 141.445 41.7789 141.494 41.8463 141.558C41.983 141.688 42.0638 141.866 42.0719 142.054L46.0201 243.771L49.9683 345.494C49.9735 345.679 49.9068 345.859 49.7822 345.996C49.7196 346.065 49.644 346.12 49.5597 346.159C49.4754 346.198 49.3842 346.219 49.2915 346.222H49.2633V346.228Z" fill="#61D248"/>
<path d="M82.8626 94.8557C81.8921 87.1673 78.81 79.8983 73.9583 73.8555C69.1067 67.8128 62.6753 63.2328 55.3782 60.6239C48.0811 58.0151 40.2038 57.4796 32.6208 59.0767C25.0377 60.6739 18.0456 64.3413 12.4208 69.6718C9.70504 72.5092 7.36061 75.68 5.44369 79.108C2.18915 84.8524 0.335917 91.2836 0.0346349 97.8789C-0.461712 109.876 4.45664 119.408 9.65701 126.047C12.8624 130.182 16.6641 133.818 20.9376 136.837C22.7515 137.842 24.6367 138.713 26.5779 139.442C31.0371 141.111 35.749 142.004 40.5095 142.082C42.5152 142.111 44.5205 142 46.5108 141.749C57.5466 140.348 67.5739 134.62 74.3868 125.826C81.1998 117.032 84.2405 105.892 82.84 94.8557H82.8626Z" fill="#001E50"/>
<path d="M69.9637 100.615C67.4545 100.589 65.0069 99.8349 62.9189 98.4432C60.7165 97.0007 58.9712 94.9599 57.8878 92.5604V92.5322C55.3489 94.3379 52.3471 95.3808 49.2355 95.5385C46.3375 95.7041 43.4655 94.9112 41.0627 93.2824C39.0832 91.8916 37.532 89.9751 36.5843 87.7492C35.9784 86.3675 35.5702 84.9074 35.3717 83.4118C35.3501 83.2272 35.4006 83.0413 35.5127 82.8929C35.5702 82.8196 35.6417 82.7584 35.723 82.7129C35.8043 82.6674 35.8939 82.6385 35.9865 82.6278C36.078 82.6143 36.1714 82.6198 36.2607 82.6441C36.3499 82.6684 36.4333 82.7108 36.5054 82.7688C36.5787 82.8264 36.6399 82.8979 36.6854 82.9792C36.7309 83.0605 36.7598 83.15 36.7705 83.2426C36.948 84.592 37.3144 85.9097 37.859 87.157C38.6942 89.1665 40.0805 90.8989 41.858 92.1543C44.0263 93.6085 46.613 94.3082 49.2186 94.1453C52.0095 93.9801 54.6964 93.0277 56.9684 91.3985C57.1458 91.2718 57.3495 91.1867 57.5644 91.1496C57.7792 91.1124 57.9996 91.1243 58.2093 91.1842C58.4177 91.2423 58.6104 91.3464 58.7733 91.4888C58.9399 91.6308 59.0728 91.808 59.1625 92.0077C60.3778 94.6953 62.506 96.8655 65.1694 98.133C66.4137 98.7482 67.7672 99.1116 69.1522 99.2026C70.5373 99.2936 71.9266 99.1103 73.2407 98.6632C75.408 97.8505 77.2408 96.3354 78.4467 94.3597C79.7393 92.2857 80.3908 89.8762 80.3193 87.4334C80.3161 87.3403 80.3315 87.2475 80.3644 87.1604C80.3973 87.0732 80.4471 86.9935 80.5111 86.9257C80.6395 86.791 80.8157 86.712 81.0018 86.7058C81.1896 86.7062 81.3706 86.7766 81.5094 86.9032C81.6438 87.0295 81.7229 87.2039 81.7294 87.3882C81.8176 90.117 81.0932 92.8104 79.6481 95.1268C78.2719 97.3454 76.1991 99.0453 73.754 99.9605C73.1494 100.179 72.5265 100.343 71.8927 100.451C71.2555 100.561 70.6102 100.615 69.9637 100.615Z" fill="#61D248"/>
<path d="M49.2634 346.228H49.1506C49.0594 346.214 48.972 346.181 48.8935 346.133C48.815 346.085 48.7471 346.021 48.6937 345.946C48.5831 345.795 48.5365 345.606 48.564 345.421L60.0307 272.097L71.4975 198.773C71.5114 198.681 71.5435 198.593 71.5919 198.513C71.6403 198.434 71.7041 198.365 71.7795 198.31C71.9374 198.206 72.1282 198.164 72.3153 198.192C72.5003 198.222 72.6661 198.324 72.7778 198.474C72.8843 198.627 72.9287 198.814 72.9019 198.999L61.4352 272.323L49.9684 345.647C49.9432 345.813 49.8592 345.965 49.7315 346.075C49.5977 346.178 49.4323 346.232 49.2634 346.228Z" fill="#61D248"/>
<path d="M94.4032 186.861C95.158 191.497 94.2827 196.25 91.9263 200.313C89.5698 204.375 85.878 207.495 81.4795 209.142C77.081 210.788 72.2479 210.858 67.8032 209.341C63.3585 207.824 59.5771 204.813 57.103 200.822C54.6289 196.83 53.6151 192.103 54.2342 187.448C54.8533 182.793 57.067 178.496 60.4985 175.289C63.9299 172.082 68.3667 170.164 73.0534 169.862C77.7401 169.559 82.3868 170.89 86.2022 173.629C88.3737 175.185 90.2161 177.156 91.6235 179.426C93.031 181.697 93.9756 184.224 94.4032 186.861Z" fill="#001E50"/>
<path d="M68.096 189.32C67.9325 189.32 67.7633 189.32 67.5941 189.32C67.4255 189.303 67.2579 189.276 67.0921 189.241C65.9867 189.024 64.9781 188.463 64.2099 187.639C63.4351 186.81 62.9332 185.762 62.7716 184.639C62.7487 184.453 62.7971 184.266 62.907 184.114C63.0193 183.965 63.1852 183.866 63.3695 183.838C63.5548 183.812 63.7428 183.86 63.8928 183.972C64.0427 184.084 64.1425 184.251 64.1704 184.436C64.282 185.28 64.6547 186.069 65.2364 186.692C65.8005 187.305 66.5454 187.722 67.3628 187.882C68.1513 188.036 68.9678 187.945 69.7035 187.622C70.4477 187.295 71.0806 186.758 71.5253 186.077C71.6196 185.925 71.7496 185.799 71.904 185.71C72.0584 185.62 72.2325 185.57 72.4109 185.564C72.5874 185.55 72.7644 185.583 72.9241 185.66C73.0893 185.733 73.2344 185.845 73.3472 185.987C73.961 186.76 74.8208 187.299 75.7838 187.515C76.6925 187.734 77.6507 187.593 78.4573 187.12C79.1352 186.697 79.65 186.057 79.9181 185.304C80.2127 184.504 80.2657 183.635 80.0704 182.806C80.0494 182.716 80.0466 182.622 80.0621 182.531C80.0776 182.44 80.1111 182.353 80.1607 182.275C80.2599 182.116 80.418 182.003 80.6006 181.96C80.7823 181.92 80.9725 181.952 81.1308 182.05C81.29 182.149 81.4036 182.307 81.4467 182.49C81.7039 183.607 81.6234 184.775 81.2154 185.846C80.813 186.93 80.0347 187.833 79.0222 188.391C78.0096 188.949 76.8304 189.124 75.6992 188.886C74.4606 188.661 73.3295 188.037 72.4786 187.109C71.9631 187.795 71.2949 188.351 70.527 188.734C69.7739 189.117 68.9411 189.318 68.096 189.32Z" fill="#61D248"/>
<path d="M200.536 346.064C200.492 344.287 200.668 342.512 201.061 340.779C201.688 337.94 202.949 335.279 204.75 332.995C206.793 330.441 209.471 328.467 212.516 327.27C214.578 326.461 216.726 325.893 218.918 325.578C222.376 325.007 225.915 325.143 229.319 325.979C232.711 326.815 235.876 328.392 238.586 330.598C240.101 331.843 241.446 333.282 242.585 334.879C243.176 335.702 243.703 336.569 244.158 337.474C245.492 340.148 246.233 343.078 246.33 346.064H223.436H200.536Z" fill="#F4ECE5"/>
<path d="M232.331 332.054C232.322 332.469 232.218 332.876 232.027 333.244C231.837 333.613 231.564 333.933 231.231 334.18C230.46 334.751 229.526 335.059 228.566 335.059C227.607 335.059 226.672 334.751 225.901 334.18C225.56 333.941 225.282 333.623 225.09 333.253C224.898 332.884 224.797 332.473 224.797 332.057C224.797 331.64 224.898 331.23 225.09 330.86C225.282 330.49 225.56 330.172 225.901 329.933C226.672 329.362 227.607 329.054 228.566 329.054C229.526 329.054 230.46 329.362 231.231 329.933C231.564 330.179 231.836 330.498 232.027 330.866C232.218 331.233 232.322 331.64 232.331 332.054Z" fill="#F98638"/>
<path d="M117.077 309.205C116.66 312.916 116.24 316.625 115.819 320.333C115.398 324.041 114.977 327.748 114.556 331.456C114.508 331.779 114.491 332.105 114.505 332.431C114.52 332.757 114.575 333.079 114.669 333.39C114.794 333.808 114.985 334.204 115.233 334.563C115.478 334.916 115.779 335.227 116.124 335.483L122.328 339.995L128.532 344.507C128.674 344.613 128.779 344.759 128.834 344.927C128.89 345.094 128.893 345.275 128.843 345.444C128.816 345.611 128.733 345.765 128.608 345.881C128.484 345.996 128.324 346.067 128.155 346.081H77.6286C77.2413 346.079 76.8588 345.995 76.5067 345.833C76.1547 345.672 75.841 345.437 75.5868 345.145C75.0376 344.522 74.7365 343.719 74.7408 342.889L78.125 325.877L81.5092 308.866C87.8432 308.866 93.5738 308.956 99.3043 309.041C105.035 309.126 110.749 309.205 117.077 309.205Z" fill="#001E50"/>
<path d="M91.9154 309.205L90.2234 320.333L88.5595 331.456C88.5087 331.778 88.4917 332.105 88.5087 332.431C88.5181 332.757 88.5732 333.08 88.6723 333.39C88.798 333.808 88.9883 334.204 89.2363 334.564C89.4781 334.919 89.7796 335.23 90.1275 335.483L96.3318 339.995L102.536 344.507C102.676 344.614 102.781 344.761 102.835 344.928C102.889 345.095 102.891 345.275 102.841 345.444C102.806 345.611 102.716 345.761 102.585 345.869C102.453 345.978 102.289 346.039 102.119 346.042H48.6261C48.2387 346.04 47.8563 345.955 47.5042 345.794C47.1521 345.632 46.8385 345.398 46.5843 345.105C46.035 344.482 45.7339 343.68 45.7382 342.849L49.4157 326.013L53.1383 309.205H91.938H91.9154Z" fill="#001E50"/>
<path d="M102.913 346.786C102.816 346.787 102.72 346.768 102.631 346.729C102.538 346.688 102.455 346.626 102.389 346.549C102.265 346.409 102.201 346.227 102.208 346.041C102.214 345.949 102.237 345.858 102.278 345.775C102.319 345.692 102.375 345.617 102.445 345.556C102.524 345.493 102.582 345.409 102.614 345.314C102.648 345.169 102.624 345.017 102.547 344.891C102.482 344.782 102.398 344.687 102.298 344.609C102.191 344.518 102.062 344.428 101.932 344.338L101.83 344.265L101.723 344.191L100.984 343.627L100.24 343.091L99.1907 342.341L98.1472 341.591L97.7016 341.275L97.256 340.959C96.3028 340.277 95.3214 339.572 94.3287 338.844C93.336 338.117 92.3264 337.372 91.3281 336.588C90.4309 335.97 89.6531 335.194 89.0325 334.298C88.413 333.252 88.1646 332.028 88.3274 330.824C88.3669 330.378 88.4233 329.933 88.491 329.487C88.5587 329.041 88.6376 328.613 88.711 328.184L88.8463 327.411C88.8858 327.152 88.9309 326.898 88.9648 326.639C89.2468 324.681 89.5288 322.69 89.839 320.739C90.1492 318.787 90.4369 316.791 90.7358 314.901C90.8881 313.925 91.0348 312.95 91.1871 311.979C91.3394 311.009 91.486 310.028 91.6326 309.058C91.6465 308.966 91.6786 308.878 91.7271 308.798C91.7755 308.719 91.8393 308.65 91.9147 308.595C91.9881 308.54 92.0719 308.5 92.161 308.478C92.2501 308.456 92.3428 308.451 92.4336 308.466C92.6182 308.493 92.7846 308.592 92.8961 308.742C93.0067 308.893 93.0533 309.081 93.0258 309.266C92.8792 310.242 92.7325 311.218 92.5802 312.194C92.4279 313.17 92.2813 314.14 92.129 315.115C91.8301 317.033 91.5311 318.99 91.2322 320.953C90.9332 322.916 90.6682 324.901 90.3636 326.842C90.3241 327.101 90.279 327.366 90.2395 327.631C90.2 327.896 90.1492 328.162 90.0985 328.427C90.0308 328.838 89.9518 329.261 89.8898 329.684C89.8277 330.107 89.7713 330.53 89.7319 330.948C89.6052 331.813 89.7635 332.696 90.1831 333.463C90.7175 334.252 91.397 334.931 92.1854 335.466C93.1781 336.227 94.1764 336.972 95.1635 337.694C96.1505 338.416 97.1319 339.115 98.0795 339.792L98.5195 340.113L98.965 340.429L100.014 341.179L101.063 341.93L101.808 342.494L102.552 343.058L102.643 343.12L102.738 343.187C102.936 343.319 103.125 343.464 103.302 343.622C103.503 343.799 103.669 344.011 103.793 344.248C104.005 344.635 104.083 345.081 104.013 345.517C103.935 345.945 103.712 346.333 103.381 346.617C103.316 346.674 103.242 346.72 103.161 346.752C103.081 346.777 102.997 346.789 102.913 346.786Z" fill="#2B3D0A"/>
<path d="M92.5863 397.413C92.3494 398.09 91.3793 398.44 89.9974 398.462C86.5416 398.331 83.2034 397.172 80.4089 395.135C79.3373 394.266 78.7901 393.392 79.0214 392.709C79.2526 392.027 80.2284 391.683 81.6103 391.666C85.0663 391.792 88.4056 392.949 91.1988 394.988C92.2761 395.856 92.8232 396.731 92.5863 397.413Z" fill="#F98638"/>
<path d="M166.232 361.44C166.627 362.043 166.317 363.025 165.493 364.136C163.294 366.807 160.349 368.761 157.033 369.748C155.685 370.075 154.658 369.973 154.263 369.376C153.868 368.778 154.179 367.791 155.002 366.685C156.073 365.332 157.364 364.169 158.821 363.244C160.241 362.268 161.813 361.534 163.474 361.073C164.816 360.746 165.837 360.842 166.232 361.44Z" fill="#F98638"/>
<path d="M171.139 401.244C171.81 401.503 172.126 402.485 172.092 403.866C171.85 407.322 170.575 410.626 168.432 413.348C167.524 414.391 166.632 414.91 165.961 414.651C165.29 414.391 164.974 413.41 165.008 412.028C165.25 408.572 166.526 405.269 168.669 402.547C169.577 401.509 170.457 400.99 171.139 401.244Z" fill="#F98638"/>
<path d="M345.65 411.96C346.045 412.558 345.735 413.545 344.911 414.656C343.836 416.005 342.546 417.167 341.093 418.097C339.671 419.073 338.097 419.805 336.434 420.263C335.092 420.59 334.065 420.494 333.665 419.896C333.264 419.298 333.58 418.311 334.409 417.2C336.607 414.53 339.554 412.577 342.87 411.594C344.223 411.266 345.255 411.362 345.65 411.96Z" fill="#F98638"/>
<path d="M200.147 403.832C199.47 404.069 198.59 403.522 197.721 402.45C195.672 399.661 194.509 396.32 194.382 392.862C194.382 391.48 194.743 390.51 195.426 390.273C196.108 390.036 196.977 390.583 197.851 391.655C199.892 394.448 201.054 397.786 201.19 401.243C201.173 402.625 200.823 403.601 200.147 403.832Z" fill="#F98638"/>
<path d="M422.663 358.135C423.058 358.733 422.747 359.72 421.924 360.831C420.848 362.179 419.558 363.342 418.105 364.271C416.684 365.249 415.109 365.983 413.446 366.443C412.104 366.764 411.078 366.668 410.677 366.071C410.277 365.473 410.598 364.486 411.422 363.38C412.492 362.029 413.781 360.866 415.234 359.94C416.657 358.964 418.231 358.23 419.893 357.768C421.236 357.441 422.268 357.537 422.663 358.135Z" fill="#F98638"/>
<path d="M103.827 432.085C103.263 432.542 102.265 432.333 101.075 431.628C98.188 429.723 95.937 426.999 94.6108 423.805C94.1427 422.502 94.1371 421.464 94.6898 420.985C95.2426 420.505 96.2522 420.737 97.4423 421.436C100.33 423.353 102.579 426.089 103.9 429.293C104.374 430.573 104.38 431.628 103.827 432.085Z" fill="#F98638"/>
<path d="M274.205 408.954C274.876 409.213 275.192 410.2 275.158 411.582C274.916 415.038 273.64 418.341 271.497 421.063C270.589 422.107 269.698 422.62 269.027 422.361C268.356 422.101 268.04 421.12 268.074 419.738C268.318 416.286 269.593 412.987 271.734 410.268C272.642 409.213 273.534 408.7 274.205 408.954Z" fill="#F98638"/>
<path d="M255.365 447.296C254.801 447.753 253.797 447.544 252.607 446.839C249.718 444.93 247.467 442.199 246.143 438.999C245.681 437.696 245.669 436.658 246.222 436.179C246.775 435.7 247.79 435.931 248.98 436.63C251.868 438.543 254.119 441.275 255.444 444.476C255.907 445.801 255.918 446.839 255.365 447.296Z" fill="#F98638"/>
<path d="M322.434 398.705C321.926 399.213 320.9 399.106 319.648 398.519C316.591 396.892 314.089 394.39 312.462 391.333C311.898 390.081 311.768 389.077 312.276 388.547C312.784 388.017 313.81 388.146 315.062 388.733C318.119 390.36 320.621 392.862 322.248 395.919C322.835 397.171 322.942 398.197 322.434 398.705Z" fill="#F98638"/>
<path d="M375.115 345.404H369.424H363.733C363.733 345.432 363.733 345.46 363.761 345.489C363.789 345.517 363.761 345.545 363.761 345.573H375.143V345.511C375.143 345.511 375.12 345.404 375.115 345.404Z" fill="#F4ECE5"/>
<path d="M360.873 459.693C361.494 458.734 362.097 457.77 362.684 456.789C363.27 455.807 363.812 454.809 364.376 453.799C369.397 444.538 373.137 434.637 375.493 424.368C378.872 408.693 380.222 392.648 379.509 376.629C378.978 366.153 377.517 355.745 375.143 345.528H363.784C366.178 353.269 367.943 361.192 369.063 369.217C370.46 379.265 370.798 389.432 370.073 399.551C369.614 406.788 368.601 413.98 367.044 421.063C364.846 430.984 361.284 440.553 356.457 449.496C355.667 450.945 354.832 452.361 353.964 453.748C353.095 455.136 352.17 456.495 351.223 457.815C347.201 456.78 343.292 455.35 339.553 453.545C336.028 451.838 332.705 449.74 329.648 447.29C324.241 442.82 319.284 437.83 314.848 432.394C310.274 426.94 305.999 421.114 301.791 415.439C300.849 414.165 299.89 412.862 298.926 411.565C297.961 410.267 296.991 408.97 296.021 407.695C295.389 406.855 294.712 405.924 294.007 404.937C293.302 403.95 292.569 402.901 291.808 401.824C289.36 398.338 286.613 394.424 283.573 390.633C280.6 386.817 277.249 383.309 273.572 380.165C268.91 376.303 264.249 373.955 259.59 373.12C254.878 372.299 250.026 373.025 245.76 375.19C237.012 379.432 231.812 387.644 228.478 397.233C225.145 406.821 223.661 417.803 222.342 427.589C221.998 430.138 221.665 432.62 221.315 434.921C220.965 437.222 220.587 439.433 220.187 441.368C219.899 442.705 219.623 444.002 219.279 445.271C218.935 446.54 218.625 447.764 218.281 448.96C214.771 445.011 210.877 441.421 206.656 438.243C202.595 435.192 198.21 432.597 193.582 430.505C187.951 427.926 181.963 426.214 175.82 425.428C169.715 424.677 163.531 424.867 157.484 425.993C151.501 427.086 145.664 428.865 140.089 431.294C140.055 431.148 140.027 431.001 139.993 430.854L139.908 430.437C138.933 425.626 138.177 421.463 137.59 416.765C137.004 412.067 136.575 406.815 136.259 399.844L136.208 398.716C136.208 398.327 136.175 397.943 136.163 397.56C144.736 397.335 153.223 395.79 161.325 392.98C165.794 391.455 170.112 389.52 174.224 387.198C179.682 384.089 184.744 380.332 189.301 376.008C192.306 373.135 195.117 370.066 197.716 366.82C202.884 360.504 207.185 353.525 210.503 346.069H206.092H201.681C195.218 358.644 185.563 369.297 173.683 376.961C162.44 384.266 149.396 388.318 135.994 388.671C135.909 379.906 136.208 371.879 136.705 364.739C137.201 357.598 137.884 351.337 138.572 346.126H134.059H129.547C128.538 353.971 127.855 361.417 127.466 368.45C127.077 375.484 126.902 382.1 126.981 388.287C126.372 388.214 125.763 388.14 125.153 388.05C124.544 387.96 123.935 387.87 123.326 387.768C105.666 384.728 92.8175 375.117 84.1935 365.856C78.6513 359.929 73.9984 353.23 70.3804 345.968L65.9132 346.013L61.4518 346.058C63.5135 351.223 66.081 356.171 69.1169 360.83C73.5517 367.656 78.9747 373.786 85.2087 379.02C89.2381 382.456 93.5814 385.506 98.1814 388.129C105.547 392.326 113.595 395.19 121.955 396.59C122.266 396.646 122.903 396.747 123.8 396.866C124.697 396.984 125.858 397.114 127.229 397.233C127.534 404.52 128.103 411.102 128.797 416.94C129.491 422.778 130.303 427.882 131.104 432.214C131.2 432.738 131.307 433.285 131.414 433.838C131.521 434.391 131.645 434.966 131.769 435.53C130.94 436.027 130.134 436.534 129.339 437.053C128.543 437.572 127.771 438.108 127.015 438.655C122.224 442.074 118.008 446.234 114.527 450.979C110.188 456.88 107.34 463.741 106.225 470.98C105.952 472.732 105.779 474.498 105.706 476.27C107.251 477.804 108.825 479.305 110.421 480.782C112.017 482.26 113.636 483.71 115.277 485.137C114.811 482.289 114.633 479.402 114.747 476.518C115.046 468.548 117.948 460.894 123.01 454.73C126.184 450.853 129.938 447.49 134.138 444.758C135.561 449.448 137.355 454.018 139.502 458.424C141.947 463.441 144.914 468.186 148.352 472.581C152.954 478.43 158.177 482.869 163.897 485.847C169.618 488.837 175.981 490.386 182.436 490.36C183.502 490.36 184.574 490.32 185.657 490.241C186.74 490.162 187.834 490.044 188.934 489.886C195.674 489.02 202.09 486.482 207.598 482.503C212.937 478.596 217.416 473.215 221.033 466.36C229.251 475.61 237.74 482.773 246.742 488.013C255.595 493.19 265.361 496.619 275.507 498.115C290.225 500.333 305.267 498.713 319.175 493.412C333.083 488.11 345.387 479.307 354.895 467.855C357.903 468.415 361.031 468.838 364.28 469.124C367.529 469.41 370.879 469.553 374.331 469.553C376.542 469.553 378.798 469.494 381.099 469.378C383.401 469.261 385.749 469.086 388.144 468.853C389.648 467.206 391.113 465.537 392.538 463.845C393.963 462.153 395.371 460.432 396.762 458.684C390.458 459.672 384.099 460.267 377.721 460.466C372.093 460.657 366.46 460.399 360.873 459.693ZM187.631 480.986C186.723 481.115 185.832 481.217 184.958 481.279C184.083 481.341 183.226 481.375 182.38 481.375C170.456 481.369 161.641 475.131 155.228 466.868C148.814 458.605 144.782 448.317 142.373 440.217C145.121 438.944 147.947 437.848 150.834 436.935C153.543 436.081 156.303 435.395 159.097 434.882C169.181 433.029 179.588 434.223 188.99 438.311C198.455 442.372 207.197 449.259 214.569 458.689L214.62 458.751L214.665 458.808C211.704 465.435 208.015 470.54 203.531 474.206C198.963 477.898 193.458 480.245 187.631 480.986ZM322.999 481.905C308.756 489.074 292.636 491.637 276.872 489.237C267.172 487.836 257.865 484.449 249.534 479.288C241.034 474.048 233.013 466.794 225.043 457.251C225.795 455.138 226.51 452.917 227.187 450.59C227.863 448.262 228.465 445.833 228.991 443.303C229.443 441.193 229.838 438.886 230.21 436.45C230.582 434.013 230.926 431.447 231.281 428.801C232.455 420.093 233.774 410.312 236.437 401.92C239.099 393.527 243.12 386.51 249.691 383.307C255.896 380.278 261.812 382.218 267.537 386.911C273.262 391.604 278.818 399.032 284.419 407.002C285.197 408.13 285.959 409.196 286.675 410.228C287.391 411.26 288.125 412.236 288.807 413.138C289.755 414.39 290.713 415.671 291.667 416.957C292.62 418.243 293.573 419.529 294.487 420.792C298.869 426.726 303.319 432.761 308.136 438.486C312.892 444.261 318.196 449.561 323.974 454.312C327.024 456.759 330.303 458.904 333.766 460.72C337.365 462.602 341.123 464.165 344.996 465.39C338.7 472.161 331.245 477.752 322.982 481.899L322.999 481.905Z" fill="#6374B9"/>
<path d="M226.493 366.995L220.694 363.306L214.902 359.623C214.82 359.566 214.721 359.538 214.621 359.542C214.521 359.546 214.425 359.583 214.348 359.647C214.272 359.711 214.218 359.799 214.196 359.897C214.173 359.994 214.184 360.096 214.225 360.187L222.454 381.254L230.683 402.326C230.853 402.762 231.108 403.159 231.432 403.495C231.757 403.831 232.146 404.099 232.575 404.283C233.005 404.468 233.467 404.565 233.934 404.568C234.401 404.572 234.865 404.483 235.297 404.306L249.827 398.384L264.35 392.456L256.838 374.773C254.341 368.881 251.838 362.985 249.33 357.085L237.909 362.043L226.493 366.995Z" fill="#61D248"/>
<path d="M352.283 335.178H299.755L274.542 346.126L249.33 357.074C251.834 362.966 254.337 368.862 256.837 374.762L264.35 392.445L294.244 380.245L324.138 368.039L348.351 382.36L372.571 396.68L382.78 379.336L392.989 361.992L372.661 348.585L352.283 335.178Z" fill="#61D248"/>
<path d="M428.687 372.382L422.482 374.819L416.278 377.255L404.676 369.624L393.079 361.992L382.87 379.336L372.661 396.68L387.591 405.513L402.527 414.346C402.935 414.586 403.386 414.742 403.855 414.804C404.325 414.866 404.801 414.833 405.257 414.708C405.714 414.582 406.14 414.366 406.511 414.072C406.882 413.778 407.19 413.413 407.417 412.998C411.061 406.335 414.708 399.673 418.359 393.014L429.256 373.042C429.302 372.959 429.322 372.865 429.311 372.771C429.301 372.677 429.262 372.588 429.2 372.517C429.14 372.443 429.057 372.39 428.965 372.366C428.873 372.342 428.776 372.347 428.687 372.382Z" fill="#61D248"/>
<path d="M315.146 273.158C314.712 273.158 314.176 273.158 313.556 273.158C312.863 273.189 312.171 273.259 311.486 273.366C309.561 273.67 307.695 274.275 305.958 275.16C304.126 276.126 302.387 277.259 300.764 278.544C297.867 280.787 295.138 283.238 292.596 285.877C290.261 288.285 288.327 290.558 286.843 292.408L276.183 305.635L265.523 318.861C264.534 320.086 263.703 321.429 263.047 322.86C262.393 324.295 261.941 325.813 261.705 327.372C261.456 328.914 261.456 330.484 261.705 332.026C261.999 333.776 262.675 335.439 263.684 336.899L263.949 337.288C264.04 337.418 264.124 337.547 264.209 337.683C266.023 340.538 268.36 343.026 271.096 345.015C274.773 347.536 279.629 348.896 285.078 345.382L290.075 341.778L295.073 338.179C295.66 337.699 296.176 337.139 296.607 336.515C297.031 335.971 297.309 335.328 297.417 334.646C297.524 333.964 297.457 333.266 297.222 332.618L293.725 325.19L290.233 317.767H357.77C357.065 321.298 356.445 324.439 355.898 327.152C355.351 329.865 354.882 332.138 354.471 333.921C354.328 334.488 354.241 335.068 354.211 335.652C354.162 336.538 354.338 337.421 354.724 338.219C355.11 339.017 355.692 339.704 356.417 340.215C357.017 340.656 357.662 341.034 358.34 341.343C362.081 343.127 365.932 344.672 369.869 345.968C373.151 347.051 376.017 347.813 378.848 348.698C379.355 348.861 379.871 348.993 380.394 349.093C382.163 349.439 383.989 349.354 385.718 348.845C386.295 348.678 386.86 348.473 387.41 348.23C390.524 346.854 392.616 344.282 393.947 342.026C394.789 340.609 395.452 339.094 395.921 337.514C396.126 336.763 396.273 335.997 396.361 335.224C396.55 333.692 396.565 332.145 396.406 330.61C396.165 328.295 395.539 326.036 394.556 323.926C393.803 322.331 392.922 320.8 391.922 319.346C387.974 313.407 384.911 309.109 382.802 306.295C380.692 303.48 379.576 302.155 379.576 302.155C377.451 299.65 375.268 297.099 373.027 294.501C370.786 291.902 368.485 289.27 366.124 286.604C364.552 284.816 362.841 283.154 361.008 281.635C359.178 280.114 357.221 278.754 355.159 277.568C352.682 276.108 350.028 274.97 347.262 274.184C345.146 273.588 342.95 273.328 340.753 273.412C339.992 273.451 338.994 273.474 337.995 273.479C336.997 273.485 335.999 273.479 335.243 273.479L325.214 273.344L315.146 273.158Z" fill="#F4ECE5"/>
<path d="M297.053 295.098V337.649L311.069 342.516L325.079 347.384L339.879 342.358L354.674 337.339L354.821 315.702L354.973 294.066L339.851 298.375L324.735 302.679L310.9 298.889L297.053 295.098Z" fill="#001E50"/>
<path d="M314.177 262.446C314.176 265.909 315.375 269.264 317.571 271.941C319.767 274.618 322.823 276.451 326.218 277.127C329.614 277.803 333.138 277.281 336.192 275.65C339.246 274.018 341.639 271.379 342.965 268.18C344.29 264.982 344.466 261.423 343.461 258.109C342.456 254.796 340.334 251.934 337.455 250.01C334.577 248.087 331.12 247.221 327.675 247.56C324.229 247.899 321.008 249.423 318.56 251.871C317.169 253.258 316.065 254.906 315.313 256.721C314.561 258.536 314.175 260.482 314.177 262.446Z" fill="#FFAA9F"/>
<path d="M326.377 261.68C326.404 261.953 326.538 262.204 326.75 262.379C326.854 262.465 326.975 262.529 327.105 262.568C327.235 262.607 327.371 262.619 327.505 262.605C327.779 262.578 328.03 262.444 328.205 262.232C328.292 262.128 328.357 262.008 328.396 261.878C328.436 261.748 328.45 261.612 328.436 261.477C328.405 261.203 328.27 260.953 328.058 260.777C327.953 260.69 327.832 260.625 327.702 260.585C327.572 260.546 327.435 260.532 327.3 260.546C327.164 260.56 327.033 260.6 326.913 260.665C326.794 260.73 326.688 260.818 326.603 260.924C326.516 261.028 326.451 261.148 326.412 261.278C326.373 261.408 326.361 261.545 326.377 261.68Z" fill="#2B3D0A"/>
<path d="M318.836 261.363C318.863 261.636 318.996 261.888 319.208 262.063C319.313 262.15 319.435 262.215 319.566 262.253C319.697 262.292 319.834 262.304 319.97 262.288C320.105 262.275 320.236 262.236 320.356 262.172C320.475 262.109 320.581 262.022 320.667 261.917C320.753 261.812 320.818 261.691 320.857 261.561C320.896 261.431 320.909 261.295 320.895 261.16C320.868 260.887 320.734 260.635 320.522 260.461C320.417 260.374 320.296 260.309 320.165 260.27C320.034 260.231 319.896 260.219 319.761 260.235C319.489 260.264 319.24 260.398 319.067 260.609C318.894 260.82 318.811 261.091 318.836 261.363Z" fill="#2B3D0A"/>
<path d="M324.291 269.176H324.02H323.749C322.775 269.074 321.848 268.705 321.07 268.11C320.597 267.758 320.18 267.336 319.835 266.857C319.728 266.705 319.686 266.517 319.716 266.333C319.747 266.15 319.848 265.986 319.999 265.876C320.074 265.822 320.159 265.783 320.25 265.762C320.341 265.74 320.434 265.737 320.526 265.752C320.618 265.768 320.706 265.801 320.785 265.85C320.863 265.899 320.932 265.964 320.986 266.04C321.244 266.395 321.554 266.711 321.905 266.976C322.569 267.489 323.38 267.775 324.22 267.791C325.059 267.807 325.881 267.553 326.564 267.066C326.954 266.808 327.302 266.493 327.596 266.13C327.652 266.056 327.723 265.994 327.803 265.948C327.884 265.901 327.972 265.871 328.064 265.859C328.251 265.835 328.439 265.886 328.589 266C328.662 266.057 328.723 266.127 328.768 266.208C328.814 266.288 328.843 266.377 328.854 266.468C328.868 266.559 328.864 266.653 328.84 266.742C328.817 266.831 328.776 266.915 328.719 266.987C328.36 267.417 327.944 267.797 327.483 268.115C326.557 268.795 325.44 269.166 324.291 269.176Z" fill="#AD4D4D"/>
<path d="M329.135 247.488C327.676 247.486 326.224 247.699 324.826 248.12C323.477 248.529 322.191 249.125 321.007 249.891C321.248 250.342 321.523 250.774 321.831 251.183C322.183 251.642 322.58 252.065 323.015 252.446C324.465 253.687 326.256 254.462 328.154 254.668C330.2 254.895 332.27 254.616 334.183 253.856C333.839 254.963 333.665 256.115 333.664 257.274C333.618 259.138 334.081 260.979 335.003 262.599C335.926 264.219 337.272 265.556 338.899 266.468C340.19 267.201 341.618 267.662 343.095 267.821C343.966 265.556 344.273 263.112 343.989 260.701C343.705 258.29 342.838 255.984 341.464 253.983C340.09 251.981 338.25 250.344 336.102 249.213C333.954 248.081 331.563 247.489 329.135 247.488Z" fill="#AD4D4D"/>
<path d="M324.736 347.661C324.643 347.662 324.55 347.645 324.464 347.61C324.378 347.575 324.299 347.523 324.234 347.457C324.168 347.392 324.116 347.313 324.081 347.227C324.046 347.141 324.029 347.049 324.031 346.956V303.102C324.029 303.009 324.046 302.917 324.081 302.831C324.116 302.744 324.168 302.666 324.234 302.6C324.299 302.534 324.378 302.483 324.464 302.448C324.55 302.413 324.643 302.396 324.736 302.397C324.923 302.397 325.102 302.471 325.234 302.604C325.366 302.736 325.441 302.915 325.441 303.102V346.995C325.441 347.182 325.366 347.361 325.234 347.494C325.102 347.626 324.923 347.7 324.736 347.7V347.661Z" fill="#AD4D4D"/>
<path d="M297.29 313.705V305.922C297.274 305.526 297.132 305.147 296.884 304.839C296.635 304.513 296.277 304.288 295.876 304.206C295.474 304.124 295.057 304.191 294.701 304.393C294.309 304.601 294.004 304.944 293.843 305.358L291.497 311.449L289.145 317.558V317.597C289.145 317.597 288.908 318.161 288.654 319.064C288.332 320.138 288.114 321.241 288.006 322.358C287.923 324.48 288.21 326.6 288.852 328.624C289.681 331.23 291.221 333.853 293.973 334.969C295.192 335.453 296.507 335.646 297.814 335.533C298.479 335.486 299.137 335.367 299.777 335.178C300.262 335.031 300.722 334.812 301.142 334.529C301.599 334.236 302.152 333.824 303.094 333.187C303.127 333.187 304.853 331.997 306.957 330.536C309.061 329.075 311.554 327.321 313.116 326.12C313.322 325.975 313.511 325.809 313.68 325.623C313.925 325.352 314.108 325.03 314.216 324.681C314.294 324.422 314.326 324.151 314.312 323.88C314.305 323.72 314.281 323.561 314.239 323.407C314.15 323.052 313.982 322.722 313.748 322.442C313.609 322.278 313.45 322.132 313.274 322.008C313.449 321.884 314.109 321.444 314.91 320.823C315.767 320.183 316.59 319.498 317.375 318.77C317.568 318.6 317.744 318.411 317.899 318.206C318.098 317.928 318.236 317.611 318.305 317.276C318.334 317.14 318.351 317.002 318.356 316.864C318.365 316.646 318.334 316.428 318.266 316.221C318.125 315.814 317.858 315.462 317.505 315.217C317.303 315.078 317.085 314.964 316.856 314.879C317.072 314.627 317.251 314.346 317.386 314.044C317.642 313.513 317.721 312.915 317.611 312.336C317.501 311.757 317.209 311.229 316.777 310.829C316.573 310.637 316.346 310.472 316.1 310.338C315.598 310.087 315.034 309.985 314.476 310.045C313.896 310.106 313.343 310.316 312.868 310.654C312.595 310.113 312.195 309.646 311.701 309.295C311.451 309.125 311.182 308.985 310.9 308.877C310.279 308.653 309.61 308.595 308.959 308.708C308.571 308.772 308.192 308.886 307.831 309.046L302.58 311.393L297.29 313.705Z" fill="#FFAA9F"/>
<path d="M301.763 318.449C301.644 318.448 301.527 318.417 301.423 318.36C301.319 318.303 301.23 318.221 301.165 318.122C301.067 317.964 301.033 317.774 301.069 317.592C301.089 317.501 301.127 317.416 301.18 317.341C301.233 317.265 301.301 317.201 301.379 317.152L306.907 313.593L312.44 310.034C312.517 309.982 312.604 309.948 312.695 309.931C312.786 309.915 312.88 309.917 312.97 309.938C313.06 309.956 313.146 309.992 313.222 310.044C313.297 310.097 313.362 310.164 313.41 310.242C313.461 310.32 313.496 310.406 313.512 310.498C313.529 310.589 313.526 310.682 313.506 310.772C313.488 310.863 313.452 310.95 313.4 311.027C313.347 311.103 313.28 311.168 313.201 311.218L307.674 314.777L302.141 318.33C302.084 318.37 302.021 318.398 301.955 318.415C301.892 318.435 301.828 318.446 301.763 318.449Z" fill="#AD4D4D"/>
<path d="M304.849 322.911C304.73 322.912 304.614 322.883 304.51 322.826C304.402 322.77 304.312 322.684 304.251 322.578C304.201 322.5 304.167 322.412 304.151 322.32C304.136 322.228 304.139 322.134 304.161 322.044C304.182 321.953 304.222 321.868 304.277 321.793C304.332 321.718 304.402 321.655 304.482 321.608L310.455 317.93L316.434 314.247C316.517 314.196 316.61 314.162 316.707 314.147C316.804 314.133 316.903 314.138 316.998 314.163C317.178 314.208 317.334 314.321 317.432 314.479C317.485 314.561 317.52 314.654 317.535 314.752C317.549 314.849 317.543 314.948 317.517 315.043C317.496 315.133 317.458 315.218 317.404 315.292C317.349 315.367 317.28 315.43 317.201 315.477L311.222 319.154L305.243 322.838C305.188 322.87 305.129 322.896 305.069 322.916C304.995 322.926 304.921 322.924 304.849 322.911Z" fill="#AD4D4D"/>
<path d="M307.036 326.82C306.922 326.819 306.81 326.792 306.708 326.741C306.603 326.685 306.514 326.604 306.449 326.504C306.398 326.428 306.362 326.342 306.343 326.252C306.325 326.162 306.324 326.069 306.342 325.979C306.38 325.795 306.489 325.633 306.646 325.528L309.737 323.475L312.834 321.416C312.989 321.313 313.18 321.276 313.362 321.313C313.545 321.35 313.706 321.458 313.81 321.614C313.861 321.691 313.897 321.778 313.916 321.869C313.934 321.96 313.934 322.054 313.915 322.145C313.897 322.237 313.861 322.323 313.809 322.401C313.757 322.478 313.69 322.544 313.612 322.595L310.521 324.648L307.425 326.701C307.366 326.741 307.301 326.772 307.233 326.791C307.169 326.813 307.103 326.822 307.036 326.82Z" fill="#AD4D4D"/>
<path d="M354.753 313.705V305.922C354.77 305.528 354.91 305.149 355.154 304.839C355.402 304.513 355.76 304.288 356.162 304.206C356.563 304.124 356.981 304.191 357.337 304.393C357.73 304.6 358.035 304.943 358.194 305.358L360.535 311.449L362.881 317.558V317.597C362.881 317.597 363.112 318.161 363.372 319.064C363.692 320.139 363.909 321.242 364.02 322.358C364.1 324.48 363.812 326.6 363.169 328.624C362.34 331.23 360.805 333.853 358.053 334.969C356.834 335.453 355.519 335.646 354.212 335.533C353.545 335.486 352.885 335.366 352.243 335.178C351.759 335.03 351.299 334.811 350.879 334.529C350.422 334.236 349.869 333.824 348.927 333.187C348.893 333.187 347.173 331.997 345.063 330.536C342.954 329.075 340.466 327.321 338.91 326.12C338.702 325.979 338.512 325.812 338.346 325.623C338.101 325.352 337.918 325.03 337.81 324.681C337.732 324.422 337.7 324.151 337.714 323.88C337.72 323.721 337.742 323.562 337.782 323.407C337.875 323.053 338.044 322.723 338.278 322.442C338.415 322.278 338.572 322.132 338.746 322.008C338.571 321.884 337.911 321.444 337.116 320.823C336.258 320.184 335.435 319.499 334.651 318.77C334.457 318.599 334.28 318.41 334.121 318.206C333.923 317.928 333.785 317.611 333.715 317.276C333.686 317.14 333.669 317.002 333.664 316.864C333.658 316.54 333.733 316.219 333.882 315.931C334.032 315.643 334.252 315.398 334.522 315.217C334.722 315.075 334.94 314.962 335.17 314.879C334.952 314.628 334.771 314.347 334.634 314.044C334.359 313.455 334.295 312.79 334.454 312.16C334.584 311.65 334.858 311.188 335.244 310.829C335.447 310.637 335.675 310.472 335.92 310.338C336.423 310.087 336.986 309.985 337.545 310.045C338.125 310.104 338.679 310.314 339.152 310.654C339.269 310.427 339.407 310.212 339.564 310.011C339.971 309.498 340.512 309.108 341.126 308.883C341.38 308.791 341.643 308.727 341.91 308.691C342.285 308.637 342.664 308.637 343.038 308.691C343.427 308.755 343.807 308.869 344.167 309.03L349.418 311.376L354.753 313.705Z" fill="#FFAA9F"/>
<path d="M350.28 318.449C350.214 318.448 350.147 318.439 350.083 318.421C350.017 318.402 349.954 318.374 349.897 318.337L344.369 314.777L338.842 311.218C338.683 311.117 338.572 310.957 338.531 310.773C338.511 310.683 338.509 310.589 338.525 310.498C338.542 310.407 338.577 310.32 338.627 310.243C338.677 310.164 338.742 310.097 338.819 310.044C338.895 309.992 338.982 309.956 339.073 309.938C339.163 309.918 339.257 309.916 339.348 309.932C339.439 309.948 339.526 309.983 339.603 310.034L345.131 313.593L350.664 317.152C350.819 317.254 350.929 317.413 350.968 317.594C351.007 317.776 350.973 317.966 350.872 318.122C350.808 318.224 350.719 318.307 350.613 318.365C350.511 318.42 350.396 318.449 350.28 318.449Z" fill="#AD4D4D"/>
<path d="M347.189 322.911C347.128 322.919 347.065 322.919 347.003 322.911C346.941 322.89 346.88 322.864 346.823 322.832L340.844 319.148L334.865 315.471C334.787 315.423 334.718 315.36 334.664 315.285C334.61 315.211 334.571 315.126 334.549 315.037C334.528 314.946 334.524 314.852 334.538 314.761C334.553 314.669 334.586 314.581 334.634 314.502C334.683 314.423 334.747 314.354 334.823 314.299C334.898 314.245 334.983 314.206 335.074 314.185C335.255 314.142 335.445 314.173 335.604 314.27L341.583 317.953L347.562 321.63C347.64 321.678 347.709 321.741 347.763 321.816C347.817 321.89 347.856 321.975 347.877 322.064C347.919 322.247 347.889 322.439 347.793 322.6C347.729 322.702 347.64 322.787 347.534 322.845C347.428 322.903 347.31 322.933 347.189 322.933V322.911Z" fill="#AD4D4D"/>
<path d="M345.006 326.819C344.939 326.83 344.871 326.83 344.803 326.819C344.735 326.8 344.67 326.769 344.612 326.729L341.521 324.676L338.424 322.623C338.346 322.572 338.28 322.506 338.228 322.428C338.177 322.351 338.142 322.263 338.125 322.172C338.106 322.081 338.105 321.987 338.122 321.896C338.14 321.805 338.175 321.719 338.227 321.641C338.279 321.564 338.345 321.498 338.423 321.447C338.5 321.396 338.587 321.36 338.678 321.343C338.859 321.306 339.048 321.342 339.203 321.444L342.299 323.503L345.396 325.556C345.474 325.607 345.54 325.673 345.592 325.751C345.643 325.828 345.678 325.915 345.695 326.007C345.715 326.097 345.716 326.19 345.698 326.28C345.681 326.37 345.645 326.456 345.593 326.532C345.528 326.632 345.439 326.713 345.334 326.769C345.23 326.81 345.118 326.827 345.006 326.819Z" fill="#AD4D4D"/>
</svg>
