<svg width="473" height="563" viewBox="0 0 473 563" fill="none" xmlns="http://www.w3.org/2000/svg">
<path d="M328.43 91.6067C326.999 89.3165 323.948 88.6486 321.659 90.0799C321.468 90.1753 321.373 90.2708 321.278 90.3662L320.991 103.63V103.726L327.571 98.0001C329.383 96.3779 329.765 93.6106 328.43 91.6067Z" fill="#B9C6E4"/>
<path d="M197.878 166.514L198.355 186.363L223.435 185.027L219.43 150.102L210.085 136.074L193.682 151.915L197.878 166.514Z" fill="#B9C6E4"/>
<path d="M16.4023 329.403C16.4023 272.339 78.865 226.059 155.823 226.059C232.781 226.059 295.243 272.339 295.243 329.403C295.243 386.466 232.781 432.747 155.823 432.747V467.576C155.823 469.389 154.297 470.916 152.485 470.916C151.818 470.916 151.055 470.725 150.578 470.248L67.5169 409.272C36.2378 390.378 16.4023 361.561 16.4023 329.403Z" stroke="#B9C6E4" stroke-miterlimit="10"/>
<path d="M197.973 341.14C202.819 341.14 206.747 337.209 206.747 332.361C206.747 327.512 202.819 323.582 197.973 323.582C193.128 323.582 189.2 327.512 189.2 332.361C189.2 337.209 193.128 341.14 197.973 341.14Z" fill="#B9C6E4"/>
<path d="M155.823 341.14C160.668 341.14 164.596 337.209 164.596 332.361C164.596 327.512 160.668 323.582 155.823 323.582C150.978 323.582 147.05 327.512 147.05 332.361C147.05 337.209 150.978 341.14 155.823 341.14Z" fill="#B9C6E4"/>
<path d="M113.577 341.14C118.423 341.14 122.35 337.209 122.35 332.361C122.35 327.512 118.423 323.582 113.577 323.582C108.732 323.582 104.804 327.512 104.804 332.361C104.804 337.209 108.732 341.14 113.577 341.14Z" fill="#B9C6E4"/>
<path d="M292.383 147.907L292.097 112.886H313.649L324.615 142.277" fill="#B9C6E4"/>
<path d="M313.649 112.886H292.097L292.192 124.146C295.911 126.914 300.489 128.345 305.161 128.154C309.643 127.963 314.03 126.341 317.463 123.383L313.649 112.886Z" fill="#495894"/>
<path d="M348.647 489.142L348.17 508.036L330.432 517.865C330.432 517.865 324.234 503.742 324.329 503.551C324.425 503.36 326.427 473.493 326.427 473.493L348.647 489.142Z" fill="#B9C6E4"/>
<path d="M301.824 122.906C292.192 122.906 281.321 114.89 280.558 103.821L279.127 87.2172C278.269 77.7703 285.23 69.4684 294.671 68.6096C295.244 68.6096 295.72 68.5142 296.293 68.5142H305.543C315.556 68.5142 322.517 77.1023 321.659 87.1218L321.278 103.726C320.801 114.222 309.453 122.906 301.824 122.906Z" fill="#B9C6E4"/>
<path d="M289.999 151.819V141.227L322.136 132.066L327.762 143.517L366.48 141.323C374.395 140.845 381.738 145.044 385.457 152.01L415.782 209.646C419.215 216.135 419.788 223.769 417.213 230.735L389.844 307.074L366.956 289.134L382.596 222.528L359.041 185.885L354.655 249.342L290.094 242.567L278.937 219.57L238.598 263.751C232.876 270.717 222.577 271.767 215.616 266.041C213.899 264.61 212.469 262.797 211.42 260.793L194.636 180.446L223.626 178.919L232.686 219.665L255.096 171.286C258.624 164.606 264.727 159.548 272.07 157.354L289.999 151.819Z" fill="#61D248"/>
<path d="M289.713 241.899L281.607 264.61C277.125 277.015 275.313 290.184 276.171 303.352L289.713 510.04H333.007L328.048 459.942L322.422 296.959L347.693 379.596L327.762 457.271L329.574 475.592L357.134 499.257L390.606 395.818C393.181 387.897 393.277 379.405 390.893 371.389L354.559 249.628L289.713 241.899Z" fill="#495894"/>
<path d="M281.607 225.2L267.493 190.943" stroke="#F27932" stroke-miterlimit="10"/>
<path d="M273.215 91.7022C274.645 89.412 277.697 88.744 279.985 90.1754C280.176 90.2708 280.272 90.3662 280.367 90.4617L280.653 103.726V103.821L274.073 98.0956C272.261 96.4733 271.88 93.7061 273.215 91.7022Z" fill="#B9C6E4"/>
<path d="M325.569 273.484L322.422 299.917" stroke="white" stroke-miterlimit="10"/>
<path d="M323.185 293.428L334.247 293.714" stroke="white" stroke-miterlimit="10"/>
<path d="M279.985 96.4734L277.983 81.301C277.697 75.8619 281.034 70.8044 286.184 68.9914L294.099 66.1287L290.857 62.8843C296.865 59.9261 303.635 58.8765 310.311 59.6398C317.558 60.4987 322.899 66.7012 322.803 74.0488L321.659 93.3244L320.705 85.8814C319.37 79.488 313.553 75.0985 307.069 75.5756L292.955 76.5298C286.566 76.9115 281.416 81.8736 280.748 88.267L280.367 91.7022L279.985 96.4734Z" fill="#4B4065"/>
<path d="M368.864 290.756C368.864 290.756 363.237 307.36 362.57 309.268C362.57 309.268 366.098 310.127 370.485 302.779L382.977 344.671C385.266 342.857 386.506 339.995 386.411 337.132C386.411 331.979 385.552 317.761 385.552 317.761L389.844 307.264" fill="#B9C6E4"/>
<path d="M294.767 107.256C298.486 107.256 304.398 106.97 308.022 106.97C307.164 108.688 305.829 110.214 304.303 111.359C302.777 112.314 300.965 112.505 299.249 111.837C297.627 111.169 294.957 108.688 294.767 107.256Z" fill="white"/>
<path d="M232.113 216.612L237.072 232.452" stroke="#F27932" stroke-miterlimit="10"/>
<path d="M382.5 222.624L396.614 226.536" stroke="#F27932" stroke-miterlimit="10"/>
<path d="M271.88 227.395L268.542 193.806L278.841 219.665L271.88 227.395Z" fill="#F27932"/>
<path d="M289.999 151.819L327.667 143.613" stroke="#F27932" stroke-miterlimit="10"/>
<path d="M296.96 509.563L296.006 525.785L270.354 532.274C267.493 533.037 265.109 535.136 264.155 537.999L263.106 540.862L327.381 537.904C330.051 537.713 331.958 535.423 331.767 532.846C331.767 532.751 331.767 532.751 331.767 532.655L329.574 509.276" fill="#B9C6E4"/>
<path d="M331.768 497.253L284.277 493.722L286.661 509.944H332.912L331.768 497.253Z" fill="#495894"/>
<path d="M362.474 480.554L327.667 457.08L365.717 482.653L358.66 500.497L329.574 475.401" fill="#495894"/>
<path d="M261.199 542.675L333.77 539.24V525.976L314.602 526.071C312.123 525.021 310.12 522.922 308.404 520.918C306.687 518.914 304.78 516.72 302.3 515.574C299.821 514.429 296.579 514.334 294.671 516.242C293.909 519.105 292.955 522.35 292.192 525.308C284.468 526.93 276.171 529.029 268.351 530.747C266.349 531.129 264.632 532.369 263.488 534.087C261.867 536.568 261.39 539.717 260.436 541.816C260.245 542.198 260.436 542.579 260.818 542.77C260.913 542.675 260.913 542.675 261.199 542.675Z" fill="#4B4065"/>
<path d="M348.647 506.795L352.175 516.815L370.39 521.777C373.632 522.636 375.539 525.976 374.586 529.22C374.586 529.315 374.586 529.411 374.49 529.411L373.918 531.129H339.111C339.111 531.129 330.051 524.735 330.719 524.926L329.86 512.235L335.773 511.28L343.402 505.269C344.832 504.124 346.835 504.314 347.979 505.746C348.361 506.128 348.551 506.414 348.647 506.795Z" fill="#4B4065"/>
<path opacity="0.37" d="M155.823 432.651H126.547L155.823 448.969V432.651Z" fill="#495894"/>
<path d="M347.693 379.5L360.567 382.172" stroke="#4B4065" stroke-miterlimit="10"/>
<path d="M289.045 100.768C292.89 100.768 296.006 97.6488 296.006 93.8016C296.006 89.9545 292.89 86.8357 289.045 86.8357C285.2 86.8357 282.083 89.9545 282.083 93.8016C282.083 97.6488 285.2 100.768 289.045 100.768Z" stroke="#495894" stroke-miterlimit="10"/>
<path d="M311.837 100.768C315.681 100.768 318.798 97.6488 318.798 93.8016C318.798 89.9545 315.681 86.8357 311.837 86.8357C307.992 86.8357 304.875 89.9545 304.875 93.8016C304.875 97.6488 307.992 100.768 311.837 100.768Z" stroke="#495894" stroke-miterlimit="10"/>
<path d="M296.006 93.5153C298.677 91.6069 302.3 91.6069 305.066 93.5153" stroke="#495894" stroke-miterlimit="10"/>
<path d="M288.568 494.009L331.767 497.253" stroke="#4B4065" stroke-miterlimit="10"/>
<path d="M365.717 482.653L327.858 457.08" stroke="#4B4065" stroke-miterlimit="10"/>
<path d="M193.968 138.269L207.033 145.998C206.842 148.288 204.839 149.911 202.551 149.72C201.979 149.624 201.406 149.434 200.834 149.147L188.914 142.086L189.2 140.464C189.486 138.746 191.203 137.601 192.919 137.983C193.205 137.983 193.682 138.078 193.968 138.269Z" fill="#B9C6E4"/>
<path d="M189.2 140.941L208.368 151.819C208.177 154.873 204.553 156.399 201.693 154.777L188.246 147.048L189.2 140.941Z" fill="#B9C6E4"/>
<path d="M188.437 145.235L205.412 155.254C205.221 157.545 203.218 159.167 200.93 158.976C200.357 158.88 199.785 158.69 199.213 158.403L187.293 151.342L188.437 145.235Z" fill="#B9C6E4"/>
<path d="M187.484 150.483L202.265 159.262C202.074 161.266 200.358 162.697 198.355 162.507C197.878 162.411 197.306 162.316 196.829 162.029L186.435 155.827L187.484 150.483Z" fill="#B9C6E4"/>
<path d="M214.471 163.461L220.098 151.437C220.384 150.292 220.384 149.052 219.907 148.002L213.994 132.448L197.115 129.872C197.115 129.872 194.922 136.17 206.175 137.601L210.466 149.147L214.471 163.461Z" fill="#B9C6E4"/>
<path d="M187.483 150.483L202.265 159.262" stroke="#495894" stroke-width="0.25" stroke-miterlimit="10"/>
<path d="M188.437 145.235L206.27 155.541" stroke="#495894" stroke-width="0.25" stroke-miterlimit="10"/>
<path d="M189.295 140.464L205.889 149.72" stroke="#495894" stroke-width="0.25" stroke-miterlimit="10"/>
<path d="M295.053 94.8511C293.718 91.225 289.713 89.4119 286.184 90.7478C284.849 91.225 283.609 92.1792 282.846 93.4197C286.566 96.2824 290.952 96.2824 295.053 94.8511Z" fill="white"/>
<path d="M300.393 89.4121L297.628 100.004L300.393 101.913" stroke="#4B4065" stroke-miterlimit="10" stroke-linecap="round" stroke-linejoin="round"/>
<path d="M289.999 92.7518C289.999 91.7975 289.712 91.0341 289.236 90.2707C288.187 90.1753 287.138 90.2707 286.089 90.6524C284.754 91.1296 283.514 92.0838 282.751 93.3243C284.658 94.8511 286.852 95.6145 289.045 95.7099C289.712 94.9465 289.999 93.8968 289.999 92.7518Z" fill="#4B4065"/>
<path d="M318.131 93.5153C316.033 90.2709 311.741 89.3166 308.594 91.416C307.355 92.1793 306.401 93.3244 305.829 94.6604C310.025 96.7597 314.507 95.8054 318.131 93.5153Z" fill="white"/>
<path d="M312.886 92.5609C312.695 91.7021 312.218 90.9387 311.646 90.2708C310.597 90.3662 309.643 90.7479 308.69 91.3204C307.45 92.0838 306.496 93.2289 305.924 94.5648C308.117 95.6145 310.406 95.9008 312.599 95.6145C312.886 94.7557 313.076 93.706 312.886 92.5609Z" fill="#4B4065"/>
<path d="M293.432 85.1179C290.38 82.8277 286.279 82.9231 283.418 85.3087C286.852 85.1179 289.998 85.2133 293.432 85.1179Z" fill="#4B4065" stroke="#4B4065" stroke-linecap="round" stroke-linejoin="round"/>
<path d="M306.782 85.1179C309.834 82.8277 313.935 82.9231 316.796 85.3087C313.363 85.1179 310.216 85.2133 306.782 85.1179Z" fill="#4B4065" stroke="#4B4065" stroke-linecap="round" stroke-linejoin="round"/>
<path opacity="0.32" d="M133.317 160.121C136.56 159.262 139.707 157.926 142.568 156.209C139.707 154.396 136.56 153.06 133.317 152.201C129.98 151.342 127.405 148.766 126.547 145.426C125.688 142.181 124.449 139.032 122.637 136.17C120.825 139.032 119.49 142.181 118.727 145.426C117.869 148.766 115.294 151.342 111.956 152.201C108.714 153.06 105.567 154.396 102.706 156.113C105.567 157.926 108.714 159.262 111.956 160.026C115.294 160.884 117.869 163.461 118.727 166.801C119.585 170.045 120.92 173.194 122.637 176.057C124.449 173.194 125.784 170.045 126.642 166.801C127.5 163.556 129.98 160.98 133.317 160.121Z" fill="#61D248"/>
<path opacity="0.32" d="M443.247 366.236C446.489 365.377 449.636 364.042 452.497 362.324C449.636 360.511 446.489 359.175 443.247 358.316C439.909 357.457 437.334 354.881 436.476 351.541C435.618 348.297 434.378 345.148 432.566 342.285C430.754 345.148 429.419 348.297 428.656 351.541C427.798 354.881 425.223 357.457 421.885 358.316C418.643 359.175 415.496 360.511 412.635 362.228C415.496 364.042 418.643 365.377 421.885 366.141C425.223 367 427.798 369.576 428.656 372.916C429.514 376.16 430.85 379.309 432.566 382.172C434.378 379.309 435.713 376.16 436.571 372.916C437.43 369.671 439.909 367.095 443.247 366.236Z" fill="#61D248"/>
</svg>
