<svg width="135" height="87" viewBox="0 0 135 87" fill="none" xmlns="http://www.w3.org/2000/svg">
<path d="M108.844 32.8425C106.954 23.5863 101.799 15.2514 94.2585 9.2614C86.718 3.27138 77.26 -0.00213282 67.5 1.04257e-06C51.2437 1.04257e-06 37.125 8.9175 30.0937 21.9675C21.8263 22.8311 14.1807 26.6177 8.62587 32.5996C3.07109 38.5814 -0.000965823 46.3366 2.27772e-07 54.375C2.27772e-07 72.3731 15.1312 87 33.75 87H106.875C122.4 87 135 74.82 135 59.8125C135 45.4575 123.469 33.8212 108.844 32.8425ZM106.875 76.125H33.75C21.3187 76.125 11.25 66.3919 11.25 54.375C11.25 43.2281 19.8563 33.93 31.275 32.7881L37.2938 32.19L40.1063 27.0244C42.6931 22.1566 46.6193 18.0732 51.4526 15.2239C56.2859 12.3745 61.8388 10.8697 67.5 10.875C82.2375 10.875 94.95 20.9888 97.8187 34.9631L99.5063 43.1194L108.113 43.7175C112.341 43.9924 116.305 45.8054 119.206 48.7917C122.108 51.778 123.731 55.7157 123.75 59.8125C123.75 68.7844 116.156 76.125 106.875 76.125ZM45 48.9375H59.3438V65.25H75.6563V48.9375H90L67.5 27.1875L45 48.9375Z" fill="#001E50"/>
</svg>
