<svg width="618" height="533" viewBox="0 0 618 533" fill="none" xmlns="http://www.w3.org/2000/svg">
<path d="M350.8 199.4H310.5V214.7H350.8V199.4Z" fill="#F7C689"/>
<path d="M330.6 107.5C342.695 107.5 352.5 97.695 352.5 85.6C352.5 73.505 342.695 63.7 330.6 63.7C318.505 63.7 308.7 73.505 308.7 85.6C308.7 97.695 318.505 107.5 330.6 107.5Z" fill="#001E50"/>
<path d="M344.6 287.8H280.3L274.7 319.5C300.2 315 324.3 304.1 344.6 287.8Z" fill="#EF749B"/>
<path opacity="0.7" d="M258.4 410.2L280.2 287.8H377.1L398 410.2H258.4Z" fill="#001E50"/>
<path d="M306 286.7C306 274.5 315.9 264.6 328.1 264.6C340.3 264.6 350.2 274.5 350.2 286.7" stroke="#231F20" stroke-miterlimit="10"/>
<path d="M80 433.8L104.5 296.4H213.1L236.5 433.8H80Z" fill="#61D248"/>
<path d="M133.4 295.2C133.4 281.5 144.5 270.4 158.2 270.4C171.9 270.4 183 281.5 183 295.2" fill="white"/>
<path d="M133.4 295.2C133.4 281.5 144.5 270.4 158.2 270.4C171.9 270.4 183 281.5 183 295.2" stroke="#B9C6E4" stroke-miterlimit="10"/>
<path d="M350 434L375.1 293.7H486L510 434H350Z" fill="white" stroke="#B9C6E4" stroke-miterlimit="10"/>
<path d="M404.6 292.5C404.9 278.5 416.5 267.4 430.5 267.6C444.1 267.9 455.1 278.8 455.4 292.5" fill="white"/>
<path d="M404.6 292.5C404.9 278.5 416.5 267.4 430.5 267.6C444.1 267.9 455.1 278.8 455.4 292.5" stroke="#B9C6E4" stroke-miterlimit="10"/>
<path d="M163.7 466.1L178.9 380.7H246.4L261 466.1H163.7Z" fill="white" stroke="#001E50" stroke-miterlimit="10"/>
<path d="M196.9 379.9C196.9 371.4 203.8 364.5 212.3 364.5C220.8 364.5 227.7 371.4 227.7 379.9" stroke="#001E50" stroke-miterlimit="10"/>
<path d="M281.6 417.5C281.4 418.5 287.1 438.3 289.6 446.6C290.3 448.9 289.8 451.3 288.4 453.2L246.9 506.7L246.7 506C245 499.5 245.5 492.6 248.2 486.4L258.8 462.1L251.4 429.4" fill="#61D248"/>
<path d="M134.5 254.4L125.5 272.1L88.2996 282.9C82.7996 285 78.0996 288.7 74.8996 293.6L74.5996 294.1H142.8C147.4 293.9 151.5 291.2 153.3 287L166.7 254.4" fill="#61D248"/>
<path d="M220 68.6C222 75.6 261.8 185.2 261.8 185.2L223.9 179.9L195.5 74.8" fill="#F7C689"/>
<path d="M317.8 110.3C317.8 110.3 315.2 134.5 310.7 140.9C310.7 140.9 322.1 154.7 335.5 142.2L331.9 108" fill="#F7C689"/>
<path d="M310.7 137.4C310.7 137.4 290.9 125.9 279.1 134.7C267.3 143.5 247.8 199.2 247.8 199.2L272.2 212.2L310.7 137.4Z" fill="#001E50"/>
<path d="M310.7 207.6C310.7 207.6 328.3 219.5 350.6 207.6C350.6 207.6 369.3 257.3 353.3 274.2C324.9 304.2 255.1 297.9 255.1 297.9L283.3 418.5L250.3 433.7L204.3 300.2C199.3 285.6 206.7 269.7 221.2 264.2L293.5 236.8L310.7 207.6Z" fill="#001E50"/>
<path d="M310.7 219.9C313.5 217.8 250.1 156.4 225.9 133.1C220.1 127.5 212.1 124.9 204.1 125.9C195.2 127.1 187.4 132.7 183.5 140.8L128 257.3H168.9L208.9 182.5L265.4 257.3H310.6L310.7 219.9Z" fill="#001E50"/>
<path d="M257.7 33.2C259.9 38.8 266.1 41.8 271.9 40C278 38.1 284.5 41.6 286.4 47.7C287.3 50.8 287 54.1 285.4 56.8C282.4 62 283.9 68.7 288.9 72.1C294.2 75.7 295.5 82.9 291.9 88.2C290.1 90.8 287.3 92.6 284.1 93.1C278.1 94 273.9 99.4 274.3 105.4C274.8 111.8 270 117.3 263.6 117.8C260.4 118 257.2 116.9 254.9 114.7C250.5 110.6 243.6 110.6 239.2 114.7C234.5 119 227.2 118.8 222.8 114.1C220.6 111.7 219.5 108.6 219.7 105.4C220.1 99.4 215.9 94 209.9 93.1C203.6 92.1 199.2 86.2 200.2 79.9C200.7 76.7 202.5 73.9 205.1 72.1C210.1 68.7 211.6 62 208.6 56.8C205.4 51.2 207.4 44.2 212.9 41C215.7 39.4 218.9 39.1 222 40C227.8 41.8 234 38.8 236.2 33.2C238.5 27.2 245.3 24.3 251.2 26.6C254.1 27.8 256.5 30.2 257.7 33.2Z" fill="#61D248"/>
<path d="M198.6 86.1L194.4 70.3C193.5 66.8 193.5 63 194.3 59.5C194.7 57.6 196.4 56.3 198.3 56.3H199.9L199.4 53.7C199.2 52.8 199.4 51.8 199.9 50.9C200.6 49.7 201.9 49 203.3 49H203.6L203.4 48C203.2 46.6 203.7 45.2 204.8 44.3C205.8 43.5 207.1 43.2 208.3 43.5L210.3 44L231 51.5C231 51.5 229 56.8 224.5 55.9C224.5 55.9 223.3 60.6 219.4 60.4C215.5 60.2 215 59.5 215 59.5L219.4 61.5C219.4 61.5 218.4 66.2 215.4 65.6C212.4 65 205.3 62.8 205.3 62.8L211.2 64.5" fill="#F7C689"/>
<path d="M310.7 135.9C310.7 135.9 293.1 159.1 294.4 167.4C295.7 175.7 309.5 181.6 309.5 181.6L310.7 202.6C310.7 202.6 326.4 215.8 350.6 202.6L357.4 162.2C357.4 162.2 346.5 154 335.6 137.1C335.6 137.1 319 145.4 310.7 135.9Z" fill="#001E50"/>
<path d="M332.9 117L332 108L317.8 110.2C317.8 110.2 317.5 113.1 316.9 117.1C317.7 118.7 318.9 120 320.4 120.9C323 122.3 326.2 121.8 328.7 120.3C330.3 119.4 331.7 118.3 332.9 117Z" fill="#F27932"/>
<path d="M320.9 75.1C310.2 82.9 309.1 92.7 309.5 101.8C309.9 110.9 319.1 116.3 323.5 115.7C327.9 115.1 342.8 108.8 343 89.9C343.2 71 326.8 70.8 320.9 75.1Z" fill="#F7C689"/>
<path d="M341.2 94.5C342.3 92.9 344.2 92 346.1 92C348.1 92.1 349.8 93.2 350.7 95C351.4 96.8 351 98.9 349.7 100.3C347.2 103.1 342.7 102.3 341.8 102.1C340.8 101.9 340.1 101.2 339.7 100.3" fill="#F7C689"/>
<path d="M153.6 294H73.7998V296.4H153.6V294Z" fill="#F27932"/>
<path d="M103.3 294C103.2 287 100.2 281.3 95 276.6L100.4 275.7C105.6 280.4 108.6 287 108.7 293.9" stroke="white" stroke-miterlimit="10"/>
<path d="M259.7 249.7L310.8 230.5" stroke="#4B4065" stroke-miterlimit="10"/>
<path d="M308.1 213.4L293.5 236.9" stroke="#4B4065" stroke-miterlimit="10"/>
<path d="M323.3 181.4C330.8 187 341.5 185.5 347.1 178C348.4 176.3 349.3 174.3 349.9 172.2" stroke="#4B4065" stroke-miterlimit="10"/>
<path d="M345.2 87.6C336.7 86.8 329 79.8 325.8 72C337.6 71 344.6 78.3 345.2 87.6Z" fill="#001E50"/>
<path d="M132 259.1L162.4 264.9L165.6 257.3H132.9L132 259.1Z" fill="#4B4065"/>
<path d="M128 266.5L160 273L156.8 281.8L124.1 271.4L128 266.5Z" stroke="white" stroke-miterlimit="10"/>
<path d="M141.4 293.5L145.9 278.3L152 280.2V293.5H141.4Z" stroke="white" stroke-miterlimit="10"/>
<path d="M224.5 55.9L207.5 50.1" stroke="#F27932" stroke-width="0.75" stroke-miterlimit="10"/>
<path d="M218 60.5L204.1 55.8" stroke="#F27932" stroke-width="0.75" stroke-miterlimit="10"/>
<path d="M214.4 65.7L203.2 61.9" stroke="#F27932" stroke-width="0.75" stroke-miterlimit="10"/>
<path d="M387.2 106.2H611.8C602 93.2 590.3 82.2 574.5 78.6C570.1 77.6 565.5 77 561.1 78.1C556.7 79.2 552.7 82.4 551.6 86.8C534.7 61.2 505.8 44 475.7 38.8C467.1 37.3 457.8 36.9 450 40.7C442.3 44.6 437 52 435.9 60.5C434.9 69 438.2 77.5 444.7 83.2C440.7 73.9 426.6 69.6 419.3 76.7C414.3 81.6 413.1 89.1 409.4 95C404.7 102.3 395.8 106.2 387.2 106.2Z" stroke="#001E50" stroke-miterlimit="10"/>
<path d="M468.9 318.5H390.5V365H468.9V318.5Z" fill="#001E50"/>
<path d="M175.7 367.3C177.5 366.8 179.3 366.1 180.9 365.1C179.3 364.1 177.5 363.3 175.7 362.9C173.8 362.4 172.4 360.9 171.9 359.1C171.4 357.2 170.7 355.5 169.7 353.9C168.7 355.5 167.9 357.3 167.5 359.1C167 361 165.5 362.4 163.7 362.9C161.8 363.4 160.1 364.1 158.5 365.1C160.1 366.1 161.9 366.9 163.7 367.3C165.6 367.8 167 369.3 167.5 371.2C168 373 168.7 374.8 169.7 376.4C170.7 374.8 171.5 373 171.9 371.2C172.3 369.3 173.8 367.8 175.7 367.3Z" fill="white"/>
<path d="M534.5 282.5C537.9 281.6 541.2 280.2 544.2 278.4C541.2 276.5 537.9 275.1 534.5 274.3C531 273.4 528.3 270.7 527.4 267.2C526.5 263.8 525.1 260.5 523.3 257.5C521.4 260.5 520 263.8 519.2 267.2C518.3 270.7 515.6 273.4 512.1 274.3C508.7 275.2 505.4 276.6 502.4 278.4C505.4 280.3 508.7 281.7 512.1 282.5C515.6 283.4 518.3 286.1 519.2 289.6C520.1 293 521.5 296.3 523.3 299.3C525.2 296.3 526.6 293 527.4 289.6C528.3 286.1 531 283.4 534.5 282.5Z" fill="#001E50"/>
<path d="M75.3998 197.6L76.5998 171.6L54.7998 185.5L48.2998 174.4L71.2998 162.6L48.2998 150.8L54.7998 139.7L76.5998 153.9L75.3998 127.9H88.1998L86.9998 153.9L108.9 139.6L115.4 150.7L92.1998 162.5L115.4 174.3L108.9 185.5L87.0998 171.6L88.2998 197.6H75.3998Z" stroke="#001E50" stroke-miterlimit="10"/>
<path d="M243.6 92.1H237.3L250.1 55.4H256.5L243.6 92.1Z" fill="white"/>
<path d="M232.8 56.6C228.5 56.6 225 60.1 225 64.4C225 68.7 228.5 72.2 232.8 72.2C237.1 72.2 240.6 68.7 240.6 64.4C240.6 60.1 237.1 56.6 232.8 56.6ZM232.8 67.5C231.1 67.5 229.7 66.1 229.7 64.4C229.7 62.7 231.1 61.3 232.8 61.3C234.5 61.3 235.9 62.7 235.9 64.4C236 66.1 234.5 67.5 232.8 67.5Z" fill="white"/>
<path d="M261 76.6C256.7 76.6 253.2 80.1 253.2 84.4C253.2 88.7 256.7 92.2 261 92.2C265.3 92.2 268.8 88.7 268.8 84.4C268.7 80 265.2 76.6 261 76.6ZM261 87.5C259.3 87.5 257.9 86.1 257.9 84.4C257.9 82.7 259.3 81.3 261 81.3C262.7 81.3 264.1 82.7 264.1 84.4C264.1 86.1 262.7 87.5 261 87.5Z" fill="white"/>
<path d="M295.217 446.579L246.854 510.179L248.764 511.632L297.127 448.032L295.217 446.579Z" fill="#F27932"/>
<path d="M264.7 486.7C259.1 482.5 252.7 481.5 245.9 482.8L248.5 478C255.3 476.7 262.4 478.3 268 482.4" stroke="white" stroke-miterlimit="10"/>
<path d="M252.6 434.7L283.6 425.8L281.9 419.2L252.2 432.9L252.6 434.7Z" fill="#4B4065"/>
<path d="M256.1 450.3L284 427.2L287.3 436.7L257.7 456.4L256.1 450.3Z" stroke="white" stroke-miterlimit="10"/>
<path d="M287.3 456L278 443.2L283.1 439.5L293.8 447.6L287.3 456Z" stroke="white" stroke-miterlimit="10"/>
<path d="M142.1 392.3C143.48 392.3 144.6 391.181 144.6 389.8C144.6 388.419 143.48 387.3 142.1 387.3C140.719 387.3 139.6 388.419 139.6 389.8C139.6 391.181 140.719 392.3 142.1 392.3Z" fill="white"/>
<path d="M506.1 312.1C508.199 312.1 509.9 310.399 509.9 308.3C509.9 306.201 508.199 304.5 506.1 304.5C504.001 304.5 502.3 306.201 502.3 308.3C502.3 310.399 504.001 312.1 506.1 312.1Z" fill="#001E50"/>
<path d="M249.5 236.2L293.5 236.9L259.7 249.7L249.5 236.2Z" fill="#4B4065"/>
<path d="M436.6 379.9H304.3V456.3H436.6V379.9Z" fill="#61D248"/>
<path d="M439.5 376.4H300.8V392.2H439.5V376.4Z" fill="#61D248"/>
<path opacity="0.37" d="M304.3 395.6L436.6 400.6V392.2H304.3V395.6Z" fill="#F27932"/>
<path d="M382.8 392.2C382.8 399.2 377.2 404.8 370.2 404.8C363.3 404.8 357.6 399.2 357.6 392.2" fill="white"/>
<path d="M138 368.4H50V444.8H138V368.4Z" fill="#61D248"/>
<path opacity="0.37" d="M50 384L138 389.1V380.7H50V384Z" fill="#F27932"/>
<path d="M107 380.7C107 387.7 101.4 393.3 94.3998 393.3C87.3998 393.3 81.7998 387.7 81.7998 380.7" fill="white"/>
<path d="M140.9 364.9H46.4004V380.7H140.9V364.9Z" fill="white" stroke="#F7C689" stroke-miterlimit="10"/>
<path d="M120.7 417.1H68.0996V426H120.7V417.1Z" fill="white"/>
<path d="M146.1 296.4L102.2 308.9L104.5 296.4H146.1Z" fill="#4B4065"/>
<path d="M445.5 201.7C445 189.4 456.1 177.9 468.4 178C480.7 178.1 491.6 189.8 490.9 202.1C490.5 208.8 485.6 216 478.9 215.6C472.4 215.2 468.5 207.7 468.4 201.2C468.2 185.8 484.5 172.6 499.5 175.8" stroke="#4B4065" stroke-miterlimit="10"/>
<path d="M323.2 89.2L318.8 95.7L320.6 97.2" stroke="#F27932" stroke-miterlimit="10" stroke-linecap="round" stroke-linejoin="round"/>
<path d="M343 217.2C343 217.2 339.3 234.3 357.1 243" stroke="#4B4065" stroke-miterlimit="10" stroke-linecap="round" stroke-linejoin="round"/>
<path d="M345 72.9C353.174 72.9 359.8 66.2738 359.8 58.1C359.8 49.9262 353.174 43.3 345 43.3C336.826 43.3 330.2 49.9262 330.2 58.1C330.2 66.2738 336.826 72.9 345 72.9Z" fill="#001E50"/>
<path d="M318.8 103.1C318.8 103.1 323 104.9 327.3 101.7" stroke="#001E50" stroke-miterlimit="10" stroke-linecap="round" stroke-linejoin="round"/>
<path d="M340.8 142.7H309V125.8C309 124.8 309.8 124 310.8 124H339C340 124 340.8 124.8 340.8 125.8V142.7Z" fill="#001E50"/>
<path d="M367.9 240.1C367.9 240.1 367.7 282 372.9 291.6C377.7 300.6 406 295.8 408.6 296.4C411.3 296.9 423.9 301.7 427.9 299.3C430.8 297.6 413.8 288.9 404.7 284.4C401.9 283 393.4 284.4 390.5 278.4C385.2 267.3 391.6 233 391.6 233" fill="#F7C689"/>
<path d="M357.1 162.3C358 164.7 357.6 168.2 357.8 170.7C358.3 178.7 359 186.7 359.7 194.7C361.3 212.6 363.1 230.5 364.3 248.4C365 258.5 399.8 249.8 399.5 241.6C398.9 224.7 388.6 207.7 388.6 190.8C388.6 177.3 388.7 163.7 389 150.1C389.2 140.6 387.2 119.7 366.1 119.8C360.6 119.8 356 123.9 351.2 126.7C348 128.6 335.6 137.1 335.6 137.1C338.6 142.3 342.2 147.1 346.2 151.6C352.4 158.3 357 161.8 357.1 162.3Z" fill="#001E50"/>
<path d="M355.7 149.9L358.6 181.2" stroke="#4B4065" stroke-miterlimit="10"/>
<path d="M387 287.8C387 287.8 393.5 291.9 401.1 291.6C408.7 291.3 408.2 296.3 406.6 296.4" stroke="#F27932" stroke-width="0.75" stroke-miterlimit="10"/>
<path d="M406.1 289L426.1 300" stroke="#F27932" stroke-width="0.75" stroke-miterlimit="10"/>
<path d="M334.9 84.3C333.9 83 332.5 82.1 330.9 81.8C329.3 81.5 327.6 81.9 326.1 82.9C329.3 83.4 331.8 83.8 334.9 84.3Z" fill="#001E50"/>
<path d="M326.1 83.2C325.9 83.1 325.7 83 325.8 82.8C325.8 82.7 325.9 82.6 326 82.5C327.4 81.5 329.3 81.1 331 81.4C332.7 81.7 334.2 82.7 335.3 84.1C335.4 84.3 335.4 84.4 335.2 84.6C335.1 84.7 335 84.7 334.9 84.7C333.3 84.5 331.9 84.2 330.5 84C329.1 83.8 327.6 83.4 326.1 83.2ZM331 82.2L330.7 82.1C329.5 81.9 328.2 82.1 327 82.7L330.4 83.3L333.9 83.9C333.3 83 332.2 82.4 331 82.2Z" fill="#001E50"/>
<path d="M318.6 83C317.6 81.7 316.2 80.8 314.6 80.5C313 80.2 311.3 80.6 309.8 81.6C312.9 82 315.5 82.5 318.6 83Z" fill="#001E50"/>
<path d="M309.7 81.9C309.5 81.8 309.3 81.7 309.4 81.5C309.4 81.4 309.5 81.3 309.6 81.2C311 80.2 312.9 79.8 314.6 80.1C316.3 80.4 317.8 81.4 318.9 82.8C319 83 319 83.1 318.8 83.3C318.7 83.4 318.6 83.4 318.5 83.4C316.9 83.2 315.5 82.9 314.1 82.7C312.7 82.5 311.3 82.1 309.7 81.9ZM314.6 80.9L314.3 80.8C313.1 80.6 311.8 80.8 310.6 81.4L314 82L317.5 82.6C316.9 81.6 315.9 81.1 314.6 80.9Z" fill="#001E50"/>
<path d="M323.799 91.2C323.699 91.2 323.599 91.2 323.499 91.1C321.699 89.6 320.399 90.9 320.299 91C320.099 91.2 319.799 91.2 319.599 91.1C319.399 91 319.399 90.6 319.499 90.4C320.199 89.6 321.999 88.6 324.099 90.3C324.299 90.5 324.299 90.8 324.199 91C324.099 91.1 323.899 91.2 323.799 91.2Z" fill="#001E50"/>
<path d="M329 97.3C325.5 96.9 322.9 93.6 323.4 90.1L323.7 87.8C323.9 86.3 325.2 85.3 326.7 85.5L334.2 86.4C335.7 86.6 336.7 87.9 336.5 89.4L336.2 91.7C335.8 95.2 332.6 97.7 329 97.3Z" fill="#001E50"/>
<path d="M313.5 95.9C310 95.5 307.4 92.2 307.9 88.7L308.2 86.4C308.4 84.9 309.7 83.9 311.2 84.1L318.7 85C320.2 85.2 321.2 86.5 321 88L320.7 90.3C320.3 93.9 317 96.4 313.5 95.9Z" fill="#001E50"/>
<path d="M342.3 97.9C342.6 97.8 344.4 94.8 348.7 96" stroke="#F27932" stroke-miterlimit="10" stroke-linecap="round" stroke-linejoin="round"/>
</svg>
