<svg width="556" height="491" viewBox="0 0 556 491" fill="none" xmlns="http://www.w3.org/2000/svg">
<path opacity="0.32" d="M90.8998 155.5C94.2998 154.6 97.5998 153.2 100.6 151.4C97.5998 149.5 94.2998 148.1 90.8998 147.2C87.3998 146.3 84.6998 143.6 83.7998 140.1C82.8998 136.7 81.5998 133.4 79.6998 130.4C77.7998 133.4 76.3998 136.7 75.5998 140.1C74.6998 143.6 71.9998 146.3 68.4998 147.2C65.0998 148.1 61.7998 149.5 58.7998 151.3C61.7998 153.2 65.0998 154.6 68.4998 155.4C71.9998 156.3 74.6998 159 75.5998 162.5C76.4998 165.9 77.8998 169.2 79.6998 172.2C81.5998 169.2 82.9998 165.9 83.8998 162.5C84.7998 159.1 87.3998 156.4 90.8998 155.5Z" fill="#61D248"/>
<path opacity="0.32" d="M96.3001 191C99.172 191 101.5 188.672 101.5 185.8C101.5 182.928 99.172 180.6 96.3001 180.6C93.4282 180.6 91.1001 182.928 91.1001 185.8C91.1001 188.672 93.4282 191 96.3001 191Z" fill="#61D248"/>
<path d="M204 195.2C209.1 209.2 210.8 230.1 209.8 245C208.6 263 202.7 280.8 191.3 294.9C175.7 314.1 149 324.9 125.2 318.2C101.4 311.5 83.4998 285.5 89.2998 261.4C92.2998 249 100.4 238.6 108.4 228.6C124.7 208.2 144.3 168.1 175.2 172.1C188.3 174 199.3 182.8 204 195.2Z" fill="#001E50"/>
<path d="M186.1 277.6L182.1 235.4L172 235.2V235.4H162.1L157.2 277.5L172.3 278.1V277.9L186.1 277.6Z" fill="#FBD7AD"/>
<path d="M182.1 235.4L172 235.2V235.4H162.1L161.4 241.7C164.7 245.8 169.6 248.1 174.8 248.1H176.7C178.9 248.1 181.1 247.7 183.2 246.8L182.1 235.4Z" fill="#F27932"/>
<path d="M166.8 189.6C150 189.5 151.5 211 151.5 211C151.5 219.1 151.6 227.8 156.9 233.8C159.6 236.9 165.7 242.5 171.5 242.5H173.4C179.1 242.5 183.6 237.8 185.9 235.1C191.2 229 192.4 219.4 192.4 211.4C192.4 211.4 191.3 188 176.2 189.5L166.8 189.6Z" fill="#FBD7AD"/>
<path d="M236.8 294.7C235.3 283.6 227.7 274.3 217.2 270.4L185.9 259H157.3L126.2 270.4C115.7 274.2 108.2 283.6 106.6 294.6L90.3998 351C87.6998 360.3 92.1998 370.3 101 374.4L165 404.1H172.5L236 376C244.3 372.3 249 363.5 247.4 354.6L236.8 294.7Z" fill="#61D248"/>
<path d="M121 322.8H222.4C228.5 322.8 233.5 327.8 233.5 333.9V407.8H109.9V333.9C109.9 327.8 114.8 322.8 121 322.8Z" fill="white"/>
<path d="M292.1 351.6C285.2 345.9 275.6 345.1 267.9 349.6L156.5 414.6C156.3 423.6 156.9 432.7 158.5 441.6L247.6 420.2C269.9 414.8 288.4 399.2 297.4 378.1L298.2 376.2C301.8 367.6 299.4 357.6 292.1 351.6Z" fill="#495894"/>
<path opacity="0.38" d="M278 404.6L228.1 412.9L223.5 411.1C219.7 409.6 215.5 409.3 211.5 410.1L203.5 411.7L179.9 400.9L167.8 408L179.5 424.1L206.3 430.1L247.6 420.2C258.8 417.5 269.3 412.2 278 404.6Z" fill="#001E50"/>
<path d="M158.4 441.6C156.8 432.7 156.2 423.6 156.4 414.6L145.5 420.9L137.4 418.2C133.7 417 129.7 417.2 126.2 418.9L121.9 420.9L72.9998 412.9C68.9998 412.3 65.1998 415 64.4998 419.1C64.2998 420.6 64.4998 422.1 65.0998 423.5L73.2998 440.9C74.4998 443.5 77.0998 445.1 79.9998 445.1H143.9L158.4 441.6Z" fill="#FBD7AD"/>
<path d="M73.2 412.9L122.1 420.9L126.4 418.9C129.9 417.3 133.9 417 137.6 418.2L143.7 420.2L137.9 445.1H80.2C77.3 445.1 74.7 443.4 73.5 440.9L65.3 423.4C63.6 419.7 65.2 415.3 68.9 413.5C70.2 412.9 71.7 412.7 73.2 412.9Z" fill="#001E50"/>
<path d="M133.8 427.8C137 427.8 137 422.8 133.8 422.8C130.6 422.8 130.6 427.8 133.8 427.8Z" fill="white"/>
<path d="M121.5 438.4C124.7 438.4 124.7 433.4 121.5 433.4C118.3 433.4 118.3 438.4 121.5 438.4Z" fill="white"/>
<path d="M101.6 430.7C104.8 430.7 104.8 425.7 101.6 425.7C98.3998 425.7 98.2998 430.7 101.6 430.7Z" fill="white"/>
<path d="M102.4 420.5C105.6 420.5 105.6 415.5 102.4 415.5C99.2 415.5 99.2 420.5 102.4 420.5Z" fill="white"/>
<path d="M115.1 427.3C118.3 427.3 118.3 422.3 115.1 422.3C111.9 422.3 111.9 427.3 115.1 427.3Z" fill="white"/>
<path d="M92.1998 439.6C95.3998 439.6 95.3998 434.6 92.1998 434.6C88.9998 434.6 88.9998 439.6 92.1998 439.6Z" fill="white"/>
<path d="M107.9 444.7C111.1 444.7 111.1 439.7 107.9 439.7C104.7 439.7 104.7 444.7 107.9 444.7Z" fill="white"/>
<path d="M74.0001 444.3C77.2001 444.3 77.2001 439.3 74.0001 439.3C70.8001 439.3 70.8001 444.3 74.0001 444.3Z" fill="white"/>
<path d="M73.6002 428.2C76.8002 428.2 76.8002 423.2 73.6002 423.2C70.4002 423.2 70.4002 428.2 73.6002 428.2Z" fill="white"/>
<path d="M83.7999 427.8C86.9999 427.8 86.9999 422.8 83.7999 422.8C80.5999 422.8 80.4999 427.8 83.7999 427.8Z" fill="white"/>
<path d="M75.2999 416.3C78.4999 416.3 78.4999 411.3 75.2999 411.3C72.0999 411.3 72.0999 416.3 75.2999 416.3Z" fill="white"/>
<path d="M187.2 441.6C188.8 432.7 189.5 423.6 189.2 414.6L200.1 420.9L208.2 418.2C211.9 417 215.9 417.2 219.4 418.9L223.7 420.9L272.6 412.9C276.6 412.2 280.5 415 281.1 419C281.3 420.5 281.1 422 280.5 423.3L272.3 440.7C271.1 443.3 268.5 444.9 265.6 444.9H201.9L187.2 441.6Z" fill="#FBD7AD"/>
<path opacity="0.27" d="M193.2 416.9L197.3 444L187.2 441.6L189.3 414.6L193.2 416.9Z" fill="#F27932"/>
<path d="M53.6 351.6C60.5 345.9 70.1 345.1 77.8 349.6L189.2 414.6C189.4 423.6 188.8 432.7 187.2 441.6L98.1 420.2C75.8 414.8 57.3 399.2 48.3 378.1L47.5 376.2C43.9 367.6 46.4 357.6 53.6 351.6Z" fill="#495894"/>
<path d="M192.3 211.5C192.8 209.1 195.1 207.6 197.4 208.1C198.1 208.2 198.7 208.5 199.3 209C201.2 210.5 201.4 213.3 200.8 215.6C199.9 218.8 197.6 221.4 194.6 222.8C193.8 223.2 192.9 223.4 192 223.3C191.1 223.2 190.3 222.7 189.9 221.9" fill="#FBD7AD"/>
<path d="M151.8 211.5C151.3 209.1 149 207.6 146.7 208.1C146 208.2 145.4 208.5 144.8 209C143 210.5 142.7 213.3 143.3 215.6C144.2 218.8 146.5 221.4 149.5 222.8C150.3 223.2 151.2 223.4 152.1 223.3C153 223.2 153.8 222.7 154.2 221.9" fill="#FBD7AD"/>
<path d="M171.7 371C176.726 371 180.8 366.926 180.8 361.9C180.8 356.874 176.726 352.8 171.7 352.8C166.674 352.8 162.6 356.874 162.6 361.9C162.6 366.926 166.674 371 171.7 371Z" fill="white" stroke="#61D248" stroke-miterlimit="10"/>
<path d="M124.8 174.3C122.9 177 121.1 180 120.6 183.3C120.1 186.6 121 190.3 123.7 192.3C127.5 195.2 133.1 193.5 136.9 190.6C142.2 186.4 148.7 175.5 144.3 168.7C138.8 160.2 128.6 168.9 124.8 174.3Z" fill="#001E50"/>
<path d="M209.5 174.3C211.4 177 213.2 180 213.7 183.3C214.2 186.6 213.3 190.3 210.6 192.3C206.8 195.2 201.2 193.5 197.4 190.6C192.1 186.4 185.6 175.5 190 168.7C195.5 160.2 205.7 168.9 209.5 174.3Z" fill="#001E50"/>
<path d="M201.1 205C191.9 207 180.5 210.9 173.5 204.5C167.5 199 163.5 191.6 162.4 183.6C178 182.2 193.4 191.4 201.1 205Z" fill="#001E50"/>
<path d="M166.2 224.6C169.7 226.7 174.2 226.5 177.6 224.2C178.1 223.8 177.6 223 177.1 223.3C174 225.5 170 225.6 166.8 223.7C166.6 223.6 166.3 223.6 166.1 223.9C165.9 224.2 166 224.5 166.2 224.6Z" fill="#001E50"/>
<path d="M166.9 214.5C165.1 212.6 162.7 211.4 160.1 211C157.4 210.5 155.6 210.5 153.2 211.5C154 213.9 155 215.9 158.6 216.2C161.5 216.5 164.4 215.9 166.9 214.5Z" fill="white"/>
<path d="M153.3 211.5C157.9 209.7 163.2 210.9 166.6 214.6" stroke="#001E50" stroke-miterlimit="10"/>
<path d="M164.6 207.1C161.3 204.9 157 205.2 154.1 207.9C157.7 207.5 161 207.4 164.6 207.1Z" fill="#001E50" stroke="#001E50" stroke-linecap="round" stroke-linejoin="round"/>
<path d="M177.1 214.4C178.9 212.5 181.3 211.3 183.8 210.9C186.5 210.4 188.3 210.4 190.7 211.4C190.4 213.8 188.9 215.8 185.3 216.1C182.5 216.4 179.6 215.8 177.1 214.4Z" fill="white"/>
<path d="M190.7 211.4C186.1 209.6 180.8 210.8 177.4 214.4" stroke="#001E50" stroke-miterlimit="10"/>
<path d="M172.2 213.7C173.6 214 174.5 215.3 174.2 216.7C174 217.5 173.5 218.2 172.8 218.5" stroke="#001E50" stroke-miterlimit="10" stroke-linecap="round" stroke-linejoin="round"/>
<path opacity="0.21" d="M158.7 228.4C161.738 228.4 164.2 225.938 164.2 222.9C164.2 219.862 161.738 217.4 158.7 217.4C155.663 217.4 153.2 219.862 153.2 222.9C153.2 225.938 155.663 228.4 158.7 228.4Z" fill="#001E50"/>
<path opacity="0.21" d="M185.3 228.4C188.337 228.4 190.8 225.938 190.8 222.9C190.8 219.862 188.337 217.4 185.3 217.4C182.262 217.4 179.8 219.862 179.8 222.9C179.8 225.938 182.262 228.4 185.3 228.4Z" fill="#001E50"/>
<path d="M189.2 214.6C187.3 212.2 183.8 211.8 181.5 213.7C180.9 214.2 180.3 214.8 180 215.6C181.7 216.1 183.4 216.3 185.1 216.2L186.9 215.9C187.7 215.7 188.5 215.2 189.2 214.6Z" fill="#001E50"/>
<path d="M155.3 214.8C157.2 212.4 160.7 212 163 213.9C163.6 214.4 164.2 215 164.5 215.8C162.8 216.3 161.1 216.5 159.4 216.4C158.2 216.3 155.8 215.7 155.3 214.8Z" fill="#001E50"/>
<path d="M226 274.4V67.4C226 57.8 233.8 50 243.4 50H479.7C489.3 50 497.1 57.8 497.1 67.4V213.2C497.1 222.8 489.3 230.6 479.7 230.6H278.4L232.1 276.9C230.7 278.3 228.5 278.3 227.1 276.9C226.4 276.3 226 275.3 226 274.4Z" fill="white" stroke="#61D248" stroke-miterlimit="10"/>
<path d="M355.611 88.6318H458.811" stroke="#61D248" stroke-width="4" stroke-miterlimit="10"/>
<path d="M355.611 163.632H458.811" stroke="#61D248" stroke-width="4" stroke-miterlimit="10"/>
<path d="M355.611 104.232H458.811" stroke="#61D248" stroke-width="4" stroke-miterlimit="10"/>
<path d="M355.611 179.232H458.811" stroke="#61D248" stroke-width="4" stroke-miterlimit="10"/>
<path d="M355.611 119.932H410.711" stroke="#61D248" stroke-width="4" stroke-miterlimit="10"/>
<path d="M355.611 194.932H410.711" stroke="#61D248" stroke-width="4" stroke-miterlimit="10"/>
<path opacity="0.45" d="M337.874 109.579C340.687 92.2426 328.915 75.9081 311.579 73.0946C294.242 70.281 277.908 82.0539 275.094 99.39C272.281 116.726 284.054 133.061 301.39 135.874C318.726 138.688 335.06 126.915 337.874 109.579Z" fill="#61D248"/>
<path opacity="0.45" d="M337.874 184.579C340.687 167.243 328.915 150.908 311.579 148.095C294.242 145.281 277.908 157.054 275.094 174.39C272.281 191.726 284.054 208.061 301.39 210.874C318.726 213.688 335.06 201.915 337.874 184.579Z" fill="#61D248"/>
<path opacity="0.22" d="M109.9 356.5L171.7 399.8L233.5 356.5L233.4 376.6L171.7 411.6L109.3 373.1L109.9 356.5Z" fill="#495894"/>
<path d="M272.5 412.9L223.6 420.8L219.3 418.8C215.8 417.2 211.8 416.9 208.1 418.1L202 420.2L207.8 445H265.5C268.4 445 271 443.3 272.2 440.8L280.4 423.4C282.1 419.7 280.5 415.3 276.8 413.5C275.6 412.9 274.1 412.7 272.5 412.9Z" fill="#001E50"/>
<path d="M211.9 427.8C215.1 427.8 215.1 422.8 211.9 422.8C208.7 422.8 208.7 427.8 211.9 427.8Z" fill="white"/>
<path d="M224.2 438.4C227.4 438.4 227.4 433.4 224.2 433.4C221 433.4 221 438.4 224.2 438.4Z" fill="white"/>
<path d="M244.1 430.7C247.3 430.7 247.3 425.7 244.1 425.7C240.9 425.7 240.9 430.7 244.1 430.7Z" fill="white"/>
<path d="M243.3 420.5C246.5 420.5 246.5 415.5 243.3 415.5C240.1 415.5 240.1 420.5 243.3 420.5Z" fill="white"/>
<path d="M230.6 427.3C233.8 427.3 233.8 422.3 230.6 422.3C227.4 422.3 227.4 427.3 230.6 427.3Z" fill="white"/>
<path d="M253.5 439.6C256.7 439.6 256.7 434.6 253.5 434.6C250.3 434.6 250.3 439.6 253.5 439.6Z" fill="white"/>
<path d="M237.8 444.7C241 444.7 241 439.7 237.8 439.7C234.6 439.7 234.6 444.7 237.8 444.7Z" fill="white"/>
<path d="M271.7 444.3C274.9 444.3 274.9 439.3 271.7 439.3C268.5 439.3 268.5 444.3 271.7 444.3Z" fill="white"/>
<path d="M272.1 428.2C275.3 428.2 275.3 423.2 272.1 423.2C268.9 423.2 268.9 428.2 272.1 428.2Z" fill="white"/>
<path d="M262 427.8C265.2 427.8 265.2 422.8 262 422.8C258.8 422.8 258.7 427.8 262 427.8Z" fill="white"/>
<path d="M270.4 416.3C273.6 416.3 273.6 411.3 270.4 411.3C267.2 411.3 267.2 416.3 270.4 416.3Z" fill="white"/>
</svg>
