<svg width="20" height="19" viewBox="0 0 20 19" fill="none" xmlns="http://www.w3.org/2000/svg">
<path d="M4.54016 19V6.18073H0.252944V19H4.54016ZM2.3971 4.42943C3.89213 4.42943 4.82271 3.44506 4.82271 2.21492C4.79486 0.957048 3.89219 0 2.42548 0C0.958991 0 0 0.957067 0 2.21492C0 3.44511 0.930353 4.42943 2.36912 4.42943H2.39697H2.3971ZM6.91312 19H11.2003V11.8411C11.2003 11.458 11.2282 11.0752 11.3414 10.8013C11.6513 10.0358 12.3567 9.24302 13.5411 9.24302C15.0924 9.24302 15.7131 10.4186 15.7131 12.1419V18.9999H20V11.6495C20 7.71188 17.8849 5.87977 15.0642 5.87977C12.7514 5.87977 11.7359 7.16459 11.1718 8.03967H11.2004V6.18047H6.91321C6.96948 7.38335 6.91321 18.9997 6.91321 18.9997L6.91312 19Z" fill="white" fill-opacity="0.5"/>
</svg>
