<svg width="20" height="20" viewBox="0 0 20 20" fill="none" xmlns="http://www.w3.org/2000/svg">
<path fill-rule="evenodd" clip-rule="evenodd" d="M9.14645 0.889404C7.84497 0.889515 6.56239 1.20085 5.40571 1.79744C4.24904 2.39402 3.2518 3.25856 2.49722 4.31891C1.74263 5.37927 1.25257 6.6047 1.06792 7.89296C0.883265 9.18122 1.00938 10.495 1.43574 11.7246C1.8621 12.9542 2.57635 14.064 3.51888 14.9615C4.46142 15.8589 5.60491 16.518 6.85396 16.8836C8.10301 17.2493 9.4214 17.3109 10.6991 17.0635C11.9769 16.816 13.1769 16.2666 14.1991 15.461L17.7058 18.9676C17.8869 19.1425 18.1294 19.2393 18.3812 19.2371C18.6329 19.2349 18.8738 19.1339 19.0518 18.9559C19.2298 18.7778 19.3308 18.537 19.333 18.2853C19.3352 18.0335 19.2384 17.791 19.0635 17.6099L15.5568 14.1033C16.5055 12.8999 17.0962 11.4536 17.2613 9.93014C17.4264 8.40666 17.1592 6.86747 16.4904 5.48873C15.8215 4.10999 14.778 2.9474 13.4792 2.13401C12.1804 1.32062 10.6789 0.889301 9.14645 0.889404ZM2.90508 9.05089C2.90508 7.39564 3.56265 5.80818 4.73313 4.63774C5.90362 3.4673 7.49113 2.80975 9.14645 2.80975C10.8018 2.80975 12.3893 3.4673 13.5598 4.63774C14.7302 5.80818 15.3878 7.39564 15.3878 9.05089C15.3878 10.7061 14.7302 12.2936 13.5598 13.464C12.3893 14.6345 10.8018 15.292 9.14645 15.292C7.49113 15.292 5.90362 14.6345 4.73313 13.464C3.56265 12.2936 2.90508 10.7061 2.90508 9.05089Z" fill="#001E50"/>
</svg>
