<svg width="27" height="27" viewBox="0 0 27 27" fill="none" xmlns="http://www.w3.org/2000/svg">
<path d="M4.66304 12.1306C4.7751 12.1306 4.88633 12.1306 4.9984 12.1306C8.62964 12.1306 12.2609 12.1289 15.8921 12.1314C16.7418 12.1322 17.3322 12.707 17.3163 13.5023C17.303 14.1806 16.7786 14.7445 16.1062 14.7992C15.9716 14.8101 15.8352 14.8085 15.6998 14.8085C12.1312 14.8093 8.56273 14.8085 4.99422 14.8085C4.88299 14.8085 4.7726 14.8085 4.59446 14.8085C4.69733 14.9271 4.75085 14.9978 4.81274 15.0601C5.2911 15.544 5.77533 16.0212 6.24951 16.5093C6.81151 17.0883 6.82489 17.919 6.28965 18.4525C5.75442 18.9869 4.92648 18.9718 4.35695 18.4029C3.05482 17.1001 1.75604 15.794 0.461439 14.4836C-0.156591 13.8583 -0.153245 13.0765 0.46813 12.4478C1.75604 11.1451 3.04646 9.84565 4.3419 8.55046C4.92982 7.96303 5.75526 7.94452 6.29551 8.49071C6.83493 9.03689 6.80984 9.85828 6.22442 10.4575C5.69839 10.9953 5.16231 11.5229 4.63126 12.0548C4.63962 12.0801 4.65133 12.1053 4.66304 12.1306Z" fill="#DC2626"/>
<path d="M26.6836 20.0154C26.6853 15.0483 26.6886 10.0813 26.6828 5.1143C26.6794 2.23524 24.5845 0.0260891 21.7896 0.0151485C19.3392 0.00589108 15.4211 0.000841583 12.1327 0C11.396 0 10.7988 0.60089 10.7988 1.34317V1.35074C10.7988 2.09217 11.3951 2.69391 12.1327 2.69391C15.3985 2.69391 19.2848 2.69475 21.7101 2.69643C23.0265 2.69727 24.0091 3.68024 24.0108 5.00742C24.0166 10.646 24.0166 16.2855 24.0108 21.9249C24.0091 23.2504 23.0231 24.2308 21.7059 24.2317C19.2823 24.2334 15.3985 24.2342 12.1336 24.2342C11.3968 24.2342 10.7997 24.8351 10.7997 25.5774C10.7997 26.3188 11.396 26.9197 12.1327 26.9205C15.396 26.9214 19.2781 26.9256 21.6992 26.9189C24.3863 26.9113 26.4804 24.9479 26.6619 22.2514C26.7112 21.5092 26.6836 20.761 26.6836 20.0154Z" fill="#DC2626"/>
</svg>
