<svg width="67" height="64" viewBox="0 0 67 64" fill="none" xmlns="http://www.w3.org/2000/svg">
<path d="M23.7619 10.94C19.2624 11.1427 14.8576 11.6643 10.5764 12.1602C6.73845 12.6049 3.67687 15.6642 3.2458 19.5037C2.63493 24.9446 2 30.5856 2 36.3673C2 42.1489 2.63493 47.7899 3.2458 53.2308C3.67687 57.0703 6.73821 60.1296 10.5762 60.5742C16.0411 61.2074 21.7072 61.8822 27.515 61.8822C33.3227 61.8822 38.9889 61.2074 44.4537 60.5742C48.2917 60.1296 51.3531 57.0703 51.7841 53.2307C52.2358 49.2077 52.7006 45.0754 52.9122 40.8576" stroke="#001E50" stroke-width="4" stroke-linecap="round"/>
<path d="M46.0175 5.67164L29.8199 24.0506C29.0353 24.9408 28.4947 26.0246 28.2417 27.2143L26.2508 36.5783C25.8685 38.3761 27.7426 40.0773 29.4976 39.5256L38.8713 36.5787C40.0193 36.2178 41.0376 35.5873 41.8456 34.7371L58.5822 17.1262C61.5277 14.0269 60.9487 8.78548 57.3833 5.63192C53.9015 2.55222 48.7781 2.53925 46.0175 5.67164Z" fill="#001E50" fill-opacity="0.47"/>
<path d="M46.0175 5.67164L29.8199 24.0506C29.0353 24.9408 28.4947 26.0246 28.2417 27.2143L26.2508 36.5783C25.8685 38.3761 27.7426 40.0773 29.4976 39.5256L38.8713 36.5787C40.0193 36.2178 41.0376 35.5873 41.8456 34.7371L58.5822 17.1262C61.5277 14.0269 60.9487 8.78548 57.3833 5.63192C53.9015 2.55222 48.7781 2.53925 46.0175 5.67164Z" stroke="#001E50" stroke-width="4" stroke-linecap="round" stroke-linejoin="round"/>
</svg>
