<svg width="28" height="27" viewBox="0 0 28 27" fill="none" xmlns="http://www.w3.org/2000/svg">
<path d="M12.437 7.03206C12.1181 6.6285 11.5889 6.47633 11.1804 6.66992C10.9341 6.78646 10.6851 7.00028 10.4964 7.25744C10.0539 7.85941 9.63504 8.47294 9.19069 9.12403C9.01615 9.37926 8.83879 9.63931 8.65671 9.90418L8.52463 10.0949L8.36613 9.92633C8.25386 9.8069 8.14631 9.69036 8.04159 9.57574C7.818 9.33207 7.60667 9.10187 7.38308 8.88709C7.1293 8.64245 6.83023 8.52013 6.53682 8.52013C6.25002 8.52013 5.96888 8.63667 5.73774 8.87168C5.27734 9.34073 5.28112 10.0467 5.74717 10.5514C6.15096 10.9887 6.68683 11.5598 7.25855 12.1069C7.69347 12.523 8.23122 12.7224 8.77464 12.6694C9.32466 12.6154 9.82373 12.3101 10.1803 11.8083C10.3917 11.5107 10.6021 11.2035 10.8058 10.9059L11.0332 10.5736C11.1757 10.3655 11.32 10.1584 11.4634 9.95137C11.8068 9.45631 12.1625 8.94488 12.4974 8.43345C12.7993 7.97402 12.7776 7.46259 12.437 7.03206Z" fill="#92929D"/>
<path d="M12.2846 15.1369C11.8402 14.7574 11.2308 14.7594 10.8005 15.1408C10.677 15.2506 10.5704 15.3979 10.4628 15.552C10.0241 16.181 9.58824 16.8128 9.14294 17.4562L8.5467 18.3192L8.06932 17.8337C7.84479 17.6055 7.63251 17.3897 7.41836 17.1759C7.15514 16.913 6.87683 16.7839 6.57399 16.7839C6.50417 16.7839 6.43247 16.7907 6.35889 16.8051C5.93057 16.887 5.59471 17.1769 5.46074 17.5814C5.32394 17.9917 5.42112 18.4386 5.71924 18.7776C6.06454 19.1696 6.44096 19.5491 6.80513 19.9151C6.92117 20.0326 7.03815 20.1492 7.15325 20.2667C7.62214 20.7444 8.19291 20.9804 8.75991 20.9312C9.32597 20.8821 9.84769 20.5508 10.2288 19.9999C10.8383 19.1205 11.4449 18.2383 12.0506 17.356L12.3799 16.8764C12.4487 16.7762 12.5034 16.6876 12.5487 16.6038C12.8242 16.0962 12.7167 15.5058 12.2846 15.1369Z" fill="#92929D"/>
<path d="M20.253 17.4041C18.7416 17.3993 17.2576 17.3993 15.8406 17.4041C15.0934 17.407 14.5698 17.8915 14.5679 18.583C14.566 19.2765 15.0849 19.7648 15.8311 19.7687C16.3311 19.7715 16.8312 19.7706 17.3312 19.7706C17.5614 19.7706 17.7935 19.7706 18.0199 19.7696H18.6973C19.2124 19.7706 19.7275 19.7706 20.2435 19.7687C20.6436 19.7667 20.9926 19.6319 21.2266 19.3901C21.4313 19.1782 21.5389 18.897 21.536 18.5772C21.5294 17.8896 21.0021 17.4061 20.253 17.4041Z" fill="#92929D"/>
<path d="M25.9066 20.57C25.2282 20.5363 24.7367 21.014 24.681 21.7624C24.5461 23.5702 23.3678 24.6933 21.6064 24.6942C16.0138 24.6971 10.557 24.6971 5.38981 24.6942C3.55578 24.6933 2.32272 23.4383 2.32272 21.5707C2.32084 13.6353 2.32084 13.4841 2.3265 5.56508V5.48418C2.3265 5.13841 2.36518 4.82346 2.43971 4.54992C2.81897 3.16491 3.89731 2.37128 5.3983 2.37128L21.6253 2.37224C21.964 2.37224 22.2725 2.41173 22.5414 2.48782C23.898 2.875 24.6754 3.97589 24.6754 5.50826L24.6829 14.4771V14.5609C24.682 14.6707 24.682 14.7738 24.6895 14.8759C24.715 15.2342 24.8933 15.5558 25.1773 15.7591C25.4622 15.9623 25.8198 16.023 26.1585 15.9247C26.6943 15.7697 27.0019 15.3141 27.0028 14.6755L26.9953 5.38594C26.9896 3.01659 25.6377 1.06332 23.4659 0.288945C23.2253 0.203225 22.9772 0.144473 22.7149 0.0828309C22.6008 0.0558627 22.4866 0.0288945 22.3734 0L5.2766 0.0038526C2.95576 0.00866836 1.04249 1.38983 0.283972 3.607C0.200007 3.8526 0.142458 4.10591 0.0811349 4.37463C0.0547189 4.49021 0.0283029 4.60579 0 4.72136V22.3441C0.0452846 22.5031 0.0858521 22.6649 0.125476 22.8219C0.217932 23.1888 0.304728 23.5355 0.445299 23.8601C1.12362 25.4233 2.29725 26.4433 3.93316 26.8931C4.01429 26.9152 4.09071 26.9451 4.1643 26.974C4.186 26.9827 4.20675 26.9904 4.22845 26.999H22.7753C22.7999 26.9894 22.8244 26.9798 22.8489 26.9701C22.93 26.9384 23.0131 26.9056 23.1027 26.8815C25.3282 26.295 26.9292 24.2454 26.9962 21.8992C27.017 21.1633 26.5585 20.6037 25.9066 20.57Z" fill="#92929D"/>
<path d="M20.2964 9.14225C19.5738 9.1384 18.8398 9.13647 18.0831 9.13647C17.352 9.13647 16.6001 9.1384 15.8161 9.14129C15.0991 9.14418 14.5736 9.63731 14.5679 10.3134C14.5651 10.6371 14.6726 10.9222 14.8793 11.136C15.1066 11.3719 15.4415 11.5039 15.8217 11.5068C16.335 11.5106 16.8567 11.5097 17.3624 11.5087C17.5897 11.5087 17.8171 11.5078 18.0445 11.5078H20.2464H20.2993C21.0276 11.4962 21.5361 11.0088 21.5361 10.324C21.5342 9.64405 21.0134 9.14611 20.2964 9.14225Z" fill="#92929D"/>
</svg>
