<svg width="29" height="29" viewBox="0 0 29 29" fill="none" xmlns="http://www.w3.org/2000/svg">
<path d="M2 3.5625C2 3.1481 2.16462 2.75067 2.45765 2.45765C2.75067 2.16462 3.1481 2 3.5625 2H9.8125C10.2269 2 10.6243 2.16462 10.9174 2.45765C11.2104 2.75067 11.375 3.1481 11.375 3.5625V11.375C11.375 11.7894 11.2104 12.1868 10.9174 12.4799C10.6243 12.7729 10.2269 12.9375 9.8125 12.9375H3.5625C3.1481 12.9375 2.75067 12.7729 2.45765 12.4799C2.16462 12.1868 2 11.7894 2 11.375V3.5625ZM17.625 3.5625C17.625 3.1481 17.7896 2.75067 18.0826 2.45765C18.3757 2.16462 18.7731 2 19.1875 2H25.4375C25.8519 2 26.2493 2.16462 26.5424 2.45765C26.8354 2.75067 27 3.1481 27 3.5625V6.6875C27 7.1019 26.8354 7.49933 26.5424 7.79235C26.2493 8.08538 25.8519 8.25 25.4375 8.25H19.1875C18.7731 8.25 18.3757 8.08538 18.0826 7.79235C17.7896 7.49933 17.625 7.1019 17.625 6.6875V3.5625ZM2 20.75C2 20.3356 2.16462 19.9382 2.45765 19.6451C2.75067 19.3521 3.1481 19.1875 3.5625 19.1875H9.8125C10.2269 19.1875 10.6243 19.3521 10.9174 19.6451C11.2104 19.9382 11.375 20.3356 11.375 20.75V25.4375C11.375 25.8519 11.2104 26.2493 10.9174 26.5424C10.6243 26.8354 10.2269 27 9.8125 27H3.5625C3.1481 27 2.75067 26.8354 2.45765 26.5424C2.16462 26.2493 2 25.8519 2 25.4375V20.75ZM17.625 16.0625C17.625 15.6481 17.7896 15.2507 18.0826 14.9576C18.3757 14.6646 18.7731 14.5 19.1875 14.5H25.4375C25.8519 14.5 26.2493 14.6646 26.5424 14.9576C26.8354 15.2507 27 15.6481 27 16.0625V25.4375C27 25.8519 26.8354 26.2493 26.5424 26.5424C26.2493 26.8354 25.8519 27 25.4375 27H19.1875C18.7731 27 18.3757 26.8354 18.0826 26.5424C17.7896 26.2493 17.625 25.8519 17.625 25.4375V16.0625Z" stroke="#92929D" stroke-width="2.5"/>
</svg>
