<svg width="69" height="69" viewBox="0 0 69 69" fill="none" xmlns="http://www.w3.org/2000/svg">
<path d="M34.25 66.5C52.0612 66.5 66.5 52.0612 66.5 34.25C66.5 16.4388 52.0612 2 34.25 2C16.4388 2 2 16.4388 2 34.25C2 52.0612 16.4388 66.5 34.25 66.5Z" fill="#001E50" fill-opacity="0.36" stroke="#001E50" stroke-width="4" stroke-linecap="round" stroke-linejoin="round"/>
<path d="M17.877 39.2106C20.3577 48.1414 30.2808 53.5991 39.2116 51.1183C44.6693 49.1337 49.1346 44.6683 50.6231 39.2106" stroke="#001E50" stroke-width="4" stroke-linecap="round" stroke-linejoin="round"/>
<path d="M47.3986 26.8089C46.7135 26.8089 46.1582 26.2536 46.1582 25.5685C46.1582 24.8835 46.7135 24.3282 47.3986 24.3282" stroke="#001E50" stroke-width="4" stroke-linecap="round" stroke-linejoin="round"/>
<path d="M47.3983 26.8088C48.0833 26.8088 48.6387 26.2535 48.6387 25.5684C48.6387 24.8834 48.0833 24.3281 47.3983 24.3281" stroke="#001E50" stroke-width="4" stroke-linecap="round" stroke-linejoin="round"/>
<path d="M21.1022 26.8089C20.4172 26.8089 19.8618 26.2536 19.8618 25.5685C19.8618 24.8835 20.4172 24.3282 21.1022 24.3282" stroke="#001E50" stroke-width="4" stroke-linecap="round" stroke-linejoin="round"/>
<path d="M21.1029 26.8088C21.7879 26.8088 22.3433 26.2535 22.3433 25.5684C22.3433 24.8834 21.7879 24.3281 21.1029 24.3281" stroke="#001E50" stroke-width="4" stroke-linecap="round" stroke-linejoin="round"/>
</svg>
