<svg width="15" height="15" viewBox="0 0 15 15" fill="none" xmlns="http://www.w3.org/2000/svg">
<path d="M0.962622 8.27086H11.7151L7.01751 12.9685C6.64209 13.3439 6.64209 13.96 7.01751 14.3354C7.39294 14.7108 7.99939 14.7108 8.37481 14.3354L14.7185 7.9917C14.8077 7.90264 14.8785 7.79686 14.9268 7.68041C14.9751 7.56396 15 7.43912 15 7.31305C15 7.18698 14.9751 7.06214 14.9268 6.94569C14.8785 6.82924 14.8077 6.72346 14.7185 6.6344L8.38444 0.281098C8.29531 0.191976 8.18951 0.121281 8.07307 0.073049C7.95663 0.0248169 7.83182 -7.62752e-06 7.70579 -7.62939e-06C7.57975 -7.63127e-06 7.45495 0.0248169 7.33851 0.073049C7.22206 0.121281 7.11626 0.191976 7.02714 0.281098C6.93802 0.370219 6.86732 0.476021 6.81909 0.592464C6.77086 0.708907 6.74603 0.83371 6.74603 0.959746C6.74603 1.08578 6.77086 1.21059 6.81909 1.32703C6.86732 1.44347 6.93802 1.54927 7.02714 1.63839L11.7151 6.34561H0.962622C0.43318 6.34561 0 6.77879 0 7.30824C0 7.83768 0.43318 8.27086 0.962622 8.27086Z" fill="#001E50" fill-opacity="0.75"/>
</svg>
