<svg width="15" height="15" viewBox="0 0 15 15" fill="none" xmlns="http://www.w3.org/2000/svg">
<path d="M14.0374 6.72915L3.28489 6.72915L7.98249 2.03156C8.35791 1.65614 8.35791 1.04006 7.98249 0.664637C7.60707 0.289214 7.00061 0.289214 6.62519 0.664637L0.281512 7.00831C0.192274 7.09737 0.121475 7.20315 0.0731694 7.3196C0.0248639 7.43605 6.50349e-07 7.56089 6.39328e-07 7.68696C6.28306e-07 7.81303 0.0248639 7.93787 0.0731694 8.05432C0.121475 8.17077 0.192274 8.27655 0.281512 8.36561L6.61556 14.7189C6.70469 14.808 6.81049 14.8787 6.92693 14.927C7.04337 14.9752 7.16818 15 7.29421 15C7.42025 15 7.54505 14.9752 7.66149 14.927C7.77794 14.8787 7.88374 14.808 7.97286 14.7189C8.06198 14.6298 8.13268 14.524 8.18091 14.4075C8.22914 14.2911 8.25397 14.1663 8.25397 14.0403C8.25397 13.9142 8.22914 13.7894 8.18091 13.673C8.13268 13.5565 8.06198 13.4507 7.97286 13.3616L3.28489 8.6544L14.0374 8.6544C14.5668 8.6544 15 8.22122 15 7.69177C15 7.16233 14.5668 6.72915 14.0374 6.72915Z" fill="#001E50" fill-opacity="0.75"/>
</svg>
