<svg width="653" height="500" viewBox="0 0 653 500" fill="none" xmlns="http://www.w3.org/2000/svg">
<path d="M0 45.8961H219.9C211.3 36.0961 196.8 32.5961 184 35.3961C177.6 30.0961 171.1 24.2961 164.7 18.8961C157.2 12.5961 149.6 6.29607 140.5 2.69607C131.4 -0.903926 120.5 -1.30393 112.4 3.99607C104.3 9.29607 100.4 21.3961 105.9 29.3961C101.1 24.8961 82 12.1961 69.6 25.8961C66.1 29.7961 66.5 36.1961 62.9 40.0961C57.5 45.8961 40.7 41.9961 32.8 40.8961C9.3 37.6961 13.6 45.8961 0 45.8961Z" fill="#61D248"/>
<path d="M528.7 113.596C553.9 113.096 570.5 91.3961 588.7 77.0961C594 72.7961 599.8 69.2961 606.1 66.6961C607.9 65.9961 607.1 63.0961 605.3 63.7961C582.7 72.7961 569.2 94.7961 547.7 105.596C541.8 108.696 535.3 110.396 528.7 110.596C526.8 110.596 526.8 113.596 528.7 113.596Z" fill="#4B4065"/>
<path d="M559.4 343.696L567.9 366.096L613.9 335.696L600.5 375.896L630.4 364.396L619.4 393.596L651.9 402.696" fill="white"/>
<path d="M559.4 343.696L567.9 366.096L613.9 335.696L600.5 375.896L630.4 364.396L619.4 393.596L651.9 402.696" stroke="#F27932" stroke-width="2" stroke-miterlimit="10"/>
<path d="M324.2 43.196H514.2C522.8 43.196 529.8 50.1961 529.8 58.7961V441.596C529.8 450.196 522.8 457.196 514.2 457.196H324.2C315.6 457.196 308.6 450.196 308.6 441.596V58.696C308.6 50.096 315.6 43.196 324.2 43.196Z" fill="white" stroke="#495894" stroke-miterlimit="10"/>
<path d="M502.1 93.2961H338.8V245.196H502.1V93.2961Z" stroke="#B9C6E4" stroke-miterlimit="10"/>
<path d="M362.5 221.996H411.4" stroke="#B9C6E4" stroke-miterlimit="10"/>
<path d="M362.5 205.196H447.5" stroke="#B9C6E4" stroke-miterlimit="10"/>
<path d="M467.2 112.096H492.7" stroke="#B9C6E4" stroke-miterlimit="10"/>
<path opacity="0.26" d="M389.3 155.796C409.7 148.696 432.1 150.496 451.1 160.796C454.7 142.296 442.6 124.496 424.1 120.896C405.6 117.296 387.8 129.396 384.2 147.896C383.8 149.996 383.6 152.196 383.6 154.396C383.6 155.596 383.7 156.796 383.8 157.996C385.6 157.096 387.4 156.396 389.3 155.796Z" fill="#B9C6E4"/>
<path d="M478.6 270.596H502.1V422.496H338.8V270.596H354.2" stroke="#B9C6E4" stroke-miterlimit="10"/>
<path d="M362.5 399.396H411.4" stroke="#B9C6E4" stroke-miterlimit="10"/>
<path d="M362.5 382.496H447.5" stroke="#B9C6E4" stroke-miterlimit="10"/>
<path d="M467.2 289.396H492.7" stroke="#B9C6E4" stroke-miterlimit="10"/>
<path opacity="0.26" d="M435 302.296C423.1 305.596 410.7 305.996 398.6 303.396C383 313.896 378.9 335.096 389.4 350.696C399.9 366.296 421.1 370.396 436.7 359.896C452.3 349.396 456.4 328.196 445.9 312.596C443.1 308.396 439.4 304.896 435 302.296Z" fill="#B9C6E4"/>
<path d="M484.4 264.796L345.5 261.896L336.4 231.296L343.5 199.096H484.4L491.4 231.896L484.4 264.796Z" fill="white" stroke="#61D248" stroke-miterlimit="10"/>
<path d="M363.9 213.496V250.296L379.7 239.496L395.4 250.296V213.496H363.9Z" fill="#B9C6E4"/>
<path d="M451.2 215.396L453.5 221.496C454.1 222.996 455.5 223.996 457 224.096L463.5 224.396C465.7 224.496 467.4 226.396 467.2 228.596C467.1 229.696 466.6 230.696 465.8 231.396L460.7 235.496C459.5 236.496 458.9 238.096 459.3 239.696L461 245.996C461.5 248.096 460.3 250.296 458.1 250.896C457 251.196 455.9 250.996 455 250.396L449.6 246.796C448.3 245.896 446.6 245.896 445.2 246.796L439.8 250.396C437.9 251.596 435.5 250.996 434.3 249.096C433.7 248.196 433.5 246.996 433.8 245.996L435.5 239.696C435.9 238.196 435.4 236.496 434.1 235.496L429 231.396C427.3 229.996 427.1 227.496 428.5 225.796C429.2 224.896 430.2 224.396 431.3 224.396L437.8 224.096C439.4 223.996 440.8 222.996 441.3 221.496L443.6 215.396C444.4 213.396 446.8 212.396 448.8 213.196C450 213.596 450.8 214.396 451.2 215.396Z" stroke="#61D248" stroke-miterlimit="10"/>
<path d="M372.8 293.396L388.7 301.196L352.7 374.596C350.5 378.996 345.2 380.796 340.8 378.696C336.4 376.496 334.6 371.196 336.7 366.796L372.8 293.396Z" fill="#495894"/>
<path d="M368.6 301.996L382.6 313.796L387.5 303.796L371.1 296.896L368.6 301.996Z" fill="#4B4065"/>
<path d="M474.8 180.596C501.1 213.896 495.5 262.196 462.3 288.496C429.1 314.796 380.7 309.196 354.4 275.996C328.1 242.696 333.7 194.396 366.9 168.096C373.6 162.796 381.2 158.596 389.3 155.796C420.2 144.896 454.5 154.896 474.8 180.596Z" stroke="#495894" stroke-width="7" stroke-miterlimit="10"/>
<path d="M186.4 205.196C180.2 197.196 177.8 186.796 177.5 176.696C177.1 165.696 180 154.696 179.2 143.996C178.5 133.896 180.7 123.796 185.7 114.996C196 96.7961 218.4 85.2961 239.2 90.5961C247.2 92.5961 254.1 97.5961 261.8 100.796C276 106.796 294.7 104.196 308.6 97.4961C308.7 97.7961 308.5 100.696 308.6 100.996V194.996C302.6 204.096 294.7 213.196 285 217.996C275.3 222.796 263.8 224.296 253.3 221.396C239.8 217.596 228.4 206.796 214.3 206.096C208.9 205.796 203.6 207.096 198.2 207.296C192.8 207.496 189.7 209.496 186.4 205.196Z" fill="#4B4065"/>
<path d="M181.8 220.796L201.9 167.696L194.5 143.896C191.7 134.896 192.8 125.196 197.6 117.096L201.5 110.596C208.1 99.2961 220.8 92.8961 233.8 94.3961C244.1 95.5961 253.4 101.496 258.7 110.396C262 115.896 263.9 122.196 264.2 128.596L266.7 178.696C267 184.296 263.5 189.496 258.2 191.396C255.7 192.296 253 192.396 250.4 191.596L233.8 186.796L233.4 231.596L244.5 277.396L203.5 283.596L181.8 220.796Z" fill="#B9C6E4"/>
<path d="M241 229.396C241 229.396 237.4 228.596 233.2 227.896L228.2 261.896C227.5 266.296 224.2 269.696 219.8 270.596C215.5 271.396 211.2 269.396 208.9 265.696L181.9 220.296C172.4 219.296 164.3 218.896 160.3 219.696C145.6 222.596 119.5 236.696 98.6 313.396L98.3 315.296C97.1 321.996 99.6 328.796 104.8 333.196L114.7 341.496L181.8 353.896L266.7 334.996L280.3 313.496C280.3 313.396 264.4 233.596 241 229.396Z" fill="#61D248"/>
<path d="M184.3 138.396C197.9 144.696 216.1 143.496 230.1 138.296C244.1 133.096 255 117.196 256.6 102.296C250.7 93.996 239.8 90.696 229.7 91.696C219.6 92.696 210.1 97.996 203 105.296C195.9 112.596 188.4 129.096 184.3 138.396Z" fill="#4B4065"/>
<path d="M189.2 274.696L179.4 361.896" stroke="#F27932" stroke-miterlimit="10"/>
<path d="M390.7 330.196L359.7 320.096L368.7 301.996L317.6 325.096L176.6 352.096L179.4 332.396C170 332.396 160.9 327.296 152.9 321.996C143.8 315.996 134.4 309.196 123.5 308.496C120.9 308.296 118.3 308.496 115.7 309.096C110 329.896 98.6999 376.896 106.4 393.796C116.5 415.696 124.7 437.096 236.4 393.796L322.7 368.896C322.7 368.896 344.5 366.696 362.1 366.096C367.2 364.996 372.2 363.396 377 361.496C380.1 360.096 382 357.096 382 353.696V350.496C382 350.496 385.9 348.296 387 345.996C388.1 343.696 387 338.596 387 338.596C387 338.596 393.3 338.796 394.8 335.296C396.3 331.796 390.7 330.196 390.7 330.196Z" fill="#B9C6E4"/>
<path d="M99.2 318.996C105.1 311.896 114.1 307.996 123.4 308.496C134.3 309.196 143.7 315.996 152.8 321.996C161.9 327.996 172.4 333.796 183.2 332.096" stroke="#F27932" stroke-miterlimit="10"/>
<path d="M253.3 285.796C265.3 297.896 267.3 318.596 257.9 332.796" stroke="#F27932" stroke-miterlimit="10"/>
<path d="M208.9 143.696C207.2 137.296 200.6 133.596 194.2 135.396C187.8 137.096 184.1 143.696 185.9 150.096C187.2 154.896 191.4 158.496 196.1 159.896C200.8 161.296 206 160.696 210.7 159.196" fill="#B9C6E4"/>
<path d="M232.9 145.096C237.8 139.696 246.2 139.296 251.6 144.296C253.4 145.996 254.7 148.096 255.4 150.396C247.5 152.996 238.8 150.996 232.9 145.096Z" fill="white"/>
<path d="M242.5 147.396C242.3 145.096 242.9 142.796 244.1 140.796C249.5 141.296 254 145.096 255.5 150.296C251.6 151.596 247.5 151.796 243.5 150.896C242.9 149.796 242.6 148.696 242.5 147.396Z" fill="#4B4065"/>
<path d="M236.4 133.696C241.3 129.296 248.8 129.796 253.2 134.696L253.3 134.796C247.4 134.596 242.2 133.996 236.4 133.696Z" fill="#4B4065" stroke="#4B4065" stroke-width="0.25" stroke-linejoin="round"/>
<path d="M233.8 145.396C236 142.596 239.3 140.896 242.8 140.796C246.2 140.696 249.5 142.196 251.8 144.796C253.1 146.196 254 147.996 254.4 149.896C254.5 150.496 255.5 150.296 255.4 149.596C254.5 145.996 252.1 142.996 248.8 141.196C243.4 138.496 236.8 139.896 233 144.696C232.7 145.196 233.4 145.996 233.8 145.396Z" fill="#4B4065"/>
<path d="M263.1 147.896C265.1 149.196 267 150.696 268.8 152.296C269.5 152.796 270.1 153.596 270.5 154.396C271 155.996 269.8 157.696 268.4 158.596C267 159.496 265.3 160.096 264.1 161.196" fill="#B9C6E4"/>
<path d="M244.2 160.296C247.8 164.296 253.2 166.096 258.5 164.896" stroke="#4B4065" stroke-miterlimit="10"/>
<path d="M387 338.596L351.2 337.096" stroke="#495894" stroke-miterlimit="10"/>
<path d="M382.1 350.396L348.7 353.796" stroke="#495894" stroke-miterlimit="10"/>
<path d="M165.7 364.196L176.5 352.096" stroke="#495894" stroke-miterlimit="10"/>
<path opacity="0.21" d="M231.4 169.296C236.37 169.296 240.4 165.267 240.4 160.296C240.4 155.326 236.37 151.296 231.4 151.296C226.429 151.296 222.4 155.326 222.4 160.296C222.4 165.267 226.429 169.296 231.4 169.296Z" fill="#EF749B"/>
<path opacity="0.19" d="M233.6 215.196C228.6 215.396 223.9 211.096 221.8 206.496C219.7 201.896 219.2 196.796 218.1 191.896C217 186.996 215.9 180.296 211.8 177.296L234.2 186.596C234.1 195.996 233.6 205.996 233.6 215.196Z" fill="#495894"/>
<path d="M580.1 145.496C594.8 138.496 608.9 130.296 622.3 120.996C619.7 104.296 616.3 87.696 612.2 71.196C590.8 77.696 573.6 96.5961 552.8 106.596C545.5 110.096 537.7 112.596 529.7 113.996V222.396C563.8 227.396 598.6 221.696 629.2 205.896C629 182.796 627.4 159.696 624.5 136.696L580.1 145.496Z" fill="#4B4065"/>
<path d="M502.9 403.796L487.2 456.396L502.5 456.296" fill="#B9C6E4"/>
<path d="M598.3 499.196H533.4L502.9 467.996V403.796H598.3V499.196Z" fill="white" stroke="#F27932" stroke-miterlimit="10"/>
<path d="M578.4 441.496C577.7 435.496 571.5 431.496 566.1 432.496C561.1 433.396 556.6 437.996 554.3 443.096C551.8 438.096 547.1 433.696 542.1 432.996C536.6 432.296 530.6 436.596 530.2 442.596C529.9 447.196 532.5 451.396 535.5 454.596C540.8 460.296 554.9 468.796 554.9 468.796C560.4 465.296 568.6 459.596 573.7 453.696C576.5 450.296 579 445.996 578.4 441.496Z" fill="#61D248"/>
<path d="M354.4 43.196L361.5 62.896C363.3 67.896 368 71.196 373.3 71.196H462.1C467.5 71.196 472.3 67.796 474 62.696L480.6 43.196H354.4Z" fill="#495894"/>
<path d="M193.8 101.396C197.2 94.596 193 85.5961 186 82.5961C179 79.5961 170.6 81.6961 164.8 86.5961C159 91.4961 155.7 98.7961 153.9 106.196C152.2 113.296 152.9 122.496 159.5 125.596C165.9 128.596 173.4 123.696 177.6 117.996C181.8 112.296 184.9 105.296 191 101.696" fill="#4B4065"/>
</svg>
